<svg xmlns="http://www.w3.org/2000/svg" fill="none" viewBox="0 0 110 110" height="600" width="600"><path fill="#000000" d="M38.9236 82.555C39.8404 82.2305 40.7797 81.9729 41.7341 81.785L41.8496 82.2085C41.8625 82.2585 41.8929 82.302 41.9353 82.3313C41.9778 82.3607 42.0293 82.3735 42.0806 82.368L45.859 81.928C46.8985 79.5575 48.807 75.966 48.8345 75.911C48.807 75.0145 48.8345 74.261 48.8345 73.403C46.673 74.206 42.6746 75.7295 40.5846 76.703C40.5373 76.7333 40.5008 76.7782 40.4801 76.8304C40.4594 76.8827 40.4555 76.94 40.4691 76.9945C40.4691 76.9945 40.5076 77.132 40.5571 77.33C39.5341 77.33 36.4706 77.1815 35.7336 77.88C35.619 78.0395 35.5627 78.2338 35.5741 78.43C35.5301 79.189 35.9096 85.085 36.5146 86.8175C36.8281 87.725 37.4881 87.626 37.9391 86.757C38.4611 85.4485 38.7962 84.0726 38.9346 82.6705C38.9346 82.599 38.9181 82.6045 38.9236 82.555ZM38.2911 77.6325C38.9621 77.5775 39.1711 77.5885 40.6121 77.5445C40.8706 78.5235 41.4041 80.5365 41.6791 81.565C40.7087 81.7153 39.7509 81.9376 38.8136 82.2305C38.5215 80.7134 38.3468 79.1762 38.2911 77.6325Z"></path><path fill="#000000" d="M89.5455 29.4965C89.683 29.304 89.507 29.0565 89.3585 28.864C89.7793 28.4314 90.2459 28.0459 90.75 27.7145C91.6011 27.2904 92.3789 26.7335 93.0545 26.0645C93.335 25.773 93.863 25.1735 93.665 24.8215C93.467 24.4695 93.115 24.4475 92.6365 24.651C92.8437 24.4334 93.0133 24.1823 93.137 23.9085C93.291 23.4795 92.928 23.133 92.1415 23.452C92.4275 22.9955 92.4935 22.517 92.0095 22.286C91.619 22.099 91.047 22.5445 90.717 22.836C90.0689 23.4022 89.4607 24.0123 88.8965 24.662C88.55 23.936 88 23.1 87.3125 23.364C86.625 23.628 87.1585 24.8105 87.5105 25.454L86.262 26.3175C86.0732 26.2156 85.8601 26.1681 85.646 26.18C84.227 26.422 77.7095 31.383 77.0495 31.383C76.5435 31.383 69.3165 27.918 63.0685 26.917C63.0566 26.8795 63.0341 26.8463 63.0039 26.821C62.9736 26.7957 62.937 26.7794 62.898 26.774C61.8081 26.588 60.7035 26.5052 59.598 26.5265C59.5646 26.5288 59.532 26.5383 59.5027 26.5544C59.4729 26.5706 59.4477 26.593 59.4275 26.62H58.9655C58.8555 26.1745 58.4485 25.146 58.3055 24.75C58.6795 24.4255 59.1965 24.2605 59.466 23.738C59.961 22.77 59.939 21.087 59.8015 20.009C60.423 19.536 60.4395 18.777 60.2965 18.0015C60.2415 17.688 60.071 16.9785 59.807 16.8025C59.6585 16.7035 59.345 16.8025 59.0755 16.9015C58.806 16.2745 58.806 16.5605 58.916 16.3075C58.9674 16.1909 58.9971 16.0661 59.004 15.939C59.2955 16.027 59.9005 15.444 59.6915 14.674C59.582 14.3984 59.4477 14.1333 59.29 13.882C59.367 13.695 59.532 13.4695 59.015 12.782C58.7923 12.5418 58.5031 12.3733 58.1845 12.298H57.9315C57.7491 12.0331 57.481 11.8389 57.1725 11.748C56.7069 11.6292 56.2128 11.6984 55.7975 11.9405C55.6875 12.023 55.5995 12.133 55.4895 12.21C55.2406 12.059 54.9556 11.9792 54.6645 11.9792C54.3735 11.9792 54.0884 12.059 53.8395 12.21C53.6938 12.2671 53.5613 12.3531 53.4499 12.4627C53.3386 12.5724 53.2501 12.7034 53.1905 12.848C52.921 12.755 52.635 12.7192 52.3509 12.7429C52.0671 12.7666 51.7908 12.8492 51.5405 12.9855C50.5904 13.5007 49.8795 14.3674 49.5605 15.4C49.5518 15.5557 49.5518 15.7118 49.5605 15.8675H49.5C48.675 15.7465 47.6245 17.7045 48.466 19.228C48.565 19.4095 48.6915 19.58 48.8125 19.778C49.1645 20.328 49.027 20.493 49.8135 21.164C50.0445 21.362 50.083 21.3455 50.226 21.4665C50.369 21.5875 50.314 21.527 50.3965 21.835C50.4414 22.0164 50.5221 22.1872 50.6335 22.3373C50.7449 22.4874 50.8851 22.6139 51.0455 22.7095C51.1042 23.2475 51.3334 23.7525 51.7 24.1505C51.816 24.2805 51.9516 24.3917 52.1015 24.4805C52.1419 24.5033 52.1872 24.5165 52.2335 24.519C52.3985 25.542 52.602 26.873 52.69 27.4395L52.2005 27.7035C51.5602 27.9612 50.9374 28.2607 50.336 28.6C50.2888 28.6327 50.2554 28.6816 50.2425 28.7375C49.6595 29.0455 49.1095 29.337 48.796 29.524C44.4291 32.1145 32.0265 49.192 31.9 49.973C31.8861 50.0179 31.8861 50.0656 31.9 50.1105C32.0778 50.3942 32.2944 50.6514 32.5435 50.875C32.4668 51.0153 32.3745 51.1459 32.2685 51.2655C31.1685 51.986 29.5186 53.0585 28.6331 54.0155C28.5709 54.071 28.5243 54.1416 28.4979 54.2204C28.4714 54.2992 28.4659 54.3836 28.482 54.4651C28.4981 54.5467 28.5352 54.6228 28.5897 54.6861C28.6442 54.7489 28.7141 54.7965 28.7925 54.824C28.9575 54.879 28.9851 54.8625 30.0576 54.274C29.7628 54.5325 29.5217 54.8465 29.3481 55.198C29.2766 55.5005 29.5516 55.6765 29.8981 55.6215C30.093 55.5702 30.2786 55.4886 30.4481 55.3795C30.3488 55.5326 30.2961 55.7114 30.2961 55.8938C30.2961 56.0762 30.3488 56.2549 30.4481 56.408C30.9981 57.101 32.4391 54.9175 33.1981 54.3785C33.5061 54.769 33.924 55.682 34.5895 55.44C35.167 55.2255 34.5345 53.955 34.5895 53.5865C34.8133 53.3716 35.0523 53.1731 35.3046 52.9925C35.7288 53.3069 36.2139 53.5301 36.729 53.647C37.6365 53.647 47.1075 44.088 47.828 43.3235C47.5695 45.7545 46.266 56.188 46.541 58.2175C46.6675 59.136 48.873 59.268 49.8025 59.3175C49.522 65.9175 49.335 75.9165 49.2855 76.021C47.828 79.1615 47.432 80.0195 46.9425 80.971C46.0515 82.676 42.3005 88.968 41.877 90.398C41.8165 90.6235 41.811 90.7115 42.0475 91.1295C41.3388 91.8748 40.681 92.6668 40.0786 93.5C39.7761 94.05 41.074 99.176 41.9925 100.991C42.2015 101.398 42.5425 102.025 42.999 102.009C44.374 101.959 44.3685 97.02 44.33 95.6395C44.3298 95.5969 44.3142 95.5561 44.286 95.524C44.5353 95.1519 44.8071 94.7957 45.1 94.457C45.2749 94.5776 45.4588 94.6839 45.65 94.776C45.837 94.8585 46.046 94.7155 46.2 94.589C48.0315 93.148 57.9095 80.839 60.027 75.031C60.9895 72.38 62.271 68.717 62.634 66.121C62.8559 64.4797 62.8765 62.8174 62.6945 61.171C62.6945 61.1476 62.7037 61.1252 62.7202 61.1087C62.7367 61.0922 62.7591 61.083 62.7825 61.083C62.8059 61.083 62.8284 61.0922 62.8449 61.1087C62.8614 61.1252 62.8705 61.1476 62.8705 61.171C63.146 62.8265 63.1996 64.5118 63.03 66.1815C62.623 69.784 59.7795 77.2915 58.2615 80.0525C59.5705 79.8105 62.2325 79.2825 63.5195 78.8975C67.8095 77.594 71.7695 73.7055 72.116 69.3385C72.2283 67.2811 72.2283 65.2195 72.116 63.162C72.0789 60.3217 71.7099 57.4956 71.016 54.7415C72.182 54.109 73.249 53.3665 73.5955 52.6845C74.338 51.227 72.3745 42.8395 71.9455 40.4855C74.294 40.744 78.2925 41.2115 80.157 39.754C82.291 38.038 86.9 33.209 89.5455 29.4965ZM44.033 95.337C43.043 94.7375 41.657 93.313 41.448 92.1965C41.6735 91.9105 41.91 91.6465 42.13 91.3495C42.8754 92.4871 43.8048 93.4927 44.88 94.325C44.578 94.6454 44.2951 94.9832 44.033 95.337ZM87.758 25.608C87.7864 25.5899 87.8071 25.5615 87.8149 25.5288C87.8231 25.496 87.8185 25.4614 87.802 25.432C87.6095 25.0745 87.032 23.815 87.4335 23.672C87.6645 23.584 87.868 23.727 88.0385 23.9195C88.2989 24.2498 88.5014 24.6217 88.638 25.0195C88.6481 25.0518 88.6669 25.0808 88.6926 25.1033C88.7178 25.1258 88.7489 25.1409 88.7819 25.1472C88.8154 25.1534 88.8498 25.1504 88.8819 25.1386C88.9135 25.1268 88.9414 25.1065 88.9625 25.08C89.5125 24.4695 90.7995 23.078 91.5255 22.704C92.0755 22.418 92.2075 22.946 90.86 24.178C90.5506 24.414 90.2532 24.6655 89.969 24.9315C89.9534 24.9531 89.9447 24.9791 89.9447 25.0058C89.9447 25.0324 89.9534 25.0584 89.969 25.08C89.969 25.223 90.0845 25.3825 90.2825 25.234C90.7606 24.8143 91.2661 24.4267 91.795 24.0735C92.065 23.8817 92.3789 23.7606 92.708 23.7215C92.543 24.2275 91.0085 25.6025 90.8765 25.7565C90.8348 25.7941 90.8091 25.8465 90.8055 25.9026C90.8023 25.9587 90.8206 26.014 90.8573 26.0565C90.8944 26.099 90.9462 26.1254 91.0021 26.13C91.0585 26.1346 91.1139 26.117 91.157 26.081C91.7675 25.685 92.8345 24.761 93.203 24.8985C93.5715 25.036 92.477 26.059 92.202 26.301C90.6235 27.6705 91.0305 26.7905 89.2045 28.6495C88.4098 27.7788 87.4972 27.0235 86.493 26.4055L87.758 25.608ZM63.8605 51.9145C63.767 51.1555 63.6515 50.336 63.5085 49.4835L63.745 49.17C64.845 47.7565 65.175 45.507 65.0705 43.7415C65.659 46.321 66.1265 48.8565 66.484 51.3755L63.8605 51.9145ZM55.682 33.0825C54.2355 31.9825 51.909 30.085 50.556 28.787L52.756 27.687C54.7764 29.574 56.5056 31.75 57.8875 34.144C60.0009 38.0261 61.5684 42.1811 62.546 46.4915L54.703 35.398L55.726 33.275C55.7398 33.2423 55.7425 33.2062 55.7347 33.1718C55.7269 33.1372 55.7086 33.1061 55.682 33.0825ZM59.4 26.8455C59.433 26.906 59.8125 27.7145 60.39 29.128C60.39 29.1885 60.2855 30.5635 60.236 31.0475C59.5339 30.7693 58.872 30.3994 58.267 29.9475C58.388 29.469 58.9325 27.2965 58.971 26.807L59.4 26.8455ZM57.4475 32.7525C57.486 32.6535 57.5245 32.5215 57.5685 32.3675L57.937 32.56C58.146 32.6975 58.0635 32.2795 58.2505 33.4895C58.2505 33.693 58.3055 33.9185 58.3165 34.166C58.0635 33.7095 57.75 33.22 57.453 32.7525H57.4475ZM57.1395 32.2905C56.1005 30.8167 54.9175 29.4497 53.6085 28.2095L57.75 30.008C57.5905 30.3875 57.3595 31.548 57.145 32.2905H57.1395ZM61.369 35.5135C60.819 34.012 60.3955 32.3345 60.1865 31.8945C60.1989 31.7573 60.1989 31.6192 60.1865 31.482C60.2663 31.5116 60.3492 31.5301 60.434 31.537C60.4872 31.5376 60.5385 31.519 60.5789 31.4846C60.6196 31.4503 60.6462 31.4025 60.654 31.35C60.698 31.1685 60.7695 30.25 60.7805 30.0465C62.3806 34.086 63.7161 38.2253 64.779 42.438C61.6715 35.827 62.15 37.741 61.3745 35.5135H61.369ZM65.9175 46.013C64.6635 40.0015 62.458 32.505 59.95 26.95C60.8713 26.9505 61.7907 27.0241 62.7 27.17C63.1675 31.35 62.777 31.207 63.0905 31.372C63.404 31.537 65.2905 32.296 65.571 32.4115C65.5435 32.835 65.9395 44.946 65.923 46.013H65.9175ZM59.587 17.1545C59.8739 17.7802 59.9748 18.475 59.8785 19.1565C59.8336 19.33 59.7419 19.4876 59.6127 19.6118C59.4834 19.7361 59.3226 19.8221 59.1475 19.8603C58.9729 19.8985 58.7904 19.8874 58.6213 19.8282C58.4522 19.769 58.3032 19.664 58.19 19.525C57.9274 18.9722 57.7303 18.3908 57.6015 17.7925C57.75 17.6 59.334 17.215 59.587 17.1545ZM52.019 22.6545C51.8183 22.563 51.6125 22.4823 51.403 22.4125C51.2623 22.3547 51.1372 22.2655 51.0364 22.1517C50.9355 22.0379 50.8622 21.9026 50.8219 21.756C50.7815 21.6095 50.7751 21.4557 50.8035 21.3063C50.8319 21.157 50.8938 21.0161 50.985 20.8945C51.3315 20.603 51.645 20.6195 51.931 21.054C52.1125 21.3895 52.107 21.417 52.1895 21.45C52.2134 21.4604 52.239 21.4657 52.2647 21.4654C52.2904 21.4651 52.316 21.4593 52.3394 21.4484C52.3628 21.4375 52.3839 21.4216 52.4004 21.402C52.4173 21.3824 52.4297 21.3594 52.437 21.3345C52.5186 20.9903 52.5314 20.6333 52.4755 20.284C52.4095 19.9045 52.3985 18.2215 52.4095 18.1665C52.5704 18.2512 52.7505 18.2911 52.932 18.282C53.9275 18.2435 54.1255 17.732 54.5215 17.314C54.978 17.358 55.0715 17.578 55.5885 17.314C55.8305 17.1763 56.0528 17.0061 56.2485 16.808C56.4066 16.8727 56.5593 16.95 56.705 17.039C57.0346 17.1975 57.4063 17.2462 57.7656 17.1779C58.1249 17.1096 58.4531 16.9279 58.7015 16.6595C58.762 16.775 58.817 16.8905 58.8665 17.0115C58.361 17.1684 57.8852 17.4081 57.4585 17.721C57.365 17.8365 57.5025 18.4635 57.5355 18.612C57.0749 18.67 56.6289 18.8136 56.221 19.0355C56.1385 18.7495 55.957 18.216 55.671 18.0675C55.5849 18.0412 55.4932 18.0412 55.407 18.0675C54.912 18.1445 53.1355 18.678 52.921 18.9695C52.734 19.173 53.2675 20.746 53.4325 21.0045C54.065 21.9835 55.9185 21.6975 56.265 20.5535C56.3507 20.1696 56.3507 19.7714 56.265 19.3875C56.4245 19.3875 56.903 19.217 56.958 19.2005C57.3375 20.053 57.4475 20.1025 57.8875 21.021C57.827 21.0705 57.728 21.153 57.6455 21.208C57.255 21.4665 57.1725 21.4225 57.1945 21.5325C57.2009 21.5543 57.2151 21.5731 57.2344 21.5852C57.2536 21.5974 57.2766 21.6021 57.299 21.5985C57.53 21.5655 57.7555 21.5027 57.97 21.4115C58.0984 21.3636 58.2042 21.2694 58.267 21.1475C58.421 20.801 57.5685 19.4975 57.233 19.107C57.299 19.107 57.453 18.997 57.5685 18.9365C57.7225 19.5525 57.827 20.0365 58.421 20.2785C58.5929 20.3433 58.7758 20.3728 58.9591 20.3653C59.1424 20.3577 59.3221 20.3132 59.488 20.2345C59.576 21.2025 59.5595 22.7755 59.0975 23.6335C58.861 24.079 58.278 24.2495 57.904 24.618C57.794 24.7225 57.8655 24.871 57.904 25.0305C58.5145 26.73 58.5255 26.7245 58.4925 26.9445C58.3307 27.8576 58.1048 28.7582 57.816 29.6395C57.6785 29.579 56.133 28.7595 53.108 27.5825C53.0145 26.961 52.514 23.6445 52.3545 23.034C52.3655 22.8195 52.338 22.77 52.019 22.627V22.6545ZM55.869 20.4105C55.693 21.01 54.8625 21.2685 54.2685 21.1035C53.6745 20.9385 53.636 20.636 53.3555 19.921C53.224 19.6479 53.1332 19.3569 53.086 19.0575C53.2675 18.8595 55.253 18.4525 55.5005 18.414C55.8475 19.0079 55.9781 19.7038 55.869 20.383V20.4105ZM34.3476 53.4325C34.1386 53.636 34.419 54.3015 34.463 54.879C34.463 54.9285 34.463 55.143 34.43 55.1595C34.1275 55.2585 33.847 54.802 33.6765 54.527C33.506 54.252 33.3355 53.878 33.066 53.977C32.516 54.2355 31.24 55.9295 30.7395 56.1055C30.4865 55.6215 31.9331 54.241 31.9826 54.164C32.0038 54.1287 32.0149 54.0879 32.0147 54.0471C32.0145 54.0059 32.003 53.9651 31.9815 53.9303C31.9599 53.895 31.9291 53.8666 31.8925 53.8473C31.8558 53.8285 31.8147 53.8203 31.7736 53.823C31.6746 53.823 31.6085 53.911 31.4545 54.0485C30.9861 54.5055 30.45 54.8877 29.865 55.1815C30.3954 54.5729 30.963 53.9981 31.5645 53.46C31.5943 53.4293 31.6152 53.3913 31.6251 53.35C31.6251 53.35 31.5096 53.0585 31.2841 53.174C30.9651 53.35 29.414 54.2465 28.9246 54.4775C28.8586 54.4335 28.8971 54.3675 28.9246 54.3015C29.7 53.35 31.4051 52.195 32.45 51.4635C32.5727 51.337 32.6748 51.1926 32.7525 51.0345C33.4763 51.7078 34.2483 52.3275 35.0625 52.888C34.8117 53.0526 34.5728 53.2345 34.3476 53.4325ZM47.146 58.432C47.025 58.355 46.937 58.2835 46.9205 58.1845C46.618 55.9405 48.301 43.2245 48.2735 42.724C48.2735 42.6946 48.2676 42.6656 48.2561 42.6385C48.2451 42.6115 48.2281 42.587 48.2071 42.5665C48.186 42.546 48.1612 42.5299 48.1337 42.5191C48.1067 42.5084 48.0774 42.5033 48.048 42.504C47.7675 42.504 48.2625 42.504 41.2556 49.214C40.7936 49.6485 37.2625 53.0255 36.674 53.251C35.8655 53.1905 32.824 50.765 32.329 50.0005C33.286 48.0645 44.891 32.1365 48.906 29.7C49.214 29.513 49.742 29.2215 50.3195 28.9135C50.5194 29.1019 50.7343 29.2729 50.963 29.425C52.239 30.635 54.0155 32.142 55.363 33.275L54.3125 35.3595C54.2965 35.3871 54.2882 35.4184 54.2882 35.4503C54.2882 35.4821 54.2965 35.5134 54.3125 35.541C62.843 47.7785 62.7165 47.641 62.7715 47.641C63.3183 50.4689 63.6584 53.3326 63.789 56.21C63.789 56.9855 63.789 56.9195 63.822 56.8645C63.855 56.8095 63.822 56.903 63.822 56.903C62.491 58.355 49.3185 59.708 47.146 58.432ZM77.55 40.2105C75.0585 40.557 72.2425 40.04 71.698 40.018C71.3955 38.5518 70.7924 37.1642 69.927 35.9425C69.9137 35.9247 69.8945 35.9125 69.8725 35.9085C69.8509 35.9044 69.8285 35.9087 69.8097 35.9205C69.7909 35.9323 69.7771 35.9508 69.7712 35.9722C69.7657 35.9936 69.768 36.0164 69.7785 36.036C70.0975 36.685 71.1645 39.4845 71.4285 40.1665C71.346 40.4305 73.9145 51.051 73.1885 52.481C72.5395 53.7735 68.761 55.4015 67.397 55.869C67.1275 52.8069 66.6866 49.7626 66.077 46.75C66.264 45.166 66.022 35.75 65.9505 32.2685C65.9482 32.2281 65.9349 32.189 65.9116 32.156C65.8882 32.1228 65.8561 32.0971 65.8185 32.0815L63.349 31.042C63.338 29.735 63.2551 28.4295 63.1015 27.1315C69.267 28.1985 76.45 31.724 77.0495 31.7295C77.9185 31.7295 84.3755 26.7795 85.712 26.5815C86.306 26.488 88.858 28.7155 89.155 29.3315C86.548 32.9725 81.9665 37.7575 79.8435 39.413C79.1597 39.8703 78.37 40.1448 77.55 40.2105Z"></path><path fill="#000000" d="M55.3025 19.3105C55.2956 19.2744 55.2819 19.24 55.2617 19.2093C55.2415 19.1785 55.2154 19.152 55.1852 19.1313C55.1545 19.1107 55.1205 19.0962 55.0843 19.0887C55.0486 19.0812 55.0115 19.0809 54.9752 19.0878C54.939 19.0946 54.9047 19.1085 54.874 19.1287C54.8432 19.1489 54.8167 19.1748 54.796 19.2052C54.7754 19.2356 54.7607 19.2698 54.7534 19.3058C54.7461 19.3418 54.7456 19.3789 54.7525 19.415C54.8625 19.965 54.8845 20.0915 55.1265 20.0915C55.1723 20.0916 55.2172 20.0804 55.2576 20.0588C55.2979 20.0371 55.3323 20.0058 55.357 19.9675C55.3822 19.9293 55.3974 19.8854 55.4015 19.8398C55.4052 19.7942 55.3978 19.7484 55.3795 19.7065C55.363 19.6185 55.3135 19.36 55.3025 19.3105ZM56.9855 22.9515C57.343 23.056 57.684 22.8855 57.673 22.7975C57.662 22.7095 57.673 22.7535 57.189 22.572C56.8645 22.451 56.507 22.022 56.3805 22.088C56.254 22.154 56.4465 22.506 56.4905 22.572C56.6083 22.7505 56.7825 22.8842 56.9855 22.9515ZM67.045 17.7265C66.3245 20.746 65.7965 23.309 65.7085 23.8205C65.6498 24.043 65.6388 24.2754 65.6755 24.5025C65.967 25.124 69.7345 26.3505 70.213 26.1085C70.6915 25.8665 71.9345 23.067 73.381 20.1795C74.267 20.2078 75.1538 20.1433 76.0265 19.987C76.9455 19.8184 77.8397 19.5357 78.6885 19.1455C80.5475 18.2875 82.5825 14.6135 82.8575 12.7655C83.0637 10.7591 82.6389 8.73841 81.642 6.98501C77.0275 -1.0175 63.492 3.289 64.592 12.177C64.906 14.2107 65.7525 16.1253 67.045 17.7265ZM70.4 24.277C70.4 24.365 70.301 24.354 69.85 24.277C68.9274 24.1611 68.0341 23.8758 67.2155 23.4355C66.8305 23.2265 66.726 23.1825 66.7645 23.089C66.803 22.9955 66.8855 23.0285 67.4795 23.1935C67.5345 23.1935 69.2395 23.7435 69.729 23.914C70.3615 24.2 70.4 24.2 70.4 24.277ZM70.301 15.3285C70.8881 15.3589 71.4734 15.2378 72.0005 14.9765C72.49 15.2137 73.0198 15.3574 73.5625 15.4C72.6385 17.1215 70.763 20.6305 70.158 22.5005L67.826 21.857C68.376 20.504 69.5915 17.336 70.29 15.3285H70.301ZM70.1085 14.872C69.6978 14.81 69.3188 14.615 69.03 14.317C68.7408 14.0189 68.5575 13.6343 68.508 13.222C68.354 12.122 69.058 10.89 70.1195 11.1815C70.785 11.363 70.8675 11.891 70.752 12.5565C70.653 13.0405 70.2955 14.256 70.0975 14.85L70.1085 14.872ZM71.6045 13.552C71.6632 13.1921 71.7984 12.8489 72.0005 12.5455C72.0967 12.3801 72.2375 12.245 72.4066 12.1556C72.5757 12.0661 72.7664 12.0259 72.9575 12.0395C73.3645 12.1605 73.5405 12.9305 73.205 13.4145C72.8823 13.8424 72.4813 14.2046 72.0225 14.4815C71.8644 14.3889 71.7388 14.2502 71.6622 14.084C71.5857 13.9179 71.5614 13.7322 71.5935 13.552H71.6045ZM66.55 6.56151C69.014 3.597 73.6505 2.42 77 3.641C78.8196 4.26561 80.3499 5.5303 81.3065 7.19951C82.2548 8.86798 82.6604 10.7901 82.467 12.6995C82.214 14.41 80.267 17.963 78.5565 18.7495C76.9927 19.4629 75.2863 19.809 73.568 19.7615C73.381 19.7615 73.183 19.7615 73.1115 19.8935C72.787 20.5535 72.193 21.8295 71.61 23.0285C71.2071 22.8341 70.79 22.6722 70.3615 22.5445C70.9995 20.7185 73.0125 17.1325 73.9695 15.3945C74.7986 15.4655 75.6323 15.3216 76.3895 14.9765C76.5939 14.8688 76.7635 14.705 76.8785 14.5042C76.9931 14.3035 77.0486 14.0742 77.0376 13.8432C77.0266 13.6123 76.9496 13.3893 76.8167 13.2003C76.6833 13.0114 76.499 12.8643 76.285 12.7765C75.4325 12.3585 74.668 13.3595 74.2225 14.201C74.1015 14.421 73.964 14.6795 73.81 14.971C73.365 14.9418 72.9263 14.8511 72.5065 14.7015C72.9245 14.4075 73.2957 14.0515 73.6065 13.6455C73.7807 13.3825 73.8687 13.072 73.859 12.7568C73.849 12.4415 73.7417 12.1371 73.5515 11.8855C73.4021 11.712 73.1945 11.5989 72.9676 11.5675C72.7407 11.5361 72.5102 11.5886 72.3195 11.715C71.934 11.9517 71.6256 12.2945 71.4303 12.7023C71.2355 13.1101 71.1622 13.5656 71.2195 14.014C71.2791 14.2671 71.4157 14.4957 71.61 14.6685C71.2493 14.8179 70.862 14.8928 70.4715 14.8885C70.6915 14.2395 71.049 13.068 71.1425 12.5895C71.2012 12.3167 71.214 12.0361 71.181 11.759C71.1384 11.5212 71.0279 11.3007 70.8629 11.1241C70.6984 10.9474 70.4857 10.8223 70.2515 10.7635C68.915 10.384 67.9305 11.8635 68.123 13.244C68.1771 13.7387 68.3897 14.2027 68.7285 14.5673C69.0672 14.9319 69.5145 15.1776 70.004 15.268C69.3 17.248 68.2 20.4435 67.65 21.8075L66.44 21.494C67.2155 17.6 67.309 17.6935 67.199 17.644C65.9491 16.0507 65.1498 14.1514 64.8835 12.144C64.7538 11.1486 64.8354 10.1371 65.1223 9.17534C65.4092 8.21348 65.896 7.32289 66.55 6.56151ZM74.184 15.004C74.569 14.3055 75.339 12.7765 76.087 13.1505C76.2364 13.2108 76.367 13.3108 76.4637 13.4397C76.5609 13.5686 76.6205 13.7215 76.637 13.882C76.626 14.85 75.119 15.0205 74.162 15.004H74.184ZM95.238 17.4295C95.9007 17.0397 96.6836 16.9066 97.438 17.0555C98.2667 17.0703 99.0582 17.4016 99.6504 17.9815C100.243 18.5614 100.59 19.3458 100.622 20.174C100.124 19.8849 99.5413 19.7761 98.9725 19.866C97.592 19.987 95.788 20.735 96.03 22.066C96.228 23.166 97.68 23.0175 98.78 22.7205C99.88 22.4235 100.754 21.8845 100.98 20.823C102.316 21.7965 102.63 23.5015 102.685 25.168C102.685 25.1913 102.694 25.2137 102.711 25.2302C102.727 25.2467 102.75 25.256 102.773 25.256C102.796 25.256 102.819 25.2467 102.835 25.2302C102.852 25.2137 102.861 25.1913 102.861 25.168C102.899 23.3035 102.564 21.4775 101.04 20.416C101.056 19.9385 100.974 19.4628 100.801 19.0176C100.628 18.5725 100.365 18.1672 100.031 17.8262C99.6962 17.4853 99.2956 17.2159 98.8538 17.0342C98.412 16.8526 97.9376 16.7625 97.46 16.7695C96.6964 16.658 95.9182 16.8176 95.26 17.2205C95.0565 17.3195 95.15 17.468 95.238 17.4295ZM100.254 21.373C99.6325 22.187 97.8725 22.6105 97.0585 22.473C96.756 22.4235 96.5085 22.297 96.4425 21.9835C96.2445 20.8835 98.142 20.284 99.275 20.2455C99.7361 20.2101 100.196 20.3281 100.584 20.581C100.542 20.8686 100.429 21.141 100.254 21.373ZM92.719 11C93.3075 10.274 92.9115 9.00901 91.267 9.00351C90.629 9.00351 90.321 9.65251 90.365 10.274C90.464 11.7535 92.1305 11.7095 92.719 11ZM90.75 10.2465C90.75 9.88351 90.9205 9.41051 91.3 9.41601C92.1855 9.41601 92.5925 9.82851 92.5925 10.285C92.5705 11.3245 90.6785 11.8635 90.75 10.2465ZM90.5245 72.6C85.69 70.6695 83.446 80.014 79.497 88.044C79.4718 88.3813 79.4832 88.721 79.53 89.056C79.53 89.8975 79.6235 95.469 80.113 96.1015C80.245 96.3545 80.8005 96.1015 81.059 95.942C83.2544 94.5831 85.3233 93.0293 87.241 91.3C87.2575 91.2812 87.2694 91.2597 87.2772 91.2358C87.2845 91.212 87.2873 91.1873 87.285 91.1625C88.308 89.705 92.1415 82.115 93.071 78.309C93.72 75.614 93.0765 73.6065 90.5245 72.6ZM92.2515 79.585C89.6633 79.2532 87.1608 78.436 84.876 77.176C86.163 74.7395 87.7525 71.962 90.376 73.007C93.2965 74.1675 93.236 76.571 92.2515 79.5685V79.585ZM83.0995 93.885C82.9304 93.7434 82.7461 93.6215 82.5495 93.522C81.8061 93.1443 80.9476 93.0614 80.146 93.291C80.091 92.6365 79.7775 88.3795 79.7775 88.341C83.897 89.848 82.6265 89.1935 86.7075 91.223C86.2785 91.63 84.667 92.7575 83.0995 93.874V93.885ZM85.9375 77.968C86.4737 78.2609 87.0247 78.5272 87.5875 78.7655C86.3266 80.7455 85.2129 82.8158 84.2545 84.9585C83.3305 86.889 83.3635 86.878 82.423 88.9845C81.873 88.8085 81.323 88.6435 80.773 88.4785C81.367 87.296 85.591 78.65 85.9375 77.957V77.968ZM82.6375 89.0395C84.425 85.833 86.2455 81.8455 87.8075 78.837C88.3575 79.068 88.9075 79.255 89.4575 79.42C89.166 79.97 88.3135 81.433 88.088 81.8565C87.8625 82.28 85.602 86.735 85.4425 87.076C85.1895 87.626 84.4965 89.1605 84.282 89.65C83.721 89.4025 83.182 89.2155 82.6155 89.0285L82.6375 89.0395ZM84.48 89.7215C84.8155 89.111 86.196 86.548 86.3665 86.218C86.625 85.7065 89.507 79.816 89.6665 79.475C90.1725 79.618 90.706 79.739 91.047 79.805C90.0405 82.555 87.142 87.8515 86.097 90.464C85.1455 90.0185 84.931 89.9085 84.458 89.7105L84.48 89.7215ZM84.8155 77.3355L85.8 77.8855C83.8159 81.2643 82.0879 84.7866 80.63 88.4235L79.805 88.1705C83.0005 81.3615 83.149 80.4705 84.7935 77.3245L84.8155 77.3355ZM87.0815 90.9425L86.251 90.5465C87.1475 88.7865 89.9525 84.271 91.234 79.8435C91.542 79.8985 91.8445 79.948 92.136 79.9865C90.7225 83.7577 89.0257 87.4166 87.0595 90.9315L87.0815 90.9425ZM69.85 94.512C70.0691 94.3305 70.2258 94.0848 70.2978 93.8094C70.3697 93.5339 70.3537 93.2429 70.2515 92.9775C70.2047 92.5943 70.0292 92.2382 69.7533 91.9683C69.4774 91.6983 69.1176 91.5301 68.7335 91.4921C68.3494 91.4536 67.9635 91.547 67.6399 91.757C67.3159 91.9669 67.073 92.2813 66.9515 92.6475C66.2475 92.191 65.483 91.707 64.7515 91.245C65.3015 90.5135 66.9185 90.838 67.0835 91.4375C67.0872 91.4609 67.1 91.482 67.1188 91.4957C67.138 91.5095 67.1619 91.5154 67.1852 91.5118C67.2086 91.5081 67.2292 91.4953 67.2435 91.4765C67.2572 91.4572 67.2632 91.4334 67.2595 91.41C67.177 90.453 65.186 89.892 64.383 91.0195C63.6735 90.585 62.7935 90.057 62.0565 89.6555C62.689 89.1055 64.1025 89.4135 64.2565 89.9855C64.2638 90.0052 64.2776 90.0213 64.2959 90.0318C64.3138 90.0419 64.3353 90.0455 64.3555 90.0414C64.3761 90.0373 64.3945 90.0263 64.4077 90.0098C64.4206 89.9938 64.4275 89.9731 64.427 89.9525C64.3555 89.0615 62.513 88.462 61.677 89.441C61.3268 89.2448 60.9583 89.0826 60.577 88.957C60.5073 88.9281 60.4308 88.9199 60.3565 88.9336C60.2823 88.9474 60.2135 88.9822 60.159 89.034C58.7675 90.7665 54.076 95.2655 51.909 95.788C51.8545 95.7963 51.8031 95.8187 51.76 95.8531C51.717 95.8875 51.684 95.9324 51.6638 95.9837C51.6436 96.0351 51.6372 96.091 51.6455 96.1451C51.6542 96.1996 51.6766 96.2509 51.711 96.294C52.1867 96.7771 52.7317 97.1868 53.328 97.5095C52.778 98.0595 52.349 98.5545 52.03 98.912C51.865 99.088 51.777 102.454 51.92 103.197C51.9411 103.269 51.9883 103.332 52.052 103.373C52.745 103.846 61.6715 107.707 62.5845 107.19C63.195 106.843 70.4825 99.2585 70.598 99.0275C70.774 98.6645 70.7135 96.2445 70.7025 95.2765C70.6585 94.985 70.114 94.6715 69.85 94.512ZM52.25 101.778V100.551C54.5325 101.651 59.7575 103.895 61.7375 104.522C62.2435 104.687 62.2875 104.665 62.5515 104.522C64.064 103.554 69.4045 97.537 70.3835 96.6185V97.779C67.4135 100.755 62.37 105.969 62.2765 105.672C61.732 105.639 52.723 101.998 52.25 101.778ZM69.7125 92.6585C69.91 92.9917 70.0164 93.3712 70.0205 93.7585C70.0187 93.8818 69.9884 94.0028 69.932 94.1128C69.8757 94.2224 69.795 94.3177 69.696 94.391C69.234 94.083 68.3595 93.511 67.3255 92.84C67.892 91.7235 69.1515 91.707 69.6905 92.6585H69.7125ZM52.1125 96.1785C54.4555 95.4855 58.905 91.1955 60.401 89.3365C60.7608 89.4369 61.1082 89.579 61.435 89.76C60.885 90.783 61.4735 91.905 61.6825 91.7455C61.798 91.6575 61.589 91.6245 61.556 91.0855C61.5418 90.6918 61.6312 90.3013 61.8145 89.9525C62.5735 90.3485 63.4645 90.8655 64.218 91.3C63.756 92.3285 64.3115 93.346 64.504 93.1975C64.6965 93.049 64.416 93.082 64.383 92.543C64.3697 92.1896 64.4371 91.8376 64.581 91.5145C65.3565 91.971 66.1485 92.444 66.8745 92.8895C66.7627 93.1636 66.7182 93.4606 66.7448 93.7553C66.7718 94.05 66.869 94.3342 67.0285 94.5835C67.0358 94.5927 67.0445 94.6009 67.0551 94.6069C67.0652 94.6124 67.0766 94.6165 67.0881 94.6179C67.1 94.6193 67.1119 94.6188 67.1234 94.6156C67.1348 94.6124 67.1454 94.6073 67.155 94.6C67.1642 94.5927 67.1724 94.584 67.1779 94.5734C67.1839 94.5633 67.188 94.5519 67.1894 94.54C67.1907 94.5285 67.1903 94.5166 67.1871 94.5051C67.1839 94.4937 67.1788 94.4827 67.1715 94.4735C67.0725 94.2549 67.0239 94.017 67.0285 93.7773C67.0331 93.5376 67.0913 93.302 67.199 93.0875C68.4805 93.8685 69.5145 94.523 69.8335 94.7375C69.773 94.7925 64.0365 99.8965 62.084 101.415C60.8025 101.079 54.076 97.7405 52.1125 96.1785ZM52.3215 99.242C54.813 100.342 60.4725 102.894 61.776 103.142C62.0015 103.186 62.0895 103.202 62.5185 102.861C64.35 101.393 70.3065 95.161 70.3615 95.227C70.3642 95.2435 70.3642 95.26 70.3615 95.2765V96.3765C69.135 97.361 62.315 104.522 62.205 104.181C61.655 104.181 52.7175 100.535 52.261 100.331C52.25 100.1 52.2995 99.484 52.3215 99.242ZM62.337 106.821C61.787 107.135 53.4105 103.73 52.2885 103.037C52.2463 102.686 52.2262 102.334 52.228 101.981C54.637 103.169 61.644 106.128 62.2875 106.101C63.228 106.051 69.8775 98.5655 70.3505 98.043C70.356 98.324 70.328 98.6045 70.268 98.879C70.1745 99.0605 62.7 106.618 62.337 106.821ZM16.7693 75.8175C16.8078 76.406 16.8353 76.9175 16.8353 77.396C16.8353 77.4689 16.8643 77.539 16.9158 77.5903C16.9674 77.6421 17.0373 77.671 17.1103 77.671C17.1832 77.671 17.2532 77.6421 17.3047 77.5903C17.3563 77.539 17.3853 77.4689 17.3853 77.396C17.3853 76.8845 17.3578 76.3785 17.3193 75.779C17.3142 75.7061 17.2803 75.6383 17.2251 75.5902C17.1699 75.542 17.098 75.5182 17.025 75.5233C16.9521 75.5283 16.8842 75.5622 16.8362 75.6172C16.7882 75.6727 16.7642 75.7446 16.7693 75.8175ZM100.573 64.79C100.537 64.7923 100.502 64.8015 100.469 64.8171C100.437 64.8331 100.408 64.8551 100.385 64.8826C100.361 64.9096 100.343 64.9413 100.332 64.9752C100.321 65.0096 100.317 65.0458 100.32 65.0815C100.353 65.5875 100.386 66.132 100.386 66.66C100.386 66.7329 100.415 66.803 100.467 66.8543C100.518 66.9061 100.588 66.935 100.661 66.935C100.734 66.935 100.804 66.9061 100.855 66.8543C100.907 66.803 100.936 66.7329 100.936 66.66C100.936 66.11 100.903 65.56 100.864 65.043C100.862 65.0073 100.853 64.972 100.837 64.9399C100.821 64.9073 100.799 64.8785 100.772 64.8551C100.745 64.8313 100.713 64.8134 100.679 64.8024C100.645 64.7914 100.609 64.7868 100.573 64.79ZM15.3448 74.448C15.4177 74.448 15.4877 74.4191 15.5392 74.3673C15.5908 74.316 15.6198 74.2459 15.6198 74.173C15.6198 74.1001 15.5908 74.03 15.5392 73.9787C15.4877 73.9269 15.4177 73.898 15.3448 73.898C14.6793 73.898 14.1238 73.9475 13.5738 73.9365C13.5003 73.9365 13.4298 73.9654 13.3774 74.0167C13.3249 74.0681 13.2947 74.1382 13.2933 74.2115C13.2933 74.2844 13.3223 74.3545 13.3738 74.4058C13.4254 74.4576 13.4953 74.4865 13.5683 74.4865C14.1348 74.4975 14.7563 74.4755 15.3448 74.448ZM98.868 63.162C98.208 63.162 97.6525 63.2005 97.097 63.206C97.0241 63.206 96.954 63.2349 96.9027 63.2867C96.8509 63.338 96.822 63.4081 96.822 63.481C96.822 63.5539 96.8509 63.624 96.9027 63.6753C96.954 63.7271 97.0241 63.756 97.097 63.756C97.691 63.756 98.307 63.756 98.901 63.712C98.9739 63.7074 99.0422 63.6744 99.0907 63.6199C99.1389 63.5653 99.1636 63.4934 99.1595 63.4205C99.1549 63.3476 99.1219 63.2793 99.0674 63.2308C99.0124 63.1822 98.9409 63.1574 98.868 63.162ZM16.6208 71.049C16.6538 71.555 16.6868 72.0995 16.6868 72.6275C16.6882 72.6999 16.7176 72.7691 16.7689 72.8205C16.8201 72.8718 16.8893 72.9011 16.9618 72.9025C17.0347 72.9025 17.1047 72.8736 17.1562 72.8218C17.2078 72.7705 17.2368 72.7004 17.2368 72.6275C17.2368 72.0775 17.2038 71.5275 17.1708 71.0105C17.1657 70.9376 17.1318 70.8698 17.0766 70.8217C17.0214 70.7736 16.9495 70.7497 16.8765 70.7548C16.8036 70.7598 16.7357 70.7937 16.6877 70.8487C16.6397 70.9042 16.6157 70.9761 16.6208 71.049ZM100.787 61.8915C100.787 61.3415 100.754 60.7915 100.716 60.2745C100.711 60.2016 100.677 60.1338 100.622 60.0857C100.567 60.0376 100.495 60.0137 100.422 60.0188C100.349 60.0238 100.281 60.0577 100.233 60.1127C100.185 60.1682 100.161 60.2401 100.166 60.313C100.199 60.819 100.232 61.3635 100.232 61.8915C100.232 61.9644 100.261 62.0345 100.313 62.0858C100.364 62.1376 100.434 62.1665 100.507 62.1665C100.58 62.1665 100.651 62.1376 100.703 62.0863C100.756 62.035 100.786 61.9648 100.787 61.8915ZM20.6798 74.3765C20.7159 74.3751 20.7514 74.3664 20.7842 74.3513C20.817 74.3362 20.8466 74.3146 20.8711 74.2881C20.8956 74.2615 20.9147 74.2308 20.9271 74.1964C20.9396 74.1625 20.9453 74.1267 20.9438 74.0905C20.9382 74.0186 20.9057 73.9512 20.8526 73.9021C20.7996 73.8536 20.73 73.8265 20.6578 73.8265C19.9923 73.854 19.4368 73.876 18.8813 73.865C18.8083 73.865 18.7384 73.8939 18.6868 73.9457C18.6353 73.997 18.6063 74.0671 18.6063 74.14C18.6063 74.2129 18.6353 74.283 18.6868 74.3343C18.7384 74.3861 18.8083 74.415 18.8813 74.415C19.4698 74.426 20.0858 74.404 20.6798 74.3765ZM104.203 63.0905C103.653 63.118 103.042 63.1345 102.432 63.1345C102.396 63.1331 102.36 63.1391 102.325 63.1519C102.291 63.1648 102.261 63.1845 102.234 63.2092C102.208 63.2344 102.187 63.2647 102.173 63.2981C102.159 63.3316 102.151 63.3678 102.151 63.404C102.151 63.4773 102.18 63.5479 102.232 63.6006C102.283 63.6529 102.353 63.6831 102.426 63.6845C103.053 63.6845 103.559 63.6845 104.225 63.6405C104.261 63.6391 104.296 63.6304 104.329 63.6153C104.362 63.6002 104.392 63.5786 104.416 63.5521C104.441 63.5255 104.46 63.4948 104.472 63.4604C104.485 63.4265 104.49 63.3907 104.489 63.3545C104.482 63.283 104.449 63.2166 104.396 63.168C104.344 63.1189 104.275 63.0914 104.203 63.0905ZM8.04076 58.08C8.11226 58.135 23.6223 55.836 24.2878 55.429C24.3247 55.402 24.3541 55.3662 24.3733 55.325C24.3925 55.2837 24.401 55.2379 24.3978 55.1925C24.3978 54.483 23.4683 47.8225 23.0228 46.1615C22.9678 45.958 22.9128 45.7545 22.7863 45.683C21.9448 45.177 7.11677 47.971 6.23127 48.543C6.20729 48.5572 6.18653 48.5765 6.17044 48.5989C6.15431 48.6218 6.14322 48.6475 6.13776 48.675C5.95076 49.3405 7.56226 57.75 8.04076 58.08ZM6.47327 48.807C7.52927 48.3285 20.9878 45.8645 22.5278 46.057C22.9018 47.0195 23.9028 54.0705 23.9688 55.1045C23.2043 55.33 8.24977 57.8985 8.19477 57.9095C8.13977 57.9205 8.13427 57.9865 8.01877 57.64C7.53477 56.188 6.44577 50.05 6.47327 48.807Z"></path><path fill="#000000" d="M25.4978 55.9185C25.5277 55.863 25.5411 55.7998 25.5363 55.737C25.5363 54.8625 24.2823 45.155 23.8368 44.3795C23.8019 44.3223 23.7525 44.2754 23.6935 44.2435C23.6346 44.2116 23.5683 44.1959 23.5013 44.198C21.6588 43.9725 6.1158 47.0085 5.0928 47.718C4.9498 47.817 4.9718 48.0645 4.9883 48.3285C5.0763 49.775 6.6383 59.29 7.1883 59.235C7.2488 59.235 7.2268 59.191 7.0838 59.4825C6.2258 61.248 4.5978 66.902 4.6308 68.0405C4.6308 68.519 4.7408 69.1405 5.2138 69.1075C8.6073 68.6895 25.2448 66.0495 30.0298 65.065C30.2168 65.0265 30.3378 64.856 30.3323 64.5755C30.2758 64.108 30.1342 63.6551 29.9143 63.239C29.2433 61.9795 26.4603 56.991 25.4978 55.9185ZM7.2213 59.0645C6.7923 58.5145 5.2138 49.038 5.3348 47.9875C6.5448 47.3605 21.8788 44.396 23.4848 44.638C23.9248 45.848 25.0633 54.5875 25.1348 55.638C23.1878 56.309 9.7073 58.487 7.2213 59.0645ZM7.4633 59.2295C7.9253 59.114 23.6608 56.4795 25.1018 56.1C25.8883 56.8315 29.4413 63.151 29.6723 63.69C26.5153 64.24 7.7878 67.3695 5.0323 67.7875C5.0708 66.121 6.7813 60.2965 7.4633 59.2295Z"></path><path fill="#000000" d="M9.5316 64.933C10.0101 64.8615 20.1631 63.6405 23.8316 62.645C23.8542 62.6391 23.8736 62.6244 23.8855 62.6047C23.8973 62.5845 23.9007 62.5602 23.8949 62.5378C23.889 62.5153 23.8745 62.4956 23.8543 62.4841C23.8342 62.4722 23.8102 62.4686 23.7876 62.4745C23.0671 62.623 14.2781 63.7945 9.5206 64.7625C9.50745 64.7602 9.49393 64.7607 9.4811 64.7643C9.46826 64.768 9.45639 64.7744 9.44645 64.7836C9.43645 64.7923 9.42866 64.8033 9.42358 64.8157C9.41853 64.8281 9.41633 64.8413 9.4172 64.8546C9.41808 64.8679 9.42193 64.8812 9.42857 64.8927C9.43517 64.9041 9.44434 64.9142 9.45534 64.9215C9.46638 64.9293 9.47899 64.9344 9.49219 64.9362C9.50539 64.9381 9.51886 64.9371 9.5316 64.933ZM16.9511 26.664C16.7456 27.128 16.5729 27.6059 16.4341 28.094C16.4259 28.1723 16.4475 28.2509 16.4946 28.314C17.0501 29.15 22.7426 35.5685 24.2276 36.4705C24.4311 36.597 24.6731 36.685 24.8216 36.5035C25.9003 35.1612 27.3082 34.121 28.9081 33.484C30.2103 33.0233 31.5756 32.7654 32.9561 32.7195C34.0561 32.6205 34.2486 32.5105 34.6721 31.79C35.1717 30.8418 35.8345 29.9891 36.6301 29.271C37.6446 28.384 38.7706 27.6333 39.9796 27.038C40.034 27.0072 40.0766 26.959 40.1005 26.9012C40.1244 26.8434 40.1283 26.7793 40.1116 26.719C39.9257 26.2459 39.6798 25.7986 39.3801 25.388C39.5781 25.322 39.7981 25.2615 39.7981 25.0635C39.7981 24.5135 35.0021 17.5725 33.6711 16.2635C33.5336 16.126 33.3356 15.9445 33.1541 15.9555C30.4041 16.1095 27.7256 18.7055 26.1746 20.9715C24.3981 20.9055 23.2486 20.746 21.2246 21.5985C19.7957 22.205 18.5075 23.1001 17.4406 24.2275C17.2756 24.398 16.1536 25.586 16.1371 25.6795C16.1206 25.773 16.1536 25.773 16.9511 26.664ZM38.9511 26.51C36.6576 26.9005 35.1946 28.809 34.1166 30.8825C33.6381 31.8065 33.6821 31.8505 33.1761 31.8395C32.2913 31.7894 31.4037 31.8226 30.5251 31.9385C29.8806 32.0348 29.247 32.1933 28.6331 32.4115C27.2361 32.9065 25.6356 34.4905 24.7831 35.6675C24.765 35.6917 24.7419 35.7118 24.7155 35.7265C24.6891 35.7412 24.6599 35.7501 24.6297 35.7527C24.5996 35.7553 24.5693 35.7515 24.5407 35.7416C24.5122 35.7316 24.4861 35.7158 24.4641 35.695C22.6766 33.8525 19.5141 30.6185 17.9246 28.7595C17.8476 28.677 17.9796 28.556 18.0566 28.644C19.0851 29.744 21.7416 32.3785 24.5906 35.244C25.5531 34.0175 27.0381 32.5325 28.5066 32.0155C29.3074 31.7299 30.1407 31.5451 30.9871 31.4655C31.7798 31.4053 32.5759 31.4053 33.3686 31.4655C33.6931 31.0915 35.2991 26.8455 38.9401 26.3725C38.9507 26.3803 38.9595 26.3904 38.9657 26.4021C38.972 26.4138 38.9754 26.4267 38.9759 26.4399C38.9765 26.4531 38.974 26.4663 38.9688 26.4784C38.9635 26.4906 38.9556 26.5013 38.9456 26.51H38.9511ZM33.1486 16.401C34.2486 17.171 38.7256 23.7985 39.3086 24.959C38.297 25.2795 37.3204 25.7015 36.3936 26.2185C35.516 26.6585 34.7476 27.2886 34.1444 28.0631C33.5411 28.8376 33.1183 29.7369 32.9066 30.6955C30.9321 27.4835 28.1766 23.947 26.3451 21.3455C26.4551 21.274 29.5461 16.6155 33.1486 16.401ZM21.3456 21.901C23.3531 21.0925 24.4641 21.2795 26.1251 21.351C27.7751 24.167 30.7396 28.138 32.6921 30.7395C30.89 30.3131 28.9937 30.5739 27.3736 31.471C26.4001 32.021 25.2121 33.341 24.4806 34.1605C23.4246 33.3135 17.3306 26.8235 16.3516 25.7235C17.8586 24.0185 19.2501 22.737 21.3456 21.879V21.901ZM11.2806 35.8875C11.1447 35.7921 10.984 35.7382 10.818 35.7324C10.652 35.7265 10.4879 35.7689 10.3456 35.8545C10.242 35.9007 10.1484 35.9669 10.0704 36.0493C9.99227 36.1317 9.93122 36.2286 9.89062 36.3346C9.85001 36.4405 9.83067 36.5535 9.83374 36.6669C9.83676 36.7804 9.86211 36.8921 9.90835 36.9958C9.95455 37.0994 10.0208 37.1929 10.1031 37.271C10.1855 37.349 10.2824 37.4101 10.3884 37.4507C10.4944 37.4914 10.6073 37.5107 10.7208 37.5076C10.8342 37.5046 10.946 37.4792 11.0496 37.433C11.2152 37.3968 11.3659 37.3111 11.4816 37.1873C11.5974 37.0635 11.6728 36.9075 11.6978 36.7399C11.7229 36.5723 11.6964 36.401 11.6219 36.2488C11.5474 36.0965 11.4284 35.9706 11.2806 35.8875ZM10.9176 36.9875C10.5326 37.1085 10.3016 36.9875 10.2081 36.8005C10.0321 36.41 10.2521 35.8105 10.8241 35.9865C11.2256 36.135 11.5501 36.8115 10.9176 37.015V36.9875ZM39.2481 10.7195C39.4076 11.044 40.1501 10.923 40.4746 10.8185C40.6451 10.7635 40.7551 10.703 40.7716 10.538C40.8211 10.1255 40.8761 6.55051 40.6891 6.20401C40.6698 6.16766 40.6402 6.13787 40.6039 6.1183C40.5677 6.09873 40.5266 6.09025 40.4856 6.09401C39.8988 6.09236 39.3149 6.17766 38.7531 6.34701C38.5276 6.48451 39.0501 10.3565 39.2481 10.7195ZM38.8686 6.47901C39.3767 6.40632 39.8905 6.38239 40.4031 6.40751C40.4361 6.81451 40.3481 10.34 40.3426 10.395C40.1102 10.4783 39.8621 10.5084 39.6166 10.483C39.5781 10.3565 39.5121 10.0155 39.4296 9.58651C39.1872 8.56145 39 7.5241 38.8686 6.47901ZM10.7471 31.2455C10.7999 31.2726 10.8583 31.2866 10.9176 31.2866C10.9769 31.2866 11.0353 31.2726 11.0881 31.2455C11.3006 31.1144 11.4691 30.9229 11.5721 30.6955C11.5861 30.6591 11.5904 30.6197 11.5846 30.5812C11.5788 30.5426 11.5632 30.5062 11.5391 30.4755C11.2751 30.162 8.3931 26.8235 8.0411 27.0325C7.6089 27.3123 7.19887 27.6249 6.8146 27.9675C6.79911 27.9814 6.78669 27.9983 6.77817 28.0172C6.76964 28.0362 6.7652 28.0567 6.7651 28.0775C6.7541 28.3635 9.9551 30.9265 10.7471 31.2455ZM8.1071 27.1755C8.5086 27.467 9.8616 29.139 11.1156 30.6185C11.0617 30.7034 10.9949 30.7795 10.9176 30.844C9.59916 30.0002 8.34035 29.0666 7.1501 28.05C7.44848 27.7367 7.76826 27.4445 8.1071 27.1755ZM16.7476 15.0425C16.8686 12.9085 18.1116 11.9185 19.4096 11.6655C19.0411 13.0185 19.1016 14.7785 20.4381 15.004C21.0761 15.1085 21.3896 14.7785 21.8516 14.3935C23.8261 12.7435 22.2311 11.0935 20.0036 11.209C20.8341 8.93201 22.7536 7.07851 25.3001 7.01801C25.3234 7.01801 25.3458 7.00875 25.3623 6.99225C25.3788 6.97571 25.3881 6.95334 25.3881 6.93001C25.3881 6.90668 25.3788 6.88427 25.3623 6.86777C25.3458 6.85127 25.3234 6.84201 25.3001 6.84201C22.5501 6.78701 20.3886 8.76701 19.5361 11.242C18.0676 11.495 16.6101 12.595 16.5716 15.0095C16.5694 15.0211 16.5695 15.0329 16.572 15.0444C16.5744 15.0559 16.5791 15.0668 16.5857 15.0766C16.5924 15.0863 16.6008 15.0946 16.6107 15.101C16.6205 15.1074 16.6316 15.1119 16.6431 15.114C16.6547 15.1162 16.6665 15.116 16.678 15.1136C16.6895 15.1112 16.7004 15.1065 16.7102 15.0999C16.7199 15.0932 16.7282 15.0848 16.7346 15.0749C16.741 15.0651 16.7454 15.0541 16.7476 15.0425ZM19.8771 11.5995C20.6966 11.5445 21.9176 11.7975 22.2531 12.54C22.4456 12.9635 22.2531 13.486 21.5711 14.058C21.3859 14.2435 21.1747 14.401 20.9441 14.5255C20.1191 14.8775 19.2061 13.86 19.8771 11.5995ZM21.4501 89.386C20.9187 89.2435 20.3643 89.2091 19.8193 89.2843C19.2743 89.3594 18.7499 89.5428 18.2769 89.8237C17.8039 90.1042 17.3918 90.4768 17.065 90.9196C16.7381 91.3619 16.503 91.8651 16.3736 92.4C16.1293 93.511 16.3362 94.6733 16.9489 95.6313C17.5616 96.5896 18.5298 97.2652 19.6406 97.5095C20.7514 97.7538 21.9138 97.5471 22.8719 96.9343C23.8302 96.3215 24.5058 95.3535 24.7501 94.2425C24.8545 93.7067 24.8518 93.1558 24.7421 92.6209C24.6325 92.0861 24.4181 91.5787 24.1114 91.1272C23.8046 90.6758 23.4115 90.2894 22.9548 89.9906C22.498 89.6917 21.9866 89.4864 21.4501 89.386ZM23.1496 93.8685C22.9289 94.7485 22.4006 95.5208 21.6602 96.0451C20.9198 96.5699 20.0161 96.8124 19.1126 96.7285C18.2832 96.4045 17.5946 95.7981 17.1681 95.0166C16.7416 94.2347 16.6043 93.3277 16.7806 92.455C16.9864 91.5535 17.5098 90.756 18.2551 90.2087C19.0004 89.6615 19.9178 89.4007 20.8396 89.474C21.6772 89.8201 22.3659 90.4503 22.7844 91.2542C23.2029 92.0581 23.3245 92.9839 23.1276 93.8685H23.1496Z"></path><path fill="#000000" d="M28.776 90.9535C28.2972 90.7885 27.784 90.7486 27.2855 90.838C27.0788 90.3641 26.8246 89.9126 26.5265 89.4905C26.884 89.166 27.863 88.264 27.6265 87.8405C26.7848 86.8335 25.7855 85.9701 24.6674 85.283C24.2006 85.0213 23.6866 84.8549 23.155 84.7935C22.803 84.843 21.9669 86.2125 21.7799 86.5205C21.6589 86.5205 21.23 86.383 21.197 86.3665C21.197 85.9705 21.0815 84.5405 20.724 84.3755C20.3242 84.2284 19.9091 84.1266 19.4865 84.073C19.096 84.0125 15.5815 84.656 15.323 85.129C15.1525 85.448 15.5485 86.6525 15.664 86.988C15.3674 87.1512 15.0825 87.335 14.8115 87.538C14.2615 87.9285 14.41 87.912 14.311 87.868C14.1913 87.8107 14.0631 87.7736 13.9315 87.758C13.4921 87.5004 12.977 87.4033 12.474 87.483C11.968 87.648 10.7745 90.365 10.582 91.0635C10.519 91.2395 10.502 91.4288 10.5325 91.6135C10.6645 91.9765 11.5445 92.268 11.913 92.3835C11.8112 93.0912 11.8112 93.8098 11.913 94.5175C11.429 94.6495 10.4224 94.9465 10.4774 95.4415C10.5324 95.9365 11.8194 99.2035 12.3529 99.462C12.6452 99.6256 12.9684 99.726 13.3018 99.7572C13.6352 99.7883 13.9714 99.7498 14.289 99.6435C14.4678 99.5541 14.6406 99.4533 14.806 99.341C15.026 99.506 15.257 99.6545 15.4935 99.7975C15.323 100.221 14.9435 101.167 15.0645 101.596C15.125 101.822 15.3065 101.893 15.5595 101.987C16.258 102.24 20.02 103.142 20.592 103.043C20.8065 103.01 20.922 102.784 20.988 102.57C21.1102 102.081 21.1821 101.582 21.2024 101.079C21.4849 101.051 21.7658 101.009 22.044 100.953C22.2139 101.251 22.4312 101.521 22.6875 101.75C22.968 101.948 23.2045 101.849 23.5235 101.646C23.6775 101.844 23.9085 102.119 24.156 102.146C24.7775 102.218 27.346 99.7975 27.61 99.3025C27.83 98.89 27.027 98.153 26.6695 97.8285C27.0562 97.2464 27.3598 96.6135 27.5715 95.9475C27.9682 96.0071 28.3697 96.0296 28.7705 96.0135C28.952 96.0135 29.161 95.9475 29.238 95.777C29.5735 95.0125 29.4745 92.114 29.238 91.377C29.205 91.1625 28.9575 91.0195 28.776 90.9535ZM28.908 91.4595C29.095 92.1745 29.1554 94.875 28.8804 95.5735C28.4049 95.6203 27.9251 95.5983 27.4559 95.5075C27.4059 95.4988 27.3544 95.5093 27.3117 95.5368C27.2689 95.5643 27.238 95.607 27.225 95.656C27.006 96.3994 26.6659 97.102 26.2184 97.735C26.1866 97.7772 26.1722 97.8294 26.1784 97.8821C26.1845 97.9344 26.2108 97.9821 26.2515 98.0155C26.6374 98.3212 26.9652 98.6938 27.2195 99.1155C26.9445 99.5665 24.794 101.536 24.2 101.701C24.112 101.701 23.87 101.371 23.8095 101.283C23.6063 100.977 23.4227 100.66 23.2595 100.331C23.2357 100.283 23.1948 100.246 23.145 100.227C23.0951 100.207 23.0398 100.207 22.9899 100.227C21.3949 100.826 20.79 100.474 20.79 100.87C20.7907 101.463 20.6941 102.052 20.5039 102.614C19.2114 102.473 17.9387 102.189 16.709 101.767C16.7684 101.179 16.9322 100.607 17.193 100.078C17.358 99.7095 16.698 99.814 15.466 98.56C15.4263 98.5233 15.3743 98.5027 15.3203 98.5027C15.2662 98.5027 15.2142 98.5233 15.1745 98.56C14.6245 99.011 13.9095 99.451 13.7665 99.3795C13.486 99.242 12.1935 96.3105 12.1165 95.7165C12.5077 95.4438 12.9518 95.2563 13.42 95.1665C13.4699 95.1523 13.513 95.1207 13.5414 95.0771C13.5696 95.0336 13.5813 94.9813 13.574 94.93C13.4392 94.1513 13.4392 93.3547 13.574 92.576C13.5824 92.5279 13.5723 92.4788 13.5458 92.4381C13.5192 92.3973 13.4782 92.3679 13.431 92.356C13.0163 92.2474 12.6172 92.0865 12.243 91.8775C12.122 91.7895 12.133 91.795 12.144 91.7015C12.5 90.4177 13.0709 89.2031 13.8325 88.11C14.1295 88.0275 14.9325 88.616 15.2075 88.825C15.2362 88.853 15.2747 88.8685 15.3147 88.8685C15.3548 88.8685 15.3933 88.853 15.422 88.825C15.6747 88.5628 15.9468 88.3204 16.236 88.099C17.072 87.4665 17.2975 87.549 17.226 87.329C16.9731 86.7772 16.8311 86.1809 16.808 85.5745C16.8932 85.5035 16.99 85.448 17.094 85.4095C17.6075 85.2065 18.135 85.041 18.6725 84.9145C19.324 84.733 19.9936 84.6239 20.669 84.59C20.7845 84.6395 20.889 85.14 20.9165 85.294C21.12 86.394 20.9825 86.6195 21.142 86.636C22.7095 86.79 23.0285 87.2245 23.1385 87.032C23.4435 86.4985 23.799 85.9957 24.2 85.5305C24.3155 85.415 24.31 85.36 24.6565 85.558C25.6917 86.2345 26.6188 87.0632 27.4065 88.0165C27.489 88.1595 26.774 88.9185 26.2515 89.364C26.07 89.5235 26.3285 89.595 26.8015 90.497C27.2745 91.399 27.1644 91.652 27.4174 91.597C27.9052 91.4801 28.4071 91.4338 28.908 91.4595ZM105.242 45.5015C104.089 45.0306 102.881 44.7107 101.646 44.55C100.744 44.407 99.682 44.264 98.7855 44.1485C99.649 42.9275 102.206 39.8365 102.635 39.083C102.756 38.8795 102.526 38.5935 102.355 38.423C101.398 37.4 99.55 37.015 98.131 36.795C97.317 36.663 93.918 36.245 93.3405 36.52C92.6475 36.85 87.5215 44.55 87.3675 45.7215C87.3675 45.9195 87.4335 45.9965 87.626 46.068C88.4345 46.365 92.081 46.827 92.895 47.0195C91.795 48.9445 86.9055 55.451 86.427 56.3695C86.3115 56.6005 86.383 56.738 86.5205 56.782C87.0155 56.9786 87.5247 57.1368 88.044 57.255C88.242 57.3155 88.6765 57.046 89.309 56.661C92.147 54.956 104.324 46.915 105.259 45.8755C105.285 45.8512 105.305 45.8215 105.319 45.7885C105.332 45.7556 105.338 45.7202 105.336 45.6847C105.335 45.6493 105.325 45.6145 105.309 45.5829C105.293 45.5513 105.27 45.5236 105.242 45.5015ZM93.423 52.1015C88.748 55.187 87.1695 56.089 87.1145 56.1275C87.868 54.978 92.5485 48.565 93.3515 47.0305C93.3652 47.0007 93.3726 46.9686 93.3726 46.9356C93.3726 46.9031 93.3648 46.8706 93.3506 46.8412C93.3364 46.8114 93.3158 46.7858 93.2901 46.7651C93.2649 46.7445 93.2351 46.7298 93.203 46.7225C92.653 46.5245 88.649 46.0955 87.703 45.76C87.824 44.737 92.818 37.004 93.423 36.696C94.028 36.388 99.8965 37.0865 100.997 37.873C100.419 39.0005 97.229 42.9495 96.712 43.868C96.6075 44.055 96.5745 44.2365 96.778 44.286C96.9815 44.3355 102.151 44.9405 103.279 45.309C101.904 46.4585 94.963 51.0675 93.423 52.0795V52.1015ZM58.1405 18.4745C58.1405 18.524 58.1735 18.5845 58.256 18.9035C58.2775 18.9727 58.3252 19.0308 58.3889 19.0657C58.4522 19.1005 58.5269 19.1094 58.597 19.0905C58.6671 19.0701 58.7262 19.0227 58.7611 18.9587C58.7964 18.8948 58.8046 18.8195 58.784 18.7495C58.729 18.535 58.6795 18.3535 58.6465 18.2655C58.6144 18.2051 58.5612 18.1588 58.4966 18.1357C58.4325 18.1125 58.3619 18.1141 58.2986 18.1402C58.2354 18.1663 58.184 18.215 58.1552 18.2768C58.1258 18.3386 58.1203 18.4091 58.1405 18.4745Z"></path></svg>