<svg width="800" height="300" viewBox="0 0 800 300" fill="none" xmlns="http://www.w3.org/2000/svg">
<path d="M632.988 130.725C654.094 130.725 671.204 113.805 671.204 92.9321C671.204 72.0596 654.094 55.1392 632.988 55.1392C611.882 55.1392 594.771 72.0596 594.771 92.9321C594.771 113.805 611.882 130.725 632.988 130.725Z" fill="#FF6584"/>
<path d="M618.47 244.03H617.062V298.999H618.47V244.03Z" fill="#3F3D56"/>
<path d="M631.456 251.035C631.546 270.256 617.871 285.901 617.871 285.901C617.871 285.901 604.051 270.382 603.961 251.16C603.872 231.939 617.546 216.295 617.546 216.295C617.546 216.295 631.366 231.814 631.456 251.035Z" fill="#1A5AFF"/>
<path opacity="0.1" d="M631.456 251.035C631.546 270.256 617.871 285.901 617.871 285.901C617.871 285.901 604.051 270.382 603.961 251.16C603.872 231.939 617.546 216.295 617.546 216.295C617.546 216.295 631.366 231.814 631.456 251.035Z" fill="black"/>
<path opacity="0.4" d="M352.521 134.741C364.664 134.741 374.508 125.007 374.508 112.999C374.508 100.991 364.664 91.2563 352.521 91.2563C340.379 91.2563 330.535 100.991 330.535 112.999C330.535 125.007 340.379 134.741 352.521 134.741Z" fill="#1A5AFF"/>
<path opacity="0.4" d="M311.831 138.635C320.349 138.635 327.255 131.807 327.255 123.383C327.255 114.96 320.349 108.131 311.831 108.131C303.313 108.131 296.408 114.96 296.408 123.383C296.408 131.807 303.313 138.635 311.831 138.635Z" fill="#1A5AFF"/>
<path opacity="0.4" d="M146.484 182.472C155.002 182.472 161.907 175.643 161.907 167.219C161.907 158.796 155.002 151.967 146.484 151.967C137.966 151.967 131.061 158.796 131.061 167.219C131.061 175.643 137.966 182.472 146.484 182.472Z" fill="#1A5AFF"/>
<path opacity="0.4" d="M602.507 132.953C614.649 132.953 624.493 123.218 624.493 111.21C624.493 99.2022 614.649 89.4678 602.507 89.4678C590.364 89.4678 580.521 99.2022 580.521 111.21C580.521 123.218 590.364 132.953 602.507 132.953Z" fill="#1A5AFF"/>
<path d="M39.8453 292.887C41.0372 297.244 45.1196 299.943 45.1196 299.943C45.1196 299.943 47.2696 295.577 46.0777 291.22C44.8859 286.863 40.8034 284.164 40.8034 284.164C40.8034 284.164 38.6534 288.53 39.8453 292.887Z" fill="#3F3D56"/>
<path d="M41.5974 291.95C44.8679 295.099 45.2674 299.939 45.2674 299.939C45.2674 299.939 40.3644 299.674 37.0938 296.525C33.8233 293.377 33.4238 288.537 33.4238 288.537C33.4238 288.537 38.3269 288.802 41.5974 291.95Z" fill="#1A5AFF"/>
<path d="M470.453 292.887C471.645 297.244 475.727 299.943 475.727 299.943C475.727 299.943 477.877 295.577 476.685 291.22C475.493 286.863 471.411 284.164 471.411 284.164C471.411 284.164 469.261 288.53 470.453 292.887Z" fill="#3F3D56"/>
<path d="M472.204 291.95C475.474 295.099 475.874 299.939 475.874 299.939C475.874 299.939 470.971 299.674 467.7 296.525C464.43 293.377 464.03 288.537 464.03 288.537C464.03 288.537 468.933 288.802 472.204 291.95Z" fill="#1A5AFF"/>
<path d="M47.9421 260.135L45.0312 255.338L72.2003 232.308H142.064V239.025L116.836 265.893L87.7254 271.65L47.9421 260.135Z" fill="#3F3D56"/>
<path d="M154.09 245.822V230.809H144.943V235.543L142.064 232.308L118.776 255.337L114.894 259.176L110.043 278.367L118.776 299.477H163.411V256.297L154.09 245.822Z" fill="#CCCCCC"/>
<path d="M118.776 255.338H45.0312V299.478H118.776V255.338Z" fill="#F2F2F2"/>
<path d="M108.587 269.251H93.0615V282.685H108.587V269.251Z" fill="#3F3D56"/>
<path d="M86.7545 268.771H73.1699V299.478H86.7545V268.771Z" fill="#CCCCCC"/>
<path d="M57.6449 273.569V268.771H51.8232V273.569H57.1594H57.6449Z" fill="#3F3D56"/>
<path d="M57.1594 277.407H51.8232V282.206H57.6449V277.407H57.1594Z" fill="#3F3D56"/>
<path d="M67.3483 268.771H61.5264V273.569H67.3483V268.771Z" fill="#3F3D56"/>
<path d="M67.3483 277.407H61.5264V282.205H67.3483V277.407Z" fill="#3F3D56"/>
<path d="M139.638 274.05V269.251H133.815V274.05H139.152H139.638Z" fill="#3F3D56"/>
<path d="M139.152 277.887H133.815V282.685H139.638V277.887H139.152Z" fill="#3F3D56"/>
<path d="M149.341 269.251H143.519V274.049H149.341V269.251Z" fill="#3F3D56"/>
<path d="M149.341 277.887H143.519V282.685H149.341V277.887Z" fill="#3F3D56"/>
<path d="M328.68 260.135L325.77 255.338L352.939 232.308H422.802V239.025L397.574 265.893L368.464 271.65L328.68 260.135Z" fill="#3F3D56"/>
<path d="M434.828 245.822V230.809H425.682V235.543L422.802 232.308L399.514 255.337L395.633 259.176L390.781 278.367L399.514 299.477H444.149V256.297L434.828 245.822Z" fill="#CCCCCC"/>
<path d="M399.514 255.338H325.77V299.478H399.514V255.338Z" fill="#F2F2F2"/>
<path d="M389.326 269.251H373.801V282.685H389.326V269.251Z" fill="#3F3D56"/>
<path d="M367.494 268.771H353.909V299.478H367.494V268.771Z" fill="#CCCCCC"/>
<path d="M338.384 273.569V268.771H332.562V273.569H337.899H338.384Z" fill="#3F3D56"/>
<path d="M337.899 277.407H332.562V282.206H338.384V277.407H337.899Z" fill="#3F3D56"/>
<path d="M348.088 268.771H342.266V273.569H348.088V268.771Z" fill="#3F3D56"/>
<path d="M348.088 277.407H342.266V282.205H348.088V277.407Z" fill="#3F3D56"/>
<path d="M420.376 274.05V269.251H414.554V274.05H419.891H420.376Z" fill="#3F3D56"/>
<path d="M419.891 277.887H414.554V282.685H420.376V277.887H419.891Z" fill="#3F3D56"/>
<path d="M430.08 269.251H424.258V274.049H430.08V269.251Z" fill="#3F3D56"/>
<path d="M430.08 277.887H424.258V282.685H430.08V277.887Z" fill="#3F3D56"/>
<path d="M197.372 179.531L192.521 175.693L219.69 151.703H288.582V172.814L243.948 202.561L197.372 179.531Z" fill="#3F3D56"/>
<path d="M301.143 165.16V152.183H291.996V155.361L288.582 151.703L266.265 175.693L257.532 181.45L243.991 279.283L264.412 299.478H311.87V176.652L301.143 165.16Z" fill="#CCCCCC"/>
<path d="M266.265 175.693H192.521V299.478H266.265V175.693Z" fill="#F2F2F2"/>
<path d="M234.729 269.251H221.145V299.478H234.729V269.251Z" fill="#CCCCCC"/>
<path d="M206.59 277.888V273.09H200.769V277.888H206.105H206.59Z" fill="#3F3D56"/>
<path d="M206.105 281.726H200.769V286.524H206.59V281.726H206.105Z" fill="#3F3D56"/>
<path d="M216.294 273.089H210.472V277.887H216.294V273.089Z" fill="#3F3D56"/>
<path d="M216.294 281.726H210.472V286.523H216.294V281.726Z" fill="#3F3D56"/>
<path d="M246.373 277.888V273.09H240.552V277.888H245.889H246.373Z" fill="#3F3D56"/>
<path d="M245.889 281.726H240.552V286.524H246.373V281.726H245.889Z" fill="#3F3D56"/>
<path d="M256.077 273.089H250.255V277.887H256.077V273.089Z" fill="#3F3D56"/>
<path d="M256.077 281.726H250.255V286.523H256.077V281.726Z" fill="#3F3D56"/>
<path d="M287.126 181.93V177.133H281.305V181.93H286.642H287.126Z" fill="#3F3D56"/>
<path d="M286.642 185.769H281.305V190.566H287.126V185.769H286.642Z" fill="#3F3D56"/>
<path d="M296.831 177.133H291.009V181.93H296.831V177.133Z" fill="#3F3D56"/>
<path d="M296.831 185.769H291.009V190.567H296.831V185.769Z" fill="#3F3D56"/>
<path d="M287.126 208.799V204H281.305V208.799H286.642H287.126Z" fill="#3F3D56"/>
<path d="M286.642 212.637H281.305V217.434H287.126V212.637H286.642Z" fill="#3F3D56"/>
<path d="M296.831 204H291.009V208.798H296.831V204Z" fill="#3F3D56"/>
<path d="M296.831 212.637H291.009V217.435H296.831V212.637Z" fill="#3F3D56"/>
<path d="M287.126 235.667V230.868H281.305V235.667H286.642H287.126Z" fill="#3F3D56"/>
<path d="M286.642 239.505H281.305V244.302H287.126V239.505H286.642Z" fill="#3F3D56"/>
<path d="M296.831 230.868H291.009V235.666H296.831V230.868Z" fill="#3F3D56"/>
<path d="M296.831 239.505H291.009V244.303H296.831V239.505Z" fill="#3F3D56"/>
<path d="M287.126 262.535V257.736H281.305V262.535H286.642H287.126Z" fill="#3F3D56"/>
<path d="M286.642 266.373H281.305V271.17H287.126V266.373H286.642Z" fill="#3F3D56"/>
<path d="M296.831 257.736H291.009V262.534H296.831V257.736Z" fill="#3F3D56"/>
<path d="M296.831 266.373H291.009V271.17H296.831V266.373Z" fill="#3F3D56"/>
<path d="M257.047 181.93H200.769V193.445H257.047V181.93Z" fill="#3F3D56"/>
<path d="M257.047 204.96H200.769V216.475H257.047V204.96Z" fill="#3F3D56"/>
<path d="M257.047 227.99H200.769V239.505H257.047V227.99Z" fill="#3F3D56"/>
<path d="M257.047 251.02H200.769V262.534H257.047V251.02Z" fill="#3F3D56"/>
<path d="M480.926 179.531L476.074 175.693L503.243 151.703H572.136V172.814L527.501 202.561L480.926 179.531Z" fill="#3F3D56"/>
<path d="M584.697 165.16V152.183H575.55V155.361L572.136 151.703L549.818 175.693L541.086 181.45L527.545 279.283L547.966 299.478H595.424V176.652L584.697 165.16Z" fill="#CCCCCC"/>
<path d="M549.818 175.693H476.073V299.478H549.818V175.693Z" fill="#F2F2F2"/>
<path d="M518.283 269.251H504.698V299.478H518.283V269.251Z" fill="#CCCCCC"/>
<path d="M490.143 277.888V273.09H484.321V277.888H489.658H490.143Z" fill="#3F3D56"/>
<path d="M489.658 281.726H484.321V286.524H490.143V281.726H489.658Z" fill="#3F3D56"/>
<path d="M499.846 273.089H494.024V277.887H499.846V273.089Z" fill="#3F3D56"/>
<path d="M499.846 281.726H494.024V286.523H499.846V281.726Z" fill="#3F3D56"/>
<path d="M529.926 277.888V273.09H524.104V277.888H529.441H529.926Z" fill="#3F3D56"/>
<path d="M529.441 281.726H524.104V286.524H529.926V281.726H529.441Z" fill="#3F3D56"/>
<path d="M539.63 273.089H533.808V277.887H539.63V273.089Z" fill="#3F3D56"/>
<path d="M539.63 281.726H533.808V286.523H539.63V281.726Z" fill="#3F3D56"/>
<path d="M570.68 181.93V177.133H564.858V181.93H570.195H570.68Z" fill="#3F3D56"/>
<path d="M570.195 185.769H564.858V190.566H570.68V185.769H570.195Z" fill="#3F3D56"/>
<path d="M580.383 177.133H574.562V181.93H580.383V177.133Z" fill="#3F3D56"/>
<path d="M580.383 185.769H574.562V190.567H580.383V185.769Z" fill="#3F3D56"/>
<path d="M570.68 208.799V204H564.858V208.799H570.195H570.68Z" fill="#3F3D56"/>
<path d="M570.195 212.637H564.858V217.434H570.68V212.637H570.195Z" fill="#3F3D56"/>
<path d="M580.383 204H574.562V208.798H580.383V204Z" fill="#3F3D56"/>
<path d="M580.383 212.637H574.562V217.435H580.383V212.637Z" fill="#3F3D56"/>
<path d="M570.68 235.667V230.868H564.858V235.667H570.195H570.68Z" fill="#3F3D56"/>
<path d="M570.195 239.505H564.858V244.302H570.68V239.505H570.195Z" fill="#3F3D56"/>
<path d="M580.383 230.868H574.562V235.666H580.383V230.868Z" fill="#3F3D56"/>
<path d="M580.383 239.505H574.562V244.303H580.383V239.505Z" fill="#3F3D56"/>
<path d="M570.68 262.535V257.736H564.858V262.535H570.195H570.68Z" fill="#3F3D56"/>
<path d="M570.195 266.373H564.858V271.17H570.68V266.373H570.195Z" fill="#3F3D56"/>
<path d="M580.383 257.736H574.562V262.534H580.383V257.736Z" fill="#3F3D56"/>
<path d="M580.383 266.373H574.562V271.17H580.383V266.373Z" fill="#3F3D56"/>
<path d="M540.6 181.93H484.321V193.445H540.6V181.93Z" fill="#3F3D56"/>
<path d="M540.6 204.96H484.321V216.475H540.6V204.96Z" fill="#3F3D56"/>
<path d="M540.6 227.99H484.321V239.505H540.6V227.99Z" fill="#3F3D56"/>
<path d="M540.6 251.02H484.321V262.534H540.6V251.02Z" fill="#3F3D56"/>
<path d="M636.422 179.531L631.57 175.693L658.739 151.703H727.632V172.814L682.998 202.561L636.422 179.531Z" fill="#3F3D56"/>
<path d="M740.194 165.16V152.183H731.047V155.361L727.633 151.703L705.315 175.693L696.583 181.45L683.042 279.283L703.463 299.478H750.921V176.652L740.194 165.16Z" fill="#CCCCCC"/>
<path d="M705.315 175.693H631.57V299.478H705.315V175.693Z" fill="#F2F2F2"/>
<path d="M673.78 269.251H660.195V299.478H673.78V269.251Z" fill="#CCCCCC"/>
<path d="M645.64 277.888V273.09H639.818V277.888H645.155H645.64Z" fill="#3F3D56"/>
<path d="M645.155 281.726H639.818V286.524H645.64V281.726H645.155Z" fill="#3F3D56"/>
<path d="M655.344 273.089H649.521V277.887H655.344V273.089Z" fill="#3F3D56"/>
<path d="M655.344 281.726H649.521V286.523H655.344V281.726Z" fill="#3F3D56"/>
<path d="M685.423 277.888V273.09H679.602V277.888H684.938H685.423Z" fill="#3F3D56"/>
<path d="M684.938 281.726H679.602V286.524H685.423V281.726H684.938Z" fill="#3F3D56"/>
<path d="M695.127 273.089H689.305V277.887H695.127V273.089Z" fill="#3F3D56"/>
<path d="M695.127 281.726H689.305V286.523H695.127V281.726Z" fill="#3F3D56"/>
<path d="M726.177 181.93V177.133H720.355V181.93H725.692H726.177Z" fill="#3F3D56"/>
<path d="M725.692 185.769H720.355V190.566H726.177V185.769H725.692Z" fill="#3F3D56"/>
<path d="M735.88 177.133H730.059V181.93H735.88V177.133Z" fill="#3F3D56"/>
<path d="M735.88 185.769H730.059V190.567H735.88V185.769Z" fill="#3F3D56"/>
<path d="M726.177 208.799V204H720.355V208.799H725.692H726.177Z" fill="#3F3D56"/>
<path d="M725.692 212.637H720.355V217.434H726.177V212.637H725.692Z" fill="#3F3D56"/>
<path d="M735.88 204H730.059V208.798H735.88V204Z" fill="#3F3D56"/>
<path d="M735.88 212.637H730.059V217.435H735.88V212.637Z" fill="#3F3D56"/>
<path d="M726.177 235.667V230.868H720.355V235.667H725.692H726.177Z" fill="#3F3D56"/>
<path d="M725.692 239.505H720.355V244.302H726.177V239.505H725.692Z" fill="#3F3D56"/>
<path d="M735.88 230.868H730.059V235.666H735.88V230.868Z" fill="#3F3D56"/>
<path d="M735.88 239.505H730.059V244.303H735.88V239.505Z" fill="#3F3D56"/>
<path d="M726.177 262.535V257.736H720.355V262.535H725.692H726.177Z" fill="#3F3D56"/>
<path d="M725.692 266.373H720.355V271.17H726.177V266.373H725.692Z" fill="#3F3D56"/>
<path d="M735.88 257.736H730.059V262.534H735.88V257.736Z" fill="#3F3D56"/>
<path d="M735.88 266.373H730.059V271.17H735.88V266.373Z" fill="#3F3D56"/>
<path d="M696.097 181.93H639.818V193.445H696.097V181.93Z" fill="#3F3D56"/>
<path d="M696.097 204.96H639.818V216.475H696.097V204.96Z" fill="#3F3D56"/>
<path d="M696.097 227.99H639.818V239.505H696.097V227.99Z" fill="#3F3D56"/>
<path d="M696.097 251.02H639.818V262.534H696.097V251.02Z" fill="#3F3D56"/>
<path d="M800 298.999H0V300H800V298.999Z" fill="#3F3D56" fill-opacity="0.3"/>
<path d="M178.716 244.03H177.309V298.999H178.716V244.03Z" fill="#3F3D56"/>
<path d="M191.703 251.035C191.793 270.256 178.118 285.901 178.118 285.901C178.118 285.901 164.298 270.382 164.208 251.16C164.119 231.939 177.794 216.295 177.794 216.295C177.794 216.295 191.614 231.814 191.703 251.035Z" fill="#1A5AFF"/>
<path d="M319.438 244.03H318.03V298.999H319.438V244.03Z" fill="#3F3D56"/>
<path d="M332.424 251.035C332.513 270.256 318.839 285.901 318.839 285.901C318.839 285.901 305.019 270.382 304.929 251.16C304.84 231.939 318.514 216.295 318.514 216.295C318.514 216.295 332.334 231.814 332.424 251.035Z" fill="#1A5AFF"/>
<path d="M600.176 244.03H598.769V298.999H600.176V244.03Z" fill="#3F3D56"/>
<path d="M613.163 251.035C613.253 270.256 599.578 285.901 599.578 285.901C599.578 285.901 585.758 270.382 585.668 251.16C585.579 231.939 599.254 216.295 599.254 216.295C599.254 216.295 613.073 231.814 613.163 251.035Z" fill="#1A5AFF"/>
<path d="M66.1799 36.127L75 29.1358C68.148 28.3866 65.3327 32.09 64.1805 35.0214C58.8274 32.8185 53 35.7055 53 35.7055L70.6475 42.0548C69.7572 39.6981 68.2074 37.6418 66.1799 36.127Z" fill="#3F3D56"/>
<path d="M278.337 59.7044L287.157 52.7131C280.305 51.964 277.49 55.6674 276.338 58.5987C270.985 56.3959 265.157 59.2829 265.157 59.2829L282.805 65.6322C281.914 63.2755 280.365 61.2192 278.337 59.7044Z" fill="#3F3D56"/>
<path d="M183.18 121.238L192 114.246C185.148 113.497 182.333 117.201 181.18 120.132C175.827 117.929 170 120.816 170 120.816L187.647 127.165C186.757 124.809 185.207 122.752 183.18 121.238Z" fill="#3F3D56"/>
<path d="M441.688 167.434H440.841L440.438 164.092H441.688V167.434Z" fill="#9F616A"/>
<path d="M441.904 168.275H439.175V168.239C439.175 167.951 439.287 167.675 439.486 167.471C439.685 167.267 439.955 167.152 440.237 167.152H441.904V168.275Z" fill="#2F2E41"/>
<path d="M452.603 165.792L451.877 166.239L449.851 163.586L450.921 162.927L452.603 165.792Z" fill="#9F616A"/>
<path d="M450.871 167.838L450.853 167.808C450.709 167.56 450.666 167.264 450.734 166.985C450.802 166.705 450.976 166.464 451.217 166.316L452.646 165.437L453.211 166.399L450.871 167.838Z" fill="#2F2E41"/>
<path d="M441.909 166.745L441.894 166.745C441.482 166.744 441.071 166.719 440.662 166.672C440.506 166.657 440.337 166.64 440.133 166.622L440.126 166.621C439.987 166.579 439.983 165.244 440.042 160.673C440.072 158.332 440.106 155.679 440.066 153.99L440.065 153.973L440.077 153.962C440.814 153.301 441.692 152.828 442.641 152.582C443.59 152.335 444.582 152.322 445.537 152.543L445.552 152.546L445.56 152.56C446.392 154.001 447.648 156.076 448.862 158.083C451.651 162.691 452.448 164.046 452.361 164.148L452.35 164.156C452.16 164.254 452.017 164.329 451.895 164.393C451.414 164.648 450.92 164.876 450.415 165.076L450.392 165.086L450.376 165.067C447.547 161.894 445.193 158.349 443.736 155.071C443.566 156.19 443.36 157.651 443.141 159.195C442.514 163.634 442.09 166.556 441.919 166.734L441.909 166.745Z" fill="#2F2E41"/>
<path d="M442.67 154.331C444.357 154.323 446.033 154.611 447.626 155.18C447.681 152.443 446.785 149.775 445.097 147.652L445.085 147.637L445.091 147.618C445.535 146.303 445.995 144.945 446.405 143.593L446.399 143.57C446.111 142.522 445.493 141.463 444.51 140.333C444.403 140.22 444.259 140.153 444.105 140.145C443.952 140.137 443.801 140.189 443.684 140.29C442.823 141.097 442.152 142.093 441.722 143.204C441.292 144.315 441.115 145.512 441.204 146.703L441.205 146.71L441.203 146.717C440.433 149.387 440.154 150.758 439.907 151.968C439.727 152.851 439.571 153.615 439.259 154.707C440.38 154.457 441.523 154.331 442.67 154.331Z" fill="#CBCBCB"/>
<path opacity="0.1" d="M445.154 145.891L442.65 151.472L441.219 149.99L445.154 145.891Z" fill="black"/>
<path d="M444.084 139.79C445.068 139.79 445.865 138.973 445.865 137.966C445.865 136.959 445.068 136.142 444.084 136.142C443.1 136.142 442.302 136.959 442.302 137.966C442.302 138.973 443.1 139.79 444.084 139.79Z" fill="#9F616A"/>
<path d="M441.923 136.935H444.752V135.672C444.131 135.42 443.524 135.205 443.156 135.672C442.829 135.672 442.515 135.805 442.284 136.042C442.053 136.279 441.923 136.6 441.923 136.935Z" fill="#2F2E41"/>
<path d="M444.909 135.449C446.6 135.449 447.074 137.62 447.074 138.844C447.074 139.527 446.772 139.771 446.298 139.854L446.131 138.94L445.739 139.893C445.605 139.894 445.466 139.891 445.321 139.889L445.188 139.608L444.891 139.884C443.704 139.885 442.744 140.063 442.744 138.844C442.744 137.62 443.159 135.449 444.909 135.449Z" fill="#2F2E41"/>
<path d="M496 51.1789C496 99.256 446.763 122.261 446.763 122.261C446.763 122.261 397.021 99.256 396.011 51.1789C395.418 22.9201 418.394 0 446.006 0C473.617 0 496 22.9136 496 51.1789Z" fill="#1A5AFF"/>
<path d="M447.82 167.057H446.782L446.288 162.959H447.82V167.057Z" fill="#FFB7B7"/>
<path d="M446.041 166.753H448.042V168.043H444.78C444.78 167.874 444.813 167.706 444.876 167.549C444.94 167.393 445.032 167.251 445.149 167.131C445.266 167.011 445.405 166.916 445.558 166.851C445.711 166.786 445.875 166.753 446.041 166.753Z" fill="#2F2E41"/>
<path d="M451.713 167.057H450.676L450.182 162.959H451.714L451.713 167.057Z" fill="#FFB7B7"/>
<path d="M449.934 166.753H451.936V168.043H448.674C448.674 167.701 448.807 167.373 449.043 167.131C449.279 166.889 449.6 166.753 449.934 166.753Z" fill="#2F2E41"/>
<path d="M451.586 154.852C451.475 154.778 451.38 154.68 451.309 154.565C451.238 154.45 451.193 154.32 451.176 154.185C451.16 154.05 451.172 153.913 451.213 153.783C451.253 153.654 451.321 153.535 451.412 153.435L450.729 143.508L452.697 143.703L452.751 153.425C452.905 153.592 452.993 153.81 453 154.039C453.007 154.268 452.931 154.492 452.788 154.668C452.644 154.844 452.442 154.96 452.221 154.993C452 155.027 451.774 154.977 451.586 154.852Z" fill="#FFB7B7"/>
<path d="M447.771 164.992L446.628 164.936C446.531 164.932 446.439 164.889 446.371 164.817C446.304 164.745 446.266 164.649 446.265 164.55L446.186 152.716C446.185 152.66 446.197 152.604 446.219 152.553C446.242 152.502 446.275 152.456 446.316 152.419C446.358 152.382 446.406 152.355 446.459 152.339C446.512 152.323 446.567 152.319 446.621 152.327L451.192 153.006C451.282 153.019 451.365 153.065 451.425 153.135C451.485 153.206 451.518 153.296 451.518 153.389L452.106 164.355C452.106 164.406 452.097 164.457 452.078 164.505C452.059 164.552 452.031 164.596 451.995 164.632C451.96 164.669 451.918 164.698 451.872 164.718C451.825 164.737 451.775 164.748 451.725 164.748H450.493C450.403 164.748 450.315 164.715 450.245 164.654C450.176 164.594 450.131 164.51 450.117 164.418C450.117 164.418 449.187 156.193 449.059 156.198C448.931 156.2 448.167 164.649 448.167 164.649C448.156 164.744 448.111 164.831 448.041 164.894C447.972 164.957 447.882 164.992 447.789 164.993C447.783 164.993 447.777 164.992 447.771 164.992Z" fill="#2F2E41"/>
<path d="M451.174 146.844C451.128 146.81 451.09 146.766 451.063 146.715C451.036 146.664 451.02 146.608 451.017 146.55L450.873 143.874C450.858 143.609 450.941 143.348 451.103 143.141C451.266 142.934 451.498 142.796 451.754 142.754C452.01 142.712 452.272 142.768 452.49 142.912C452.708 143.056 452.866 143.277 452.934 143.534L453.567 145.926C453.594 146.026 453.58 146.132 453.53 146.222C453.48 146.311 453.397 146.377 453.299 146.404L451.497 146.904C451.442 146.92 451.385 146.922 451.329 146.912C451.273 146.901 451.22 146.878 451.174 146.844Z" fill="#3F3D56"/>
<path d="M449.49 140.485C450.639 140.485 451.569 139.532 451.569 138.356C451.569 137.181 450.639 136.228 449.49 136.228C448.342 136.228 447.411 137.181 447.411 138.356C447.411 139.532 448.342 140.485 449.49 140.485Z" fill="#FFB7B7"/>
<path d="M450.962 140.04C450.875 140.136 450.763 140.205 450.639 140.238C450.516 140.271 450.385 140.267 450.264 140.227C450.142 140.187 450.034 140.112 449.952 140.012C449.871 139.911 449.819 139.788 449.803 139.659C449.799 139.614 449.799 139.569 449.804 139.524C449.83 139.268 449.975 139.035 449.94 138.765C449.932 138.698 449.908 138.634 449.869 138.579C449.56 138.155 448.834 138.768 448.542 138.385C448.364 138.15 448.574 137.779 448.437 137.516C448.255 137.17 447.719 137.341 447.382 137.151C447.008 136.939 447.03 136.351 447.277 135.994C447.437 135.782 447.641 135.61 447.874 135.488C448.107 135.367 448.363 135.3 448.625 135.291C449.148 135.278 449.668 135.382 450.148 135.595C450.715 135.784 451.215 136.139 451.587 136.617C451.779 136.93 451.901 137.283 451.944 137.65C451.986 138.017 451.949 138.39 451.833 138.74C451.708 139.17 451.279 139.695 450.962 140.04Z" fill="#2F2E41"/>
<path d="M451.566 141.906C451.53 141.879 451.493 141.853 451.455 141.828C451.256 141.692 451.039 141.583 450.812 141.505V140.946H449.204V141.465C448.671 141.615 448.192 141.923 447.829 142.35C447.465 142.776 447.232 143.303 447.158 143.864L446.063 152.188C446.056 152.24 446.059 152.293 446.073 152.343C446.087 152.394 446.11 152.441 446.142 152.482C446.173 152.523 446.212 152.557 446.257 152.582C446.301 152.607 446.35 152.622 446.4 152.627C447.168 152.729 447.907 152.988 448.574 153.39C449.059 153.664 449.604 153.807 450.158 153.803C450.597 153.802 451.034 153.722 451.447 153.568C451.517 153.542 451.578 153.495 451.622 153.433C451.666 153.371 451.691 153.298 451.694 153.221C451.733 152.326 451.964 147.715 452.635 144.902C452.766 144.35 452.734 143.771 452.544 143.238C452.353 142.705 452.013 142.242 451.566 141.906Z" fill="#3F3D56"/>
<path d="M463.428 125.104H430.099L426.059 108.561H467.468L463.428 125.104Z" fill="#3F3D56"/>
<path d="M462.291 153.395H431.234V169.963H462.291V153.395Z" fill="white"/>
<path d="M462.545 170.222H430.982V153.136H462.545V170.222ZM431.487 169.705H462.04V153.653H431.487V169.705Z" fill="#3F3D56"/>
<path d="M453.129 127.055H440.397L438.936 124.704H454.59L453.129 127.055Z" fill="#3F3D56"/>
<path d="M430.856 125.104H430.351V150.435H430.856V125.104Z" fill="#3F3D56"/>
<path d="M463.175 125.104H462.67V150.435H463.175V125.104Z" fill="#3F3D56"/>
<path d="M451.825 108.28L451.517 107.871C466.105 96.3539 483.496 76.6236 483.496 48.0319C483.508 38.018 480.631 28.2235 475.226 19.8767C469.822 11.5299 462.13 5.00249 453.116 1.11303L453.313 0.636963C462.418 4.56589 470.188 11.1596 475.647 19.591C481.107 28.0225 484.013 37.9164 484.001 48.0319C484.001 76.8336 466.503 96.6924 451.825 108.28Z" fill="#3F3D56"/>
<path d="M435.665 108.281L435.356 107.872C449.945 96.3552 467.336 76.6249 467.336 48.0331C467.34 38.0865 464.498 28.3566 459.16 20.0453C453.822 11.7339 446.223 5.20522 437.302 1.26557L437.502 0.791016C446.514 4.77064 454.19 11.3656 459.582 19.7613C464.974 28.157 467.845 37.9856 467.841 48.0331C467.841 76.835 450.343 96.6938 435.665 108.281Z" fill="#3F3D56"/>
<path d="M456.346 108.281C441.667 96.6938 424.17 76.8351 424.17 48.0332C424.166 37.9857 427.037 28.157 432.429 19.7612C437.821 11.3655 445.497 4.77056 454.509 0.791016L454.71 1.26557C445.788 5.20515 438.189 11.7339 432.851 20.0452C427.513 28.3566 424.671 38.0866 424.675 48.0332C424.675 76.6249 442.065 96.3552 456.654 107.872L456.346 108.281Z" fill="#3F3D56"/>
<path d="M440.186 108.28C425.507 96.6925 408.01 76.834 408.01 48.032C407.993 37.8766 410.92 27.9444 416.419 19.4921C421.918 11.0399 429.743 4.44739 438.903 0.548828L439.098 1.0259C430.03 4.88527 422.284 11.4115 416.84 19.7789C411.396 28.1462 408.499 37.9786 408.515 48.032C408.515 76.6239 425.905 96.3541 440.494 107.871L440.186 108.28Z" fill="#3F3D56"/>
<path d="M446.258 0H445.753V108.561H446.258V0Z" fill="#3F3D56"/>
<path d="M440.316 149.638L431.056 159.118L431.413 159.483L440.673 150.004L440.316 149.638Z" fill="#3F3D56"/>
<path d="M444.818 149.48L431.053 164.301L431.419 164.657L445.184 149.836L444.818 149.48Z" fill="#3F3D56"/>
<path d="M465.196 149.659H427.321V154.312H465.196V149.659Z" fill="white"/>
<path d="M465.448 154.571H427.068V149.401H465.448V154.571ZM427.573 154.054H464.943V149.918H427.573V154.054Z" fill="#3F3D56"/>
<path d="M439.57 151.823C439.672 151.816 439.77 151.786 439.859 151.736C439.948 151.685 440.024 151.615 440.084 151.531C440.144 151.447 440.184 151.351 440.204 151.249C440.223 151.147 440.22 151.042 440.195 150.941L442.259 149.557L441.082 149.036L439.303 150.431C439.14 150.484 439.003 150.597 438.916 150.748C438.829 150.899 438.799 151.077 438.832 151.248C438.865 151.42 438.959 151.573 439.095 151.679C439.231 151.785 439.4 151.836 439.57 151.823H439.57Z" fill="#9F616A"/>
<path d="M441.556 150.826L441.53 150.808C441.039 150.437 440.494 150.055 439.966 149.685L439.935 149.663L439.96 149.633C441.085 148.285 442.212 146.877 443.301 145.515L443.299 145.51L443.309 145.504L443.314 145.499L443.316 145.501L443.323 145.498L443.293 145.5L442.957 142.804C442.791 142.523 442.706 142.2 442.712 141.872C442.719 141.544 442.816 141.225 442.993 140.952C443.197 140.657 443.5 140.449 443.844 140.369C444.188 140.288 444.549 140.341 444.858 140.516C445.01 140.62 445.137 140.759 445.23 140.921C445.323 141.083 445.38 141.264 445.395 141.451C445.417 141.618 445.402 141.787 445.351 141.947C445.3 142.107 445.215 142.254 445.103 142.376C445.219 143.685 445.27 144.998 445.256 146.312L445.256 146.325L445.249 146.335C444.087 147.846 442.811 149.348 441.577 150.802L441.556 150.826Z" fill="#CBCBCB"/>
<path d="M441.957 142.538C441.967 142.585 441.974 142.633 441.977 142.681L445.613 144.828L446.497 144.307L447.44 145.57L445.549 146.95L441.4 143.599C441.231 143.663 441.047 143.673 440.872 143.627C440.697 143.582 440.54 143.483 440.421 143.343C440.303 143.204 440.229 143.031 440.209 142.848C440.189 142.664 440.224 142.479 440.309 142.316C440.394 142.153 440.526 142.021 440.687 141.937C440.847 141.852 441.029 141.82 441.208 141.844C441.387 141.869 441.554 141.948 441.688 142.072C441.822 142.196 441.915 142.359 441.957 142.538H441.957Z" fill="#FFB7B7"/>
<path d="M445.742 144.645C445.736 144.587 445.743 144.528 445.762 144.474C445.781 144.419 445.812 144.369 445.852 144.328L447.703 142.433C447.886 142.245 448.131 142.134 448.39 142.12C448.649 142.106 448.904 142.19 449.105 142.357C449.307 142.525 449.441 142.762 449.481 143.024C449.522 143.286 449.467 143.555 449.325 143.777L448.007 145.857C447.952 145.943 447.866 146.004 447.767 146.026C447.668 146.047 447.565 146.028 447.48 145.971L445.914 144.931C445.866 144.899 445.826 144.857 445.796 144.808C445.767 144.758 445.748 144.702 445.742 144.645Z" fill="#3F3D56"/>
</svg>
