<svg width="474" height="393" viewBox="0 0 474 393" fill="none" xmlns="http://www.w3.org/2000/svg">
<path d="M325.621 255.153C323.413 254.893 319.865 253.794 315.857 252.324C304.96 248.328 290.663 241.6 290.663 241.6C290.663 241.6 215.28 210.777 172.427 160.865C172.427 160.865 166.646 152.715 176.803 150.882C178.352 150.622 179.921 150.501 181.492 150.519C181.492 150.519 181.538 150.504 181.627 150.477C182.851 150.131 184.103 149.896 185.369 149.773C189.101 149.388 194.94 149.649 200.215 153.562L330.868 249.077C330.868 249.077 333.832 256.119 325.621 255.153Z" fill="#3F3D56"/>
<path d="M302.563 230.273L343.138 224.299L355.119 233.26L330.868 249.077C330.868 249.077 301.009 234.173 302.563 230.273Z" fill="#3F3D56"/>
<path d="M234.06 179.221L301.91 192.796L310.463 199.668L277.501 198.079L264.343 203.189L234.06 179.221Z" fill="#3F3D56"/>
<path d="M315.857 252.324C304.96 248.328 290.663 241.6 290.663 241.6C290.663 241.6 215.28 210.777 172.427 160.865C172.427 160.865 166.646 152.716 176.803 150.882L176.776 150.996C176.776 150.996 184.448 164.858 236.979 199.913L315.857 252.324Z" fill="#6C63FF"/>
<path d="M306.546 247.008L327.574 271.36L334.619 274.014L324.816 253.998C324.816 253.998 307.697 240.126 306.546 247.008Z" fill="#3F3D56"/>
<path d="M185.802 157.049C184.523 156.426 182.703 152.824 181.627 150.477C182.851 150.131 184.103 149.896 185.369 149.773C186.255 151.63 187.923 154.755 189.395 155.423C191.519 156.387 187.725 157.987 185.802 157.049Z" fill="#6C63FF"/>
<path d="M275.802 278.534L258.306 270.748L226.841 214.044L221 203.517L218.161 198.401C229.756 195.677 258.018 221.961 258.018 221.961C258.379 222.818 258.128 223.808 257.6 224.774C256.61 226.583 254.647 228.307 253.922 228.907C253.747 229.052 253.645 229.131 253.645 229.131L275.802 278.534Z" fill="#3F3D56"/>
<path d="M72.5916 231.518C89.1601 231.518 102.592 218.086 102.592 201.518C102.592 184.949 89.1601 171.518 72.5916 171.518C56.023 171.518 42.5916 184.949 42.5916 201.518C42.5916 218.086 56.023 231.518 72.5916 231.518Z" fill="#FF6584"/>
<path d="M379.014 377.472C377.234 379.384 375.361 381.169 373.405 382.819C368.763 386.712 363.748 389.928 358.465 392.398C336.511 391.768 304.236 388.555 263.497 386.842C260.458 385.603 257.35 384.262 254.173 382.819C249.968 380.908 276.446 389.515 272 387.226C253.535 377.709 119.205 381.168 100.427 377.472C96.392 376.679 176.937 355.647 172.923 355.08C88.1268 342.985 189.5 386.842 0.873239 382.819H0L5.57042 369.951L100.352 151L122.518 218.874L129.592 240.54L149.088 208.631L159.155 192.156L205 254.844L217.958 220.714L307.669 308.032L312.673 312.899L317.736 317.83L319.349 319.4L367.31 366.083L379.014 377.472Z" fill="#F2F2F2"/>
<path opacity="0.1" d="M91.9014 195.096L101.056 171.158L113.732 206.015L102.817 180.817L91.9014 195.096Z" fill="black"/>
<path opacity="0.1" d="M184.996 357.121C180.961 356.327 176.937 355.647 172.923 355.08L129.592 240.54L184.996 357.121Z" fill="black"/>
<path opacity="0.1" d="M149.088 208.631L159.155 199.296L204.93 262.29L158.451 208.535L149.088 208.631Z" fill="black"/>
<path opacity="0.1" d="M204.999 254.842L296.479 359.301L283.966 362.821L204.999 254.842Z" fill="black"/>
<path opacity="0.4" d="M17.4232 282.505C25.9411 282.505 32.8463 275.676 32.8463 267.252C32.8463 258.829 25.9411 252 17.4232 252C8.90518 252 2 258.829 2 267.252C2 275.676 8.90518 282.505 17.4232 282.505Z" fill="#1A5AFF"/>
<path d="M29.8454 384.887C31.0373 389.244 35.1197 391.942 35.1197 391.942C35.1197 391.942 37.2697 387.577 36.0778 383.22C34.886 378.863 30.8036 376.164 30.8036 376.164C30.8036 376.164 28.6535 380.53 29.8454 384.887Z" fill="#3F3D56"/>
<path d="M31.5975 383.95C34.8681 387.099 35.2676 391.939 35.2676 391.939C35.2676 391.939 30.3645 391.674 27.094 388.525C23.8234 385.377 23.424 380.537 23.424 380.537C23.424 380.537 28.327 380.802 31.5975 383.95Z" fill="#1A5AFF"/>
<path d="M37.9422 352.135L35.0314 347.338L62.2004 324.308H132.064V331.024L106.836 357.893L77.7255 363.65L37.9422 352.135Z" fill="#3F3D56"/>
<path d="M144.091 337.822V322.809H134.944V327.543L132.065 324.307L108.777 347.337L104.895 351.175L100.043 370.367L108.777 391.477H153.411V348.297L144.091 337.822Z" fill="#CCCCCC"/>
<path d="M108.776 347.338H35.0314V391.478H108.776V347.338Z" fill="#F2F2F2"/>
<path d="M98.5872 361.251H83.062V374.685H98.5872V361.251Z" fill="#3F3D56"/>
<path d="M76.7547 360.771H63.1702V391.477H76.7547V360.771Z" fill="#CCCCCC"/>
<path d="M47.645 365.569V360.771H41.8234V365.569H47.1595H47.645Z" fill="#3F3D56"/>
<path d="M47.1595 369.407H41.8234V374.206H47.645V369.407H47.1595Z" fill="#3F3D56"/>
<path d="M57.3486 360.771H51.5266V365.569H57.3486V360.771Z" fill="#3F3D56"/>
<path d="M57.3486 369.407H51.5266V374.205H57.3486V369.407Z" fill="#3F3D56"/>
<path d="M129.638 366.05V361.251H123.816V366.05H129.153H129.638Z" fill="#3F3D56"/>
<path d="M129.153 369.887H123.816V374.685H129.638V369.887H129.153Z" fill="#3F3D56"/>
<path d="M139.341 361.251H133.519V366.049H139.341V361.251Z" fill="#3F3D56"/>
<path d="M139.341 369.887H133.519V374.685H139.341V369.887Z" fill="#3F3D56"/>
<path d="M318.681 352.135L315.77 347.338L342.939 324.308H412.803V331.024L387.574 357.893L358.464 363.65L318.681 352.135Z" fill="#3F3D56"/>
<path d="M424.828 337.822V322.809H415.681V327.543L412.802 324.307L389.514 347.337L385.632 351.175L380.781 370.367L389.514 391.477H434.149V348.297L424.828 337.822Z" fill="#CCCCCC"/>
<path d="M389.515 347.338H315.77V391.478H389.515V347.338Z" fill="#F2F2F2"/>
<path d="M379.326 361.251H363.801V374.685H379.326V361.251Z" fill="#3F3D56"/>
<path d="M357.493 360.771H343.909V391.477H357.493V360.771Z" fill="#CCCCCC"/>
<path d="M328.384 365.569V360.771H322.562V365.569H327.899H328.384Z" fill="#3F3D56"/>
<path d="M327.899 369.407H322.562V374.206H328.384V369.407H327.899Z" fill="#3F3D56"/>
<path d="M338.087 360.771H332.265V365.569H338.087V360.771Z" fill="#3F3D56"/>
<path d="M338.087 369.407H332.265V374.205H338.087V369.407Z" fill="#3F3D56"/>
<path d="M410.376 366.05V361.251H404.553V366.05H409.89H410.376Z" fill="#3F3D56"/>
<path d="M409.89 369.887H404.553V374.685H410.376V369.887H409.89Z" fill="#3F3D56"/>
<path d="M420.08 361.251H414.258V366.049H420.08V361.251Z" fill="#3F3D56"/>
<path d="M420.08 369.887H414.258V374.685H420.08V369.887Z" fill="#3F3D56"/>
<path d="M187.372 271.531L182.521 267.693L209.69 243.703H278.583V264.814L233.948 294.561L187.372 271.531Z" fill="#3F3D56"/>
<path d="M291.144 257.16V244.183H281.997V247.361L278.583 243.703L256.265 267.693L247.533 273.45L233.992 371.283L254.412 391.478H301.871V268.652L291.144 257.16Z" fill="#CCCCCC"/>
<path d="M256.266 267.693H182.521V391.478H256.266V267.693Z" fill="#F2F2F2"/>
<path d="M224.73 361.251H211.145V391.478H224.73V361.251Z" fill="#CCCCCC"/>
<path d="M196.591 369.888V365.09H190.769V369.888H196.106H196.591Z" fill="#3F3D56"/>
<path d="M196.106 373.726H190.769V378.524H196.591V373.726H196.106Z" fill="#3F3D56"/>
<path d="M206.294 365.089H200.472V369.887H206.294V365.089Z" fill="#3F3D56"/>
<path d="M206.294 373.726H200.472V378.523H206.294V373.726Z" fill="#3F3D56"/>
<path d="M236.374 369.888V365.09H230.552V369.888H235.889H236.374Z" fill="#3F3D56"/>
<path d="M235.889 373.726H230.552V378.524H236.374V373.726H235.889Z" fill="#3F3D56"/>
<path d="M246.077 365.089H240.255V369.887H246.077V365.089Z" fill="#3F3D56"/>
<path d="M246.077 373.726H240.255V378.523H246.077V373.726Z" fill="#3F3D56"/>
<path d="M277.127 273.93V269.133H271.305V273.93H276.642H277.127Z" fill="#3F3D56"/>
<path d="M276.642 277.769H271.305V282.566H277.127V277.769H276.642Z" fill="#3F3D56"/>
<path d="M286.831 269.133H281.009V273.93H286.831V269.133Z" fill="#3F3D56"/>
<path d="M286.831 277.769H281.009V282.567H286.831V277.769Z" fill="#3F3D56"/>
<path d="M277.127 300.799V296H271.305V300.799H276.642H277.127Z" fill="#3F3D56"/>
<path d="M276.642 304.637H271.305V309.434H277.127V304.637H276.642Z" fill="#3F3D56"/>
<path d="M286.831 296H281.009V300.798H286.831V296Z" fill="#3F3D56"/>
<path d="M286.831 304.637H281.009V309.435H286.831V304.637Z" fill="#3F3D56"/>
<path d="M277.127 327.667V322.868H271.305V327.667H276.642H277.127Z" fill="#3F3D56"/>
<path d="M276.642 331.505H271.305V336.302H277.127V331.505H276.642Z" fill="#3F3D56"/>
<path d="M286.831 322.868H281.009V327.666H286.831V322.868Z" fill="#3F3D56"/>
<path d="M286.831 331.505H281.009V336.303H286.831V331.505Z" fill="#3F3D56"/>
<path d="M277.127 354.535V349.736H271.305V354.535H276.642H277.127Z" fill="#3F3D56"/>
<path d="M276.642 358.373H271.305V363.17H277.127V358.373H276.642Z" fill="#3F3D56"/>
<path d="M286.831 349.736H281.009V354.534H286.831V349.736Z" fill="#3F3D56"/>
<path d="M286.831 358.373H281.009V363.17H286.831V358.373Z" fill="#3F3D56"/>
<path d="M247.048 273.93H190.769V285.445H247.048V273.93Z" fill="#3F3D56"/>
<path d="M247.048 296.96H190.769V308.475H247.048V296.96Z" fill="#3F3D56"/>
<path d="M247.048 319.99H190.769V331.505H247.048V319.99Z" fill="#3F3D56"/>
<path d="M247.048 343.02H190.769V354.534H247.048V343.02Z" fill="#3F3D56"/>
<path d="M434 391H31V392H434V391Z" fill="#3F3D56" fill-opacity="0.3"/>
<path d="M168.716 336.03H167.309V390.999H168.716V336.03Z" fill="#3F3D56"/>
<path d="M181.704 343.035C181.793 362.256 168.118 377.901 168.118 377.901C168.118 377.901 154.299 362.382 154.209 343.161C154.119 323.939 167.794 308.295 167.794 308.295C167.794 308.295 181.614 323.814 181.704 343.035Z" fill="#1A5AFF"/>
<path d="M309.438 336.03H308.031V390.999H309.438V336.03Z" fill="#3F3D56"/>
<path d="M322.424 343.035C322.514 362.256 308.839 377.901 308.839 377.901C308.839 377.901 295.019 362.382 294.93 343.161C294.84 323.939 308.515 308.295 308.515 308.295C308.515 308.295 322.335 323.814 322.424 343.035Z" fill="#1A5AFF"/>
<path d="M56.18 128.127L65.0001 121.136C58.1482 120.386 55.3328 124.09 54.1806 127.021C48.8275 124.818 43.0001 127.705 43.0001 127.705L60.6476 134.055C59.7573 131.698 58.2075 129.642 56.18 128.127Z" fill="#3F3D56"/>
<path d="M104.18 207.089L113 200.098C106.148 199.349 103.333 203.052 102.18 205.984C96.8274 203.781 91 206.668 91 206.668L108.647 213.017C107.757 210.66 106.207 208.604 104.18 207.089V207.089Z" fill="#3F3D56"/>
<path d="M418.18 275.089L427 268.098C420.148 267.349 417.333 271.052 416.18 273.984C410.827 271.781 405 274.668 405 274.668L422.647 281.017C421.757 278.66 420.207 276.604 418.18 275.089V275.089Z" fill="#3F3D56"/>
<path d="M465.18 247.089L474 240.098C467.148 239.349 464.333 243.052 463.18 245.984C457.827 243.781 452 246.668 452 246.668L469.647 253.017C468.757 250.66 467.207 248.604 465.18 247.089V247.089Z" fill="#3F3D56"/>
<path d="M419.688 167.434H418.842L418.439 164.092H419.688V167.434Z" fill="#9F616A"/>
<path d="M419.904 168.275H417.175V168.239C417.175 167.951 417.287 167.675 417.486 167.471C417.685 167.267 417.955 167.152 418.237 167.152H419.904V168.275Z" fill="#2F2E41"/>
<path d="M430.603 165.792L429.877 166.239L427.851 163.586L428.921 162.928L430.603 165.792Z" fill="#9F616A"/>
<path d="M428.871 167.838L428.853 167.808C428.709 167.56 428.666 167.264 428.734 166.985C428.802 166.705 428.976 166.464 429.217 166.315L430.646 165.437L431.211 166.399L428.871 167.838Z" fill="#2F2E41"/>
<path d="M419.908 166.745L419.894 166.745C419.482 166.744 419.071 166.719 418.661 166.672C418.505 166.657 418.336 166.64 418.132 166.622L418.125 166.621C417.986 166.579 417.982 165.244 418.041 160.673C418.072 158.332 418.106 155.679 418.065 153.99L418.065 153.973L418.077 153.962C418.813 153.301 419.692 152.828 420.64 152.582C421.589 152.335 422.582 152.322 423.537 152.543L423.552 152.546L423.559 152.56C424.391 154.001 425.647 156.076 426.862 158.083C429.65 162.691 430.448 164.046 430.36 164.148L430.35 164.156C430.159 164.254 430.016 164.329 429.895 164.393C429.414 164.648 428.92 164.876 428.414 165.076L428.392 165.086L428.376 165.067C425.547 161.894 423.192 158.349 421.736 155.071C421.566 156.19 421.359 157.651 421.141 159.195C420.513 163.634 420.089 166.556 419.918 166.734L419.908 166.745Z" fill="#2F2E41"/>
<path d="M420.67 154.331C422.357 154.323 424.033 154.611 425.626 155.18C425.681 152.443 424.785 149.775 423.097 147.652L423.085 147.637L423.091 147.618C423.535 146.303 423.995 144.945 424.405 143.593L424.399 143.57C424.111 142.522 423.493 141.463 422.51 140.333C422.403 140.22 422.259 140.153 422.105 140.145C421.952 140.137 421.801 140.189 421.684 140.29C420.823 141.097 420.152 142.093 419.722 143.204C419.292 144.315 419.115 145.512 419.204 146.703L419.205 146.71L419.203 146.717C418.433 149.387 418.154 150.758 417.907 151.968C417.727 152.851 417.571 153.615 417.259 154.707C418.38 154.457 419.523 154.331 420.67 154.331V154.331Z" fill="#CBCBCB"/>
<path opacity="0.1" d="M423.154 145.891L420.65 151.472L419.219 149.99L423.154 145.891Z" fill="black"/>
<path d="M422.083 139.79C423.067 139.79 423.865 138.973 423.865 137.966C423.865 136.958 423.067 136.142 422.083 136.142C421.099 136.142 420.302 136.958 420.302 137.966C420.302 138.973 421.099 139.79 422.083 139.79Z" fill="#9F616A"/>
<path d="M419.923 136.935H422.752V135.672C422.131 135.42 421.524 135.205 421.156 135.672C420.829 135.672 420.515 135.805 420.284 136.042C420.053 136.279 419.923 136.6 419.923 136.935V136.935Z" fill="#2F2E41"/>
<path d="M422.909 135.449C424.6 135.449 425.074 137.62 425.074 138.844C425.074 139.527 424.772 139.771 424.298 139.854L424.131 138.94L423.739 139.893C423.605 139.894 423.466 139.891 423.321 139.889L423.188 139.608L422.891 139.884C421.704 139.885 420.744 140.063 420.744 138.844C420.744 137.62 421.159 135.449 422.909 135.449Z" fill="#2F2E41"/>
<path d="M474 51.1789C474 99.256 424.763 122.261 424.763 122.261C424.763 122.261 375.021 99.256 374.011 51.1789C373.418 22.9201 396.394 0 424.006 0C451.617 0 474 22.9136 474 51.1789Z" fill="#1A5AFF"/>
<path d="M425.819 167.057H424.781L424.288 162.959H425.819V167.057Z" fill="#FFB7B7"/>
<path d="M424.04 166.753H426.042V168.043H422.78C422.78 167.873 422.812 167.706 422.876 167.549C422.939 167.393 423.032 167.25 423.149 167.131C423.266 167.011 423.405 166.916 423.558 166.851C423.711 166.786 423.875 166.753 424.04 166.753Z" fill="#2F2E41"/>
<path d="M429.713 167.057H428.676L428.182 162.959H429.714L429.713 167.057Z" fill="#FFB7B7"/>
<path d="M427.934 166.753H429.936V168.043H426.674C426.674 167.701 426.807 167.373 427.043 167.131C427.279 166.889 427.6 166.753 427.934 166.753Z" fill="#2F2E41"/>
<path d="M429.586 154.852C429.475 154.778 429.38 154.68 429.309 154.565C429.238 154.45 429.193 154.32 429.176 154.185C429.16 154.05 429.172 153.913 429.213 153.783C429.253 153.654 429.321 153.535 429.412 153.435L428.729 143.508L430.697 143.703L430.751 153.425C430.905 153.592 430.993 153.81 431 154.039C431.007 154.268 430.931 154.492 430.788 154.668C430.644 154.844 430.442 154.96 430.221 154.993C430 155.027 429.774 154.977 429.586 154.852Z" fill="#FFB7B7"/>
<path d="M425.77 164.992L424.628 164.936C424.53 164.932 424.438 164.889 424.371 164.817C424.303 164.745 424.265 164.649 424.265 164.55L424.185 152.716C424.185 152.659 424.196 152.604 424.219 152.553C424.241 152.501 424.274 152.456 424.316 152.419C424.357 152.382 424.406 152.355 424.458 152.339C424.511 152.323 424.566 152.319 424.621 152.327L429.191 153.006C429.282 153.019 429.365 153.065 429.424 153.135C429.484 153.206 429.517 153.296 429.518 153.389L430.106 164.355C430.106 164.406 430.096 164.457 430.077 164.505C430.058 164.552 430.03 164.596 429.995 164.632C429.96 164.669 429.917 164.698 429.871 164.717C429.825 164.737 429.775 164.747 429.725 164.747H428.493C428.402 164.748 428.314 164.715 428.245 164.654C428.176 164.594 428.13 164.51 428.117 164.418C428.117 164.418 427.186 156.193 427.058 156.198C426.93 156.2 426.167 164.649 426.167 164.649C426.155 164.743 426.11 164.831 426.041 164.894C425.971 164.957 425.881 164.992 425.788 164.993C425.782 164.993 425.776 164.992 425.77 164.992Z" fill="#2F2E41"/>
<path d="M429.174 146.844C429.128 146.81 429.09 146.766 429.063 146.715C429.036 146.664 429.02 146.608 429.017 146.549L428.873 143.874C428.858 143.609 428.941 143.348 429.103 143.141C429.266 142.934 429.498 142.796 429.754 142.754C430.01 142.712 430.272 142.768 430.49 142.912C430.708 143.056 430.866 143.277 430.934 143.533L431.567 145.926C431.594 146.026 431.58 146.132 431.53 146.222C431.48 146.311 431.397 146.377 431.299 146.404L429.497 146.904C429.442 146.92 429.385 146.922 429.329 146.912C429.273 146.901 429.22 146.878 429.174 146.844V146.844Z" fill="#3F3D56"/>
<path d="M427.491 140.485C428.639 140.485 429.57 139.532 429.57 138.356C429.57 137.181 428.639 136.228 427.491 136.228C426.342 136.228 425.412 137.181 425.412 138.356C425.412 139.532 426.342 140.485 427.491 140.485Z" fill="#FFB7B7"/>
<path d="M428.962 140.04C428.875 140.136 428.763 140.205 428.639 140.238C428.516 140.271 428.385 140.267 428.264 140.227C428.142 140.187 428.034 140.112 427.952 140.012C427.871 139.911 427.819 139.788 427.803 139.659C427.799 139.614 427.799 139.569 427.804 139.524C427.83 139.268 427.975 139.035 427.94 138.765C427.932 138.698 427.908 138.634 427.869 138.579C427.56 138.155 426.834 138.768 426.542 138.385C426.364 138.15 426.574 137.779 426.437 137.516C426.255 137.17 425.719 137.341 425.382 137.151C425.008 136.939 425.03 136.351 425.277 135.994C425.437 135.782 425.641 135.61 425.874 135.488C426.107 135.367 426.363 135.3 426.625 135.291C427.148 135.278 427.668 135.382 428.148 135.595C428.715 135.784 429.215 136.139 429.587 136.617C429.779 136.93 429.901 137.283 429.944 137.65C429.986 138.017 429.949 138.39 429.833 138.74C429.708 139.17 429.279 139.695 428.962 140.04Z" fill="#2F2E41"/>
<path d="M429.566 141.906C429.53 141.88 429.493 141.853 429.455 141.828C429.256 141.692 429.04 141.583 428.812 141.505V140.946H427.204V141.465C426.671 141.615 426.193 141.923 425.829 142.35C425.465 142.776 425.232 143.303 425.159 143.864L424.063 152.188C424.056 152.24 424.06 152.293 424.073 152.343C424.087 152.394 424.11 152.441 424.142 152.482C424.173 152.523 424.212 152.557 424.257 152.582C424.301 152.607 424.35 152.622 424.401 152.627C425.168 152.729 425.907 152.988 426.575 153.39C427.059 153.664 427.604 153.807 428.158 153.803C428.598 153.802 429.034 153.722 429.447 153.568C429.517 153.542 429.578 153.495 429.622 153.433C429.666 153.371 429.691 153.298 429.694 153.221C429.733 152.326 429.964 147.715 430.636 144.902C430.766 144.35 430.734 143.772 430.544 143.238C430.354 142.705 430.013 142.242 429.566 141.906Z" fill="#3F3D56"/>
<path d="M441.428 125.104H408.098L404.058 108.561H445.468L441.428 125.104Z" fill="#3F3D56"/>
<path d="M440.292 153.395H409.235V169.963H440.292V153.395Z" fill="white"/>
<path d="M440.544 170.222H408.982V153.136H440.544V170.222ZM409.487 169.705H440.039V153.653H409.487V169.705Z" fill="#3F3D56"/>
<path d="M431.129 127.055H418.397L416.936 124.704H432.59L431.129 127.055Z" fill="#3F3D56"/>
<path d="M408.856 125.104H408.351V150.435H408.856V125.104Z" fill="#3F3D56"/>
<path d="M441.175 125.104H440.67V150.435H441.175V125.104Z" fill="#3F3D56"/>
<path d="M429.825 108.28L429.517 107.871C444.105 96.3539 461.496 76.6237 461.496 48.032C461.508 38.0181 458.631 28.2235 453.226 19.8768C447.822 11.53 440.13 5.00255 431.116 1.11309L431.313 0.637024C440.418 4.56595 448.188 11.1596 453.647 19.5911C459.107 28.0226 462.013 37.9165 462.001 48.032C462.001 76.8337 444.503 96.6924 429.825 108.28Z" fill="#3F3D56"/>
<path d="M413.665 108.282L413.357 107.872C427.946 96.3552 445.336 76.625 445.336 48.0332C445.34 38.0866 442.498 28.3567 437.16 20.0454C431.823 11.734 424.224 5.20528 415.302 1.26563L415.502 0.791077C424.514 4.7707 432.191 11.3657 437.582 19.7614C442.974 28.1571 445.845 37.9857 445.841 48.0332C445.841 76.835 428.344 96.6939 413.665 108.282Z" fill="#3F3D56"/>
<path d="M434.346 108.281C419.667 96.6939 402.17 76.8351 402.17 48.0333C402.166 37.9857 405.037 28.157 410.429 19.7613C415.821 11.3656 423.497 4.77062 432.509 0.791077L432.71 1.26563C423.788 5.20521 416.189 11.7339 410.851 20.0453C405.513 28.3567 402.671 38.0866 402.675 48.0333C402.675 76.625 420.065 96.3553 434.654 107.872L434.346 108.281Z" fill="#3F3D56"/>
<path d="M418.186 108.28C403.508 96.6927 386.01 76.8341 386.01 48.0321C385.994 37.8767 388.92 27.9445 394.42 19.4923C399.919 11.04 407.744 4.44751 416.904 0.54895L417.098 1.02602C408.03 4.8854 400.284 11.4116 394.84 19.779C389.396 28.1463 386.499 37.9787 386.515 48.0321C386.515 76.6241 403.906 96.3542 418.495 107.871L418.186 108.28Z" fill="#3F3D56"/>
<path d="M424.258 0H423.753V108.561H424.258V0Z" fill="#3F3D56"/>
<path d="M418.316 149.638L409.056 159.118L409.413 159.483L418.673 150.004L418.316 149.638Z" fill="#3F3D56"/>
<path d="M422.818 149.48L409.052 164.3L409.418 164.657L423.184 149.836L422.818 149.48Z" fill="#3F3D56"/>
<path d="M443.195 149.659H405.321V154.312H443.195V149.659Z" fill="white"/>
<path d="M443.448 154.571H405.068V149.401H443.448V154.571ZM405.573 154.054H442.943V149.918H405.573V154.054Z" fill="#3F3D56"/>
<path d="M417.571 151.823C417.672 151.816 417.77 151.786 417.859 151.736C417.948 151.685 418.025 151.616 418.084 151.531C418.144 151.447 418.185 151.351 418.204 151.249C418.223 151.147 418.22 151.042 418.196 150.941L420.259 149.557L419.082 149.036L417.303 150.431C417.141 150.484 417.003 150.597 416.916 150.748C416.829 150.899 416.8 151.077 416.833 151.248C416.866 151.42 416.959 151.573 417.095 151.679C417.231 151.785 417.4 151.836 417.571 151.823H417.571Z" fill="#9F616A"/>
<path d="M419.556 150.826L419.53 150.808C419.039 150.437 418.494 150.055 417.966 149.685L417.935 149.663L417.96 149.633C419.085 148.285 420.212 146.877 421.302 145.515L421.299 145.51L421.31 145.504L421.314 145.499L421.316 145.501L421.323 145.498L421.293 145.5L420.957 142.804C420.791 142.523 420.706 142.2 420.713 141.872C420.719 141.544 420.816 141.225 420.994 140.952C421.197 140.657 421.5 140.449 421.844 140.369C422.188 140.288 422.549 140.341 422.858 140.516C423.01 140.62 423.138 140.759 423.231 140.921C423.324 141.083 423.38 141.264 423.395 141.451C423.417 141.618 423.402 141.787 423.351 141.947C423.301 142.107 423.216 142.254 423.103 142.376C423.219 143.685 423.27 144.998 423.256 146.312L423.256 146.325L423.249 146.335C422.087 147.846 420.811 149.348 419.577 150.802L419.556 150.826Z" fill="#CBCBCB"/>
<path d="M419.956 142.538C419.967 142.585 419.973 142.633 419.976 142.681L423.613 144.828L424.497 144.307L425.439 145.57L423.548 146.95L419.399 143.599C419.23 143.663 419.046 143.673 418.871 143.627C418.696 143.582 418.539 143.483 418.421 143.343C418.302 143.204 418.228 143.031 418.208 142.848C418.188 142.664 418.223 142.479 418.308 142.316C418.394 142.153 418.526 142.021 418.686 141.937C418.847 141.852 419.029 141.82 419.207 141.844C419.386 141.869 419.554 141.948 419.687 142.072C419.821 142.196 419.915 142.359 419.956 142.538H419.956Z" fill="#FFB7B7"/>
<path d="M423.743 144.645C423.737 144.587 423.744 144.528 423.762 144.474C423.781 144.419 423.812 144.369 423.852 144.328L425.703 142.433C425.887 142.245 426.131 142.134 426.39 142.12C426.649 142.106 426.904 142.191 427.106 142.358C427.307 142.525 427.441 142.762 427.482 143.024C427.523 143.287 427.467 143.555 427.326 143.778L426.008 145.857C425.953 145.943 425.866 146.004 425.768 146.026C425.669 146.047 425.566 146.028 425.481 145.972L423.914 144.931C423.867 144.899 423.827 144.857 423.797 144.808C423.767 144.758 423.749 144.703 423.743 144.645V144.645Z" fill="#3F3D56"/>
</svg>
