<svg width="1102" height="415" viewBox="0 0 1102 415" fill="none" xmlns="http://www.w3.org/2000/svg">
<path d="M220.873 292.282C237.598 292.282 251.155 278.724 251.155 262C251.155 245.276 237.598 231.718 220.873 231.718C204.149 231.718 190.592 245.276 190.592 262C190.592 278.724 204.149 292.282 220.873 292.282Z" fill="#FF6584"/>
<path d="M521.014 401.884C519.234 403.486 517.361 404.983 515.405 406.366C510.763 409.63 505.748 412.327 500.465 414.398C478.511 413.87 446.236 411.176 405.497 409.739C402.458 408.701 399.35 407.576 396.173 406.366C391.968 404.764 418.446 411.98 414 410.061C395.535 402.082 261.205 404.982 242.427 401.884C238.392 401.218 318.937 383.584 314.923 383.109C230.127 372.968 331.5 409.739 142.873 406.366H142L147.57 395.577L242.352 212L264.518 268.908L271.592 287.074L291.088 260.32L301.155 246.507L347 299.067L359.958 270.451L449.669 343.662L454.673 347.743L459.736 351.877L461.349 353.194L509.31 392.334L521.014 401.884Z" fill="#F2F2F2"/>
<path opacity="0.1" d="M233.901 248.972L243.056 228.902L255.732 258.127L244.817 237L233.901 248.972Z" fill="black"/>
<path opacity="0.1" d="M326.997 384.82C322.962 384.155 318.937 383.585 314.923 383.109L271.592 287.074L326.997 384.82Z" fill="black"/>
<path opacity="0.1" d="M291.089 260.32L301.155 252.493L346.93 305.31L300.451 260.24L291.089 260.32Z" fill="black"/>
<path opacity="0.1" d="M346.999 299.066L438.479 386.648L425.966 389.599L346.999 299.066Z" fill="black"/>
<path d="M814.988 244.725C836.094 244.725 853.204 227.805 853.204 206.932C853.204 186.06 836.094 169.139 814.988 169.139C793.882 169.139 776.771 186.06 776.771 206.932C776.771 227.805 793.882 244.725 814.988 244.725Z" fill="#FF6584"/>
<path d="M800.47 358.03H799.062V412.999H800.47V358.03Z" fill="#3F3D56"/>
<path d="M813.456 365.035C813.546 384.256 799.871 399.901 799.871 399.901C799.871 399.901 786.051 384.382 785.961 365.16C785.872 345.939 799.546 330.295 799.546 330.295C799.546 330.295 813.366 345.814 813.456 365.035Z" fill="#1A5AFF"/>
<path opacity="0.1" d="M813.456 365.035C813.546 384.256 799.871 399.901 799.871 399.901C799.871 399.901 786.051 384.382 785.961 365.16C785.872 345.939 799.546 330.295 799.546 330.295C799.546 330.295 813.366 345.814 813.456 365.035Z" fill="black"/>
<path opacity="0.4" d="M534.521 248.741C546.664 248.741 556.508 239.007 556.508 226.999C556.508 214.991 546.664 205.256 534.521 205.256C522.379 205.256 512.535 214.991 512.535 226.999C512.535 239.007 522.379 248.741 534.521 248.741Z" fill="#1A5AFF"/>
<path opacity="0.4" d="M493.832 252.635C502.35 252.635 509.255 245.807 509.255 237.383C509.255 228.96 502.35 222.131 493.832 222.131C485.314 222.131 478.409 228.96 478.409 237.383C478.409 245.807 485.314 252.635 493.832 252.635Z" fill="#1A5AFF"/>
<path opacity="0.4" d="M134.423 367.505C142.941 367.505 149.846 360.676 149.846 352.252C149.846 343.829 142.941 337 134.423 337C125.905 337 119 343.829 119 352.252C119 360.676 125.905 367.505 134.423 367.505Z" fill="#1A5AFF"/>
<path opacity="0.4" d="M784.507 246.953C796.649 246.953 806.493 237.218 806.493 225.21C806.493 213.202 796.649 203.468 784.507 203.468C772.364 203.468 762.521 213.202 762.521 225.21C762.521 237.218 772.364 246.953 784.507 246.953Z" fill="#1A5AFF"/>
<path d="M221.845 406.887C223.037 411.244 227.12 413.942 227.12 413.942C227.12 413.942 229.27 409.577 228.078 405.22C226.886 400.863 222.803 398.164 222.803 398.164C222.803 398.164 220.653 402.53 221.845 406.887Z" fill="#3F3D56"/>
<path d="M223.597 405.95C226.868 409.099 227.267 413.939 227.267 413.939C227.267 413.939 222.364 413.674 219.094 410.525C215.823 407.377 215.424 402.537 215.424 402.537C215.424 402.537 220.327 402.802 223.597 405.95Z" fill="#1A5AFF"/>
<path d="M652.453 406.887C653.645 411.244 657.727 413.942 657.727 413.942C657.727 413.942 659.877 409.577 658.685 405.22C657.493 400.863 653.411 398.164 653.411 398.164C653.411 398.164 651.261 402.53 652.453 406.887Z" fill="#3F3D56"/>
<path d="M654.204 405.95C657.474 409.099 657.874 413.939 657.874 413.939C657.874 413.939 652.971 413.674 649.7 410.525C646.43 407.377 646.03 402.537 646.03 402.537C646.03 402.537 650.933 402.802 654.204 405.95Z" fill="#1A5AFF"/>
<path d="M229.942 374.135L227.031 369.338L254.2 346.308H324.064V353.024L298.836 379.893L269.725 385.65L229.942 374.135Z" fill="#3F3D56"/>
<path d="M336.091 359.822V344.809H326.944V349.543L324.065 346.307L300.777 369.337L296.895 373.175L292.044 392.367L300.777 413.477H345.412V370.297L336.091 359.822Z" fill="#CCCCCC"/>
<path d="M300.776 369.338H227.031V413.478H300.776V369.338Z" fill="#F2F2F2"/>
<path d="M290.588 383.251H275.062V396.685H290.588V383.251Z" fill="#3F3D56"/>
<path d="M268.754 382.771H255.17V413.477H268.754V382.771Z" fill="#CCCCCC"/>
<path d="M239.645 387.569V382.771H233.823V387.569H239.159H239.645Z" fill="#3F3D56"/>
<path d="M239.159 391.407H233.823V396.206H239.645V391.407H239.159Z" fill="#3F3D56"/>
<path d="M249.348 382.771H243.526V387.569H249.348V382.771Z" fill="#3F3D56"/>
<path d="M249.348 391.407H243.526V396.205H249.348V391.407Z" fill="#3F3D56"/>
<path d="M321.639 388.05V383.251H315.816V388.05H321.153H321.639Z" fill="#3F3D56"/>
<path d="M321.153 391.887H315.816V396.685H321.639V391.887H321.153Z" fill="#3F3D56"/>
<path d="M331.342 383.251H325.52V388.049H331.342V383.251Z" fill="#3F3D56"/>
<path d="M331.342 391.887H325.52V396.685H331.342V391.887Z" fill="#3F3D56"/>
<path d="M510.68 374.135L507.77 369.338L534.939 346.308H604.802V353.024L579.574 379.893L550.464 385.65L510.68 374.135Z" fill="#3F3D56"/>
<path d="M616.828 359.822V344.809H607.682V349.543L604.802 346.307L581.514 369.337L577.633 373.175L572.781 392.367L581.514 413.477H626.149V370.297L616.828 359.822Z" fill="#CCCCCC"/>
<path d="M581.514 369.338H507.77V413.478H581.514V369.338Z" fill="#F2F2F2"/>
<path d="M571.326 383.251H555.801V396.685H571.326V383.251Z" fill="#3F3D56"/>
<path d="M549.494 382.771H535.909V413.477H549.494V382.771Z" fill="#CCCCCC"/>
<path d="M520.384 387.569V382.771H514.562V387.569H519.899H520.384Z" fill="#3F3D56"/>
<path d="M519.899 391.407H514.562V396.206H520.384V391.407H519.899Z" fill="#3F3D56"/>
<path d="M530.088 382.771H524.266V387.569H530.088V382.771Z" fill="#3F3D56"/>
<path d="M530.088 391.407H524.266V396.205H530.088V391.407Z" fill="#3F3D56"/>
<path d="M602.376 388.05V383.251H596.554V388.05H601.891H602.376Z" fill="#3F3D56"/>
<path d="M601.891 391.887H596.554V396.685H602.376V391.887H601.891Z" fill="#3F3D56"/>
<path d="M612.08 383.251H606.258V388.049H612.08V383.251Z" fill="#3F3D56"/>
<path d="M612.08 391.887H606.258V396.685H612.08V391.887Z" fill="#3F3D56"/>
<path d="M379.373 293.531L374.521 289.693L401.691 265.703H470.583V286.814L425.949 316.561L379.373 293.531Z" fill="#3F3D56"/>
<path d="M483.144 279.16V266.183H473.997V269.361L470.583 265.703L448.266 289.693L439.533 295.45L425.992 393.283L446.413 413.478H493.871V290.652L483.144 279.16Z" fill="#CCCCCC"/>
<path d="M448.266 289.693H374.521V413.478H448.266V289.693Z" fill="#F2F2F2"/>
<path d="M416.73 383.251H403.146V413.478H416.73V383.251Z" fill="#CCCCCC"/>
<path d="M388.591 391.888V387.09H382.77V391.888H388.106H388.591Z" fill="#3F3D56"/>
<path d="M388.106 395.726H382.77V400.524H388.591V395.726H388.106Z" fill="#3F3D56"/>
<path d="M398.295 387.089H392.473V391.887H398.295V387.089Z" fill="#3F3D56"/>
<path d="M398.295 395.726H392.473V400.523H398.295V395.726Z" fill="#3F3D56"/>
<path d="M428.374 391.888V387.09H422.553V391.888H427.89H428.374Z" fill="#3F3D56"/>
<path d="M427.89 395.726H422.553V400.524H428.374V395.726H427.89Z" fill="#3F3D56"/>
<path d="M438.078 387.089H432.256V391.887H438.078V387.089Z" fill="#3F3D56"/>
<path d="M438.078 395.726H432.256V400.523H438.078V395.726Z" fill="#3F3D56"/>
<path d="M469.127 295.93V291.133H463.306V295.93H468.643H469.127Z" fill="#3F3D56"/>
<path d="M468.643 299.769H463.306V304.566H469.127V299.769H468.643Z" fill="#3F3D56"/>
<path d="M478.832 291.133H473.01V295.93H478.832V291.133Z" fill="#3F3D56"/>
<path d="M478.832 299.769H473.01V304.567H478.832V299.769Z" fill="#3F3D56"/>
<path d="M469.127 322.799V318H463.306V322.799H468.643H469.127Z" fill="#3F3D56"/>
<path d="M468.643 326.637H463.306V331.434H469.127V326.637H468.643Z" fill="#3F3D56"/>
<path d="M478.832 318H473.01V322.798H478.832V318Z" fill="#3F3D56"/>
<path d="M478.832 326.637H473.01V331.435H478.832V326.637Z" fill="#3F3D56"/>
<path d="M469.127 349.667V344.868H463.306V349.667H468.643H469.127Z" fill="#3F3D56"/>
<path d="M468.643 353.505H463.306V358.302H469.127V353.505H468.643Z" fill="#3F3D56"/>
<path d="M478.832 344.868H473.01V349.666H478.832V344.868Z" fill="#3F3D56"/>
<path d="M478.832 353.505H473.01V358.303H478.832V353.505Z" fill="#3F3D56"/>
<path d="M469.127 376.535V371.736H463.306V376.535H468.643H469.127Z" fill="#3F3D56"/>
<path d="M468.643 380.373H463.306V385.17H469.127V380.373H468.643Z" fill="#3F3D56"/>
<path d="M478.832 371.736H473.01V376.534H478.832V371.736Z" fill="#3F3D56"/>
<path d="M478.832 380.373H473.01V385.17H478.832V380.373Z" fill="#3F3D56"/>
<path d="M439.048 295.93H382.77V307.445H439.048V295.93Z" fill="#3F3D56"/>
<path d="M439.048 318.96H382.77V330.475H439.048V318.96Z" fill="#3F3D56"/>
<path d="M439.048 341.99H382.77V353.505H439.048V341.99Z" fill="#3F3D56"/>
<path d="M439.048 365.02H382.77V376.534H439.048V365.02Z" fill="#3F3D56"/>
<path d="M662.926 293.531L658.074 289.693L685.243 265.703H754.136V286.814L709.501 316.561L662.926 293.531Z" fill="#3F3D56"/>
<path d="M766.697 279.16V266.183H757.55V269.361L754.136 265.703L731.818 289.693L723.086 295.45L709.545 393.283L729.966 413.478H777.424V290.652L766.697 279.16Z" fill="#CCCCCC"/>
<path d="M731.818 289.693H658.073V413.478H731.818V289.693Z" fill="#F2F2F2"/>
<path d="M700.283 383.251H686.698V413.478H700.283V383.251Z" fill="#CCCCCC"/>
<path d="M672.143 391.888V387.09H666.321V391.888H671.658H672.143Z" fill="#3F3D56"/>
<path d="M671.658 395.726H666.321V400.524H672.143V395.726H671.658Z" fill="#3F3D56"/>
<path d="M681.846 387.089H676.024V391.887H681.846V387.089Z" fill="#3F3D56"/>
<path d="M681.846 395.726H676.024V400.523H681.846V395.726Z" fill="#3F3D56"/>
<path d="M711.926 391.888V387.09H706.104V391.888H711.441H711.926Z" fill="#3F3D56"/>
<path d="M711.441 395.726H706.104V400.524H711.926V395.726H711.441Z" fill="#3F3D56"/>
<path d="M721.63 387.089H715.808V391.887H721.63V387.089Z" fill="#3F3D56"/>
<path d="M721.63 395.726H715.808V400.523H721.63V395.726Z" fill="#3F3D56"/>
<path d="M752.68 295.93V291.133H746.858V295.93H752.195H752.68Z" fill="#3F3D56"/>
<path d="M752.195 299.769H746.858V304.566H752.68V299.769H752.195Z" fill="#3F3D56"/>
<path d="M762.383 291.133H756.562V295.93H762.383V291.133Z" fill="#3F3D56"/>
<path d="M762.383 299.769H756.562V304.567H762.383V299.769Z" fill="#3F3D56"/>
<path d="M752.68 322.799V318H746.858V322.799H752.195H752.68Z" fill="#3F3D56"/>
<path d="M752.195 326.637H746.858V331.434H752.68V326.637H752.195Z" fill="#3F3D56"/>
<path d="M762.383 318H756.562V322.798H762.383V318Z" fill="#3F3D56"/>
<path d="M762.383 326.637H756.562V331.435H762.383V326.637Z" fill="#3F3D56"/>
<path d="M752.68 349.667V344.868H746.858V349.667H752.195H752.68Z" fill="#3F3D56"/>
<path d="M752.195 353.505H746.858V358.302H752.68V353.505H752.195Z" fill="#3F3D56"/>
<path d="M762.383 344.868H756.562V349.666H762.383V344.868Z" fill="#3F3D56"/>
<path d="M762.383 353.505H756.562V358.303H762.383V353.505Z" fill="#3F3D56"/>
<path d="M752.68 376.535V371.736H746.858V376.535H752.195H752.68Z" fill="#3F3D56"/>
<path d="M752.195 380.373H746.858V385.17H752.68V380.373H752.195Z" fill="#3F3D56"/>
<path d="M762.383 371.736H756.562V376.534H762.383V371.736Z" fill="#3F3D56"/>
<path d="M762.383 380.373H756.562V385.17H762.383V380.373Z" fill="#3F3D56"/>
<path d="M722.6 295.93H666.321V307.445H722.6V295.93Z" fill="#3F3D56"/>
<path d="M722.6 318.96H666.321V330.475H722.6V318.96Z" fill="#3F3D56"/>
<path d="M722.6 341.99H666.321V353.505H722.6V341.99Z" fill="#3F3D56"/>
<path d="M722.6 365.02H666.321V376.534H722.6V365.02Z" fill="#3F3D56"/>
<path d="M818.422 293.531L813.57 289.693L840.739 265.703H909.632V286.814L864.998 316.561L818.422 293.531Z" fill="#3F3D56"/>
<path d="M922.194 279.16V266.183H913.047V269.361L909.633 265.703L887.315 289.693L878.583 295.45L865.042 393.283L885.463 413.478H932.921V290.652L922.194 279.16Z" fill="#CCCCCC"/>
<path d="M887.315 289.693H813.57V413.478H887.315V289.693Z" fill="#F2F2F2"/>
<path d="M855.78 383.251H842.195V413.478H855.78V383.251Z" fill="#CCCCCC"/>
<path d="M827.64 391.888V387.09H821.818V391.888H827.155H827.64Z" fill="#3F3D56"/>
<path d="M827.155 395.726H821.818V400.524H827.64V395.726H827.155Z" fill="#3F3D56"/>
<path d="M837.344 387.089H831.521V391.887H837.344V387.089Z" fill="#3F3D56"/>
<path d="M837.344 395.726H831.521V400.523H837.344V395.726Z" fill="#3F3D56"/>
<path d="M867.423 391.888V387.09H861.602V391.888H866.938H867.423Z" fill="#3F3D56"/>
<path d="M866.938 395.726H861.602V400.524H867.423V395.726H866.938Z" fill="#3F3D56"/>
<path d="M877.127 387.089H871.305V391.887H877.127V387.089Z" fill="#3F3D56"/>
<path d="M877.127 395.726H871.305V400.523H877.127V395.726Z" fill="#3F3D56"/>
<path d="M908.177 295.93V291.133H902.355V295.93H907.692H908.177Z" fill="#3F3D56"/>
<path d="M907.692 299.769H902.355V304.566H908.177V299.769H907.692Z" fill="#3F3D56"/>
<path d="M917.88 291.133H912.059V295.93H917.88V291.133Z" fill="#3F3D56"/>
<path d="M917.88 299.769H912.059V304.567H917.88V299.769Z" fill="#3F3D56"/>
<path d="M908.177 322.799V318H902.355V322.799H907.692H908.177Z" fill="#3F3D56"/>
<path d="M907.692 326.637H902.355V331.434H908.177V326.637H907.692Z" fill="#3F3D56"/>
<path d="M917.88 318H912.059V322.798H917.88V318Z" fill="#3F3D56"/>
<path d="M917.88 326.637H912.059V331.435H917.88V326.637Z" fill="#3F3D56"/>
<path d="M908.177 349.667V344.868H902.355V349.667H907.692H908.177Z" fill="#3F3D56"/>
<path d="M907.692 353.505H902.355V358.302H908.177V353.505H907.692Z" fill="#3F3D56"/>
<path d="M917.88 344.868H912.059V349.666H917.88V344.868Z" fill="#3F3D56"/>
<path d="M917.88 353.505H912.059V358.303H917.88V353.505Z" fill="#3F3D56"/>
<path d="M908.177 376.535V371.736H902.355V376.535H907.692H908.177Z" fill="#3F3D56"/>
<path d="M907.692 380.373H902.355V385.17H908.177V380.373H907.692Z" fill="#3F3D56"/>
<path d="M917.88 371.736H912.059V376.534H917.88V371.736Z" fill="#3F3D56"/>
<path d="M917.88 380.373H912.059V385.17H917.88V380.373Z" fill="#3F3D56"/>
<path d="M878.097 295.93H821.818V307.445H878.097V295.93Z" fill="#3F3D56"/>
<path d="M878.097 318.96H821.818V330.475H878.097V318.96Z" fill="#3F3D56"/>
<path d="M878.097 341.99H821.818V353.505H878.097V341.99Z" fill="#3F3D56"/>
<path d="M878.097 365.02H821.818V376.534H878.097V365.02Z" fill="#3F3D56"/>
<path d="M982 412.999H182V414H982V412.999Z" fill="#3F3D56" fill-opacity="0.3"/>
<path d="M360.717 358.03H359.31V412.999H360.717V358.03Z" fill="#3F3D56"/>
<path d="M373.704 365.035C373.794 384.256 360.119 399.901 360.119 399.901C360.119 399.901 346.299 384.382 346.209 365.16C346.12 345.939 359.795 330.295 359.795 330.295C359.795 330.295 373.615 345.814 373.704 365.035Z" fill="#1A5AFF"/>
<path d="M501.438 358.03H500.03V412.999H501.438V358.03Z" fill="#3F3D56"/>
<path d="M514.425 365.035C514.514 384.256 500.84 399.901 500.84 399.901C500.84 399.901 487.02 384.382 486.93 365.16C486.841 345.939 500.515 330.295 500.515 330.295C500.515 330.295 514.335 345.814 514.425 365.035Z" fill="#1A5AFF"/>
<path d="M782.176 358.03H780.769V412.999H782.176V358.03Z" fill="#3F3D56"/>
<path d="M795.163 365.035C795.253 384.256 781.578 399.901 781.578 399.901C781.578 399.901 767.758 384.382 767.668 365.16C767.579 345.939 781.254 330.295 781.254 330.295C781.254 330.295 795.073 345.814 795.163 365.035Z" fill="#1A5AFF"/>
<path d="M248.18 150.127L257 143.136C250.148 142.386 247.333 146.09 246.18 149.021C240.827 146.818 235 149.705 235 149.705L252.647 156.055C251.757 153.698 250.207 151.642 248.18 150.127Z" fill="#3F3D56"/>
<path d="M460.338 173.704L469.158 166.713C462.306 165.964 459.491 169.667 458.339 172.599C452.986 170.396 447.158 173.283 447.158 173.283L464.806 179.632C463.915 177.275 462.366 175.219 460.338 173.704Z" fill="#3F3D56"/>
<path d="M365.181 235.238L374.001 228.246C367.149 227.497 364.334 231.201 363.181 234.132C357.828 231.929 352.001 234.816 352.001 234.816L369.648 241.165C368.758 238.809 367.208 236.752 365.181 235.238Z" fill="#3F3D56"/>
<path d="M1093.18 7.08919L1102 0.0979084C1095.15 -0.651278 1092.33 3.05219 1091.18 5.98351C1085.83 3.78063 1080 6.66762 1080 6.66762L1097.65 13.0169C1096.76 10.6603 1095.21 8.60399 1093.18 7.08919V7.08919Z" fill="#3F3D56"/>
<path d="M1007.18 303.089L1016 296.098C1009.15 295.349 1006.33 299.052 1005.18 301.984C999.827 299.781 994 302.668 994 302.668L1011.65 309.017C1010.76 306.66 1009.21 304.604 1007.18 303.089V303.089Z" fill="#3F3D56"/>
<path d="M617.18 279.089L626 272.098C619.148 271.349 616.333 275.052 615.18 277.984C609.827 275.781 604 278.668 604 278.668L621.647 285.017C620.757 282.66 619.207 280.604 617.18 279.089V279.089Z" fill="#3F3D56"/>
<path d="M663.18 199.089L672 192.098C665.148 191.349 662.333 195.052 661.18 197.984C655.827 195.781 650 198.668 650 198.668L667.647 205.017C666.757 202.66 665.207 200.604 663.18 199.089V199.089Z" fill="#3F3D56"/>
<path d="M1020.69 229.434H1019.84L1019.44 226.092H1020.69V229.434Z" fill="#9F616A"/>
<path d="M1020.9 230.275H1018.17V230.239C1018.18 229.951 1018.29 229.675 1018.49 229.471C1018.69 229.267 1018.96 229.152 1019.24 229.152H1020.9V230.275Z" fill="#2F2E41"/>
<path d="M1031.6 227.792L1030.88 228.239L1028.85 225.586L1029.92 224.927L1031.6 227.792Z" fill="#9F616A"/>
<path d="M1029.87 229.838L1029.85 229.808C1029.71 229.56 1029.67 229.264 1029.73 228.985C1029.8 228.705 1029.98 228.464 1030.22 228.316L1031.65 227.437L1032.21 228.399L1029.87 229.838Z" fill="#2F2E41"/>
<path d="M1020.91 228.745L1020.89 228.745C1020.48 228.744 1020.07 228.719 1019.66 228.672C1019.51 228.657 1019.34 228.64 1019.13 228.622L1019.13 228.621C1018.99 228.579 1018.98 227.244 1019.04 222.673C1019.07 220.332 1019.11 217.679 1019.07 215.99L1019.07 215.973L1019.08 215.962C1019.81 215.301 1020.69 214.828 1021.64 214.582C1022.59 214.335 1023.58 214.322 1024.54 214.543L1024.55 214.546L1024.56 214.56C1025.39 216.001 1026.65 218.076 1027.86 220.083C1030.65 224.691 1031.45 226.046 1031.36 226.148L1031.35 226.156C1031.16 226.254 1031.02 226.329 1030.9 226.393C1030.41 226.648 1029.92 226.876 1029.41 227.076L1029.39 227.086L1029.38 227.067C1026.55 223.894 1024.19 220.349 1022.74 217.071C1022.57 218.19 1022.36 219.651 1022.14 221.195C1021.51 225.634 1021.09 228.556 1020.92 228.734L1020.91 228.745Z" fill="#2F2E41"/>
<path d="M1021.67 216.331C1023.36 216.323 1025.03 216.611 1026.63 217.18C1026.68 214.443 1025.79 211.775 1024.1 209.652L1024.08 209.637L1024.09 209.618C1024.54 208.303 1024.99 206.945 1025.41 205.593L1025.4 205.57C1025.11 204.522 1024.49 203.463 1023.51 202.333C1023.4 202.22 1023.26 202.153 1023.11 202.145C1022.95 202.137 1022.8 202.189 1022.68 202.29C1021.82 203.097 1021.15 204.093 1020.72 205.204C1020.29 206.315 1020.12 207.512 1020.2 208.703L1020.2 208.71L1020.2 208.717C1019.43 211.387 1019.15 212.758 1018.91 213.968C1018.73 214.851 1018.57 215.615 1018.26 216.707C1019.38 216.457 1020.52 216.331 1021.67 216.331Z" fill="#CBCBCB"/>
<path opacity="0.1" d="M1024.15 207.891L1021.65 213.472L1020.22 211.99L1024.15 207.891Z" fill="black"/>
<path d="M1023.08 201.79C1024.07 201.79 1024.87 200.973 1024.87 199.966C1024.87 198.959 1024.07 198.142 1023.08 198.142C1022.1 198.142 1021.3 198.959 1021.3 199.966C1021.3 200.973 1022.1 201.79 1023.08 201.79Z" fill="#9F616A"/>
<path d="M1020.92 198.935H1023.75V197.672C1023.13 197.42 1022.52 197.205 1022.16 197.672C1021.83 197.672 1021.52 197.805 1021.28 198.042C1021.05 198.279 1020.92 198.6 1020.92 198.935Z" fill="#2F2E41"/>
<path d="M1023.91 197.449C1025.6 197.449 1026.07 199.62 1026.07 200.844C1026.07 201.527 1025.77 201.771 1025.3 201.854L1025.13 200.94L1024.74 201.893C1024.61 201.894 1024.47 201.891 1024.32 201.889L1024.19 201.608L1023.89 201.884C1022.7 201.885 1021.74 202.063 1021.74 200.844C1021.74 199.62 1022.16 197.449 1023.91 197.449Z" fill="#2F2E41"/>
<path d="M1075 113.179C1075 161.256 1025.76 184.261 1025.76 184.261C1025.76 184.261 976.021 161.256 975.011 113.179C974.418 84.9201 997.394 62 1025.01 62C1052.62 62 1075 84.9136 1075 113.179Z" fill="#1A5AFF"/>
<path d="M1026.82 229.057H1025.78L1025.29 224.959H1026.82V229.057Z" fill="#FFB7B7"/>
<path d="M1025.04 228.753H1027.04V230.043H1023.78C1023.78 229.874 1023.81 229.706 1023.88 229.549C1023.94 229.393 1024.03 229.251 1024.15 229.131C1024.27 229.011 1024.41 228.916 1024.56 228.851C1024.71 228.786 1024.88 228.753 1025.04 228.753Z" fill="#2F2E41"/>
<path d="M1030.71 229.057H1029.68L1029.18 224.959H1030.71L1030.71 229.057Z" fill="#FFB7B7"/>
<path d="M1028.93 228.753H1030.94V230.043H1027.67C1027.67 229.701 1027.81 229.373 1028.04 229.131C1028.28 228.889 1028.6 228.753 1028.93 228.753Z" fill="#2F2E41"/>
<path d="M1030.59 216.852C1030.47 216.778 1030.38 216.68 1030.31 216.565C1030.24 216.45 1030.19 216.32 1030.18 216.185C1030.16 216.05 1030.17 215.913 1030.21 215.783C1030.25 215.654 1030.32 215.535 1030.41 215.435L1029.73 205.508L1031.7 205.703L1031.75 215.425C1031.9 215.592 1031.99 215.81 1032 216.039C1032.01 216.268 1031.93 216.492 1031.79 216.668C1031.64 216.844 1031.44 216.96 1031.22 216.993C1031 217.027 1030.77 216.977 1030.59 216.852Z" fill="#FFB7B7"/>
<path d="M1026.77 226.992L1025.63 226.936C1025.53 226.932 1025.44 226.889 1025.37 226.817C1025.3 226.745 1025.27 226.649 1025.27 226.55L1025.19 214.716C1025.19 214.66 1025.2 214.604 1025.22 214.553C1025.24 214.502 1025.27 214.456 1025.32 214.419C1025.36 214.382 1025.41 214.355 1025.46 214.339C1025.51 214.323 1025.57 214.319 1025.62 214.327L1030.19 215.006C1030.28 215.019 1030.36 215.065 1030.42 215.135C1030.48 215.206 1030.52 215.296 1030.52 215.389L1031.11 226.355C1031.11 226.406 1031.1 226.457 1031.08 226.505C1031.06 226.552 1031.03 226.596 1031 226.632C1030.96 226.669 1030.92 226.698 1030.87 226.718C1030.83 226.737 1030.78 226.748 1030.73 226.748H1029.49C1029.4 226.748 1029.31 226.715 1029.25 226.654C1029.18 226.594 1029.13 226.51 1029.12 226.418C1029.12 226.418 1028.19 218.193 1028.06 218.198C1027.93 218.2 1027.17 226.649 1027.17 226.649C1027.16 226.744 1027.11 226.831 1027.04 226.894C1026.97 226.957 1026.88 226.992 1026.79 226.993C1026.78 226.993 1026.78 226.992 1026.77 226.992Z" fill="#2F2E41"/>
<path d="M1030.17 208.844C1030.13 208.81 1030.09 208.766 1030.06 208.715C1030.04 208.664 1030.02 208.608 1030.02 208.55L1029.87 205.874C1029.86 205.609 1029.94 205.348 1030.1 205.141C1030.27 204.934 1030.5 204.796 1030.75 204.754C1031.01 204.712 1031.27 204.768 1031.49 204.912C1031.71 205.056 1031.87 205.277 1031.93 205.534L1032.57 207.926C1032.59 208.026 1032.58 208.132 1032.53 208.222C1032.48 208.311 1032.4 208.377 1032.3 208.404L1030.5 208.904C1030.44 208.92 1030.38 208.922 1030.33 208.912C1030.27 208.901 1030.22 208.878 1030.17 208.844Z" fill="#3F3D56"/>
<path d="M1028.49 202.485C1029.64 202.485 1030.57 201.532 1030.57 200.356C1030.57 199.181 1029.64 198.228 1028.49 198.228C1027.34 198.228 1026.41 199.181 1026.41 200.356C1026.41 201.532 1027.34 202.485 1028.49 202.485Z" fill="#FFB7B7"/>
<path d="M1029.96 202.04C1029.87 202.136 1029.76 202.205 1029.64 202.238C1029.52 202.271 1029.39 202.267 1029.26 202.227C1029.14 202.187 1029.03 202.112 1028.95 202.012C1028.87 201.911 1028.82 201.788 1028.8 201.659C1028.8 201.614 1028.8 201.569 1028.8 201.524C1028.83 201.268 1028.97 201.035 1028.94 200.765C1028.93 200.698 1028.91 200.634 1028.87 200.579C1028.56 200.155 1027.83 200.768 1027.54 200.385C1027.36 200.15 1027.57 199.779 1027.44 199.516C1027.26 199.17 1026.72 199.341 1026.38 199.151C1026.01 198.939 1026.03 198.351 1026.28 197.994C1026.44 197.782 1026.64 197.61 1026.87 197.488C1027.11 197.367 1027.36 197.3 1027.62 197.291C1028.15 197.278 1028.67 197.382 1029.15 197.595C1029.71 197.784 1030.22 198.139 1030.59 198.617C1030.78 198.93 1030.9 199.283 1030.94 199.65C1030.99 200.017 1030.95 200.39 1030.83 200.74C1030.71 201.17 1030.28 201.695 1029.96 202.04Z" fill="#2F2E41"/>
<path d="M1030.57 203.906C1030.53 203.879 1030.49 203.853 1030.46 203.828C1030.26 203.692 1030.04 203.583 1029.81 203.505V202.946H1028.2V203.465C1027.67 203.615 1027.19 203.923 1026.83 204.35C1026.47 204.776 1026.23 205.303 1026.16 205.864L1025.06 214.188C1025.06 214.24 1025.06 214.293 1025.07 214.343C1025.09 214.394 1025.11 214.441 1025.14 214.482C1025.17 214.523 1025.21 214.557 1025.26 214.582C1025.3 214.607 1025.35 214.622 1025.4 214.627C1026.17 214.729 1026.91 214.988 1027.57 215.39C1028.06 215.664 1028.6 215.807 1029.16 215.803C1029.6 215.802 1030.03 215.722 1030.45 215.568C1030.52 215.542 1030.58 215.495 1030.62 215.433C1030.67 215.371 1030.69 215.298 1030.69 215.221C1030.73 214.326 1030.96 209.715 1031.64 206.902C1031.77 206.35 1031.73 205.771 1031.54 205.238C1031.35 204.705 1031.01 204.242 1030.57 203.906Z" fill="#3F3D56"/>
<path d="M1042.43 187.104H1009.1L1005.06 170.561H1046.47L1042.43 187.104Z" fill="#3F3D56"/>
<path d="M1041.29 215.395H1010.23V231.963H1041.29V215.395Z" fill="white"/>
<path d="M1041.54 232.222H1009.98V215.136H1041.54V232.222ZM1010.49 231.705H1041.04V215.653H1010.49V231.705Z" fill="#3F3D56"/>
<path d="M1032.13 189.055H1019.4L1017.94 186.704H1033.59L1032.13 189.055Z" fill="#3F3D56"/>
<path d="M1009.86 187.104H1009.35V212.435H1009.86V187.104Z" fill="#3F3D56"/>
<path d="M1042.17 187.104H1041.67V212.435H1042.17V187.104Z" fill="#3F3D56"/>
<path d="M1030.82 170.28L1030.52 169.871C1045.11 158.354 1062.5 138.624 1062.5 110.032C1062.51 100.018 1059.63 90.2235 1054.23 81.8767C1048.82 73.5299 1041.13 67.0025 1032.12 63.113L1032.31 62.637C1041.42 66.5659 1049.19 73.1596 1054.65 81.591C1060.11 90.0225 1063.01 99.9164 1063 110.032C1063 138.834 1045.5 158.692 1030.82 170.28Z" fill="#3F3D56"/>
<path d="M1014.66 170.281L1014.36 169.872C1028.95 158.355 1046.34 138.625 1046.34 110.033C1046.34 100.087 1043.5 90.3566 1038.16 82.0453C1032.82 73.7339 1025.22 67.2052 1016.3 63.2656L1016.5 62.791C1025.51 66.7706 1033.19 73.3656 1038.58 81.7613C1043.97 90.157 1046.84 99.9856 1046.84 110.033C1046.84 138.835 1029.34 158.694 1014.66 170.281Z" fill="#3F3D56"/>
<path d="M1035.35 170.281C1020.67 158.694 1003.17 138.835 1003.17 110.033C1003.17 99.9857 1006.04 90.157 1011.43 81.7612C1016.82 73.3655 1024.5 66.7706 1033.51 62.791L1033.71 63.2656C1024.79 67.2051 1017.19 73.7339 1011.85 82.0452C1006.51 90.3566 1003.67 100.087 1003.67 110.033C1003.67 138.625 1021.07 158.355 1035.65 169.872L1035.35 170.281Z" fill="#3F3D56"/>
<path d="M1019.19 170.28C1004.51 158.693 987.01 138.834 987.01 110.032C986.993 99.8766 989.92 89.9444 995.419 81.4921C1000.92 73.0399 1008.74 66.4474 1017.9 62.5488L1018.1 63.0259C1009.03 66.8853 1001.28 73.4115 995.84 81.7789C990.396 90.1462 987.499 99.9786 987.515 110.032C987.515 138.624 1004.91 158.354 1019.49 169.871L1019.19 170.28Z" fill="#3F3D56"/>
<path d="M1025.26 62H1024.75V170.561H1025.26V62Z" fill="#3F3D56"/>
<path d="M1019.32 211.638L1010.06 221.118L1010.41 221.483L1019.67 212.004L1019.32 211.638Z" fill="#3F3D56"/>
<path d="M1023.82 211.48L1010.05 226.301L1010.42 226.657L1024.18 211.836L1023.82 211.48Z" fill="#3F3D56"/>
<path d="M1044.2 211.659H1006.32V216.312H1044.2V211.659Z" fill="white"/>
<path d="M1044.45 216.571H1006.07V211.401H1044.45V216.571ZM1006.57 216.054H1043.94V211.918H1006.57V216.054Z" fill="#3F3D56"/>
<path d="M1018.57 213.823C1018.67 213.816 1018.77 213.786 1018.86 213.736C1018.95 213.685 1019.02 213.615 1019.08 213.531C1019.14 213.447 1019.18 213.351 1019.2 213.249C1019.22 213.147 1019.22 213.042 1019.2 212.941L1021.26 211.557L1020.08 211.036L1018.3 212.431C1018.14 212.484 1018 212.597 1017.92 212.748C1017.83 212.899 1017.8 213.077 1017.83 213.248C1017.87 213.42 1017.96 213.573 1018.09 213.679C1018.23 213.785 1018.4 213.836 1018.57 213.823H1018.57Z" fill="#9F616A"/>
<path d="M1020.56 212.826L1020.53 212.808C1020.04 212.437 1019.49 212.055 1018.97 211.685L1018.93 211.663L1018.96 211.633C1020.08 210.285 1021.21 208.877 1022.3 207.515L1022.3 207.51L1022.31 207.504L1022.31 207.499L1022.32 207.501L1022.32 207.498L1022.29 207.5L1021.96 204.804C1021.79 204.523 1021.71 204.2 1021.71 203.872C1021.72 203.544 1021.82 203.225 1021.99 202.952C1022.2 202.657 1022.5 202.449 1022.84 202.369C1023.19 202.288 1023.55 202.341 1023.86 202.516C1024.01 202.62 1024.14 202.759 1024.23 202.921C1024.32 203.083 1024.38 203.264 1024.4 203.451C1024.42 203.618 1024.4 203.787 1024.35 203.947C1024.3 204.107 1024.22 204.254 1024.1 204.376C1024.22 205.685 1024.27 206.998 1024.26 208.312L1024.26 208.325L1024.25 208.335C1023.09 209.846 1021.81 211.348 1020.58 212.802L1020.56 212.826Z" fill="#CBCBCB"/>
<path d="M1020.96 204.538C1020.97 204.585 1020.97 204.633 1020.98 204.681L1024.61 206.828L1025.5 206.307L1026.44 207.57L1024.55 208.95L1020.4 205.599C1020.23 205.663 1020.05 205.673 1019.87 205.627C1019.7 205.582 1019.54 205.483 1019.42 205.343C1019.3 205.204 1019.23 205.031 1019.21 204.848C1019.19 204.664 1019.22 204.479 1019.31 204.316C1019.39 204.153 1019.53 204.021 1019.69 203.937C1019.85 203.852 1020.03 203.82 1020.21 203.844C1020.39 203.869 1020.55 203.948 1020.69 204.072C1020.82 204.196 1020.92 204.359 1020.96 204.538H1020.96Z" fill="#FFB7B7"/>
<path d="M1024.74 206.645C1024.74 206.587 1024.74 206.528 1024.76 206.474C1024.78 206.419 1024.81 206.369 1024.85 206.328L1026.7 204.433C1026.89 204.245 1027.13 204.134 1027.39 204.12C1027.65 204.106 1027.9 204.19 1028.11 204.357C1028.31 204.525 1028.44 204.762 1028.48 205.024C1028.52 205.286 1028.47 205.555 1028.33 205.777L1027.01 207.857C1026.95 207.943 1026.87 208.004 1026.77 208.026C1026.67 208.047 1026.57 208.028 1026.48 207.971L1024.91 206.931C1024.87 206.899 1024.83 206.857 1024.8 206.808C1024.77 206.758 1024.75 206.702 1024.74 206.645Z" fill="#3F3D56"/>
<path d="M188.705 102.997C186.502 103.29 182.792 103.101 178.546 102.666C166.999 101.485 151.484 98.4958 151.484 98.4958C151.484 98.4958 70.824 87.2408 16.9728 49.4565C16.9728 49.4565 9.35914 42.9867 18.7486 38.702C20.1856 38.068 21.6761 37.5628 23.2026 37.1925C23.2026 37.1925 23.2433 37.1662 23.3231 37.1183C24.4236 36.4809 25.5791 35.9436 26.7756 35.5127C30.297 34.2174 36.0198 33.0283 42.0975 35.5183L192.29 95.8137C192.29 95.8137 196.9 101.906 188.705 102.997Z" fill="#3F3D56"/>
<path d="M160.218 84.5812L198.061 68.7735L211.884 74.4981L192.29 95.8134C192.29 95.8134 159.675 88.7444 160.218 84.5812Z" fill="#3F3D56"/>
<path d="M81.2299 52.0249L150.331 48.4261L160.316 52.9736L127.982 59.5726L116.493 67.7731L81.2299 52.0249Z" fill="#3F3D56"/>
<path d="M178.545 102.667C166.999 101.485 151.484 98.4959 151.484 98.4959C151.484 98.4959 70.8238 87.241 16.9726 49.4566C16.9726 49.4566 9.35891 42.9868 18.7483 38.7022L18.7505 38.8196C18.7505 38.8196 29.6077 50.357 89.1676 71.356L178.545 102.667Z" fill="#6C63FF"/>
<path d="M168.21 99.8141L194.6 118.22L202.082 119.052L187.64 102.077C187.64 102.077 167.626 92.861 168.21 99.8141Z" fill="#3F3D56"/>
<path d="M28.9911 42.4563C27.5981 42.1683 24.9453 39.1269 23.3226 37.1184C24.4231 36.4811 25.5785 35.9437 26.7751 35.5128C28.0918 37.0929 30.4803 39.7091 32.0713 39.9932C34.368 40.4032 31.0865 42.89 28.9911 42.4563Z" fill="#6C63FF"/>
<path d="M146.203 137.955L127.326 134.731L82.8339 87.5526L74.574 78.7942L70.5596 74.5376C81.1229 69.0341 115 87.5258 115 87.5258C115.561 88.267 115.563 89.2885 115.29 90.3546C114.777 92.3527 113.3 94.5077 112.746 95.2682C112.612 95.4516 112.533 95.5537 112.533 95.5537L146.203 137.955Z" fill="#3F3D56"/>
</svg>
