<svg width="12" height="20" viewBox="0 0 12 20" fill="none" xmlns="http://www.w3.org/2000/svg">
<path d="M11.8533 7.31063C11.7747 7.19308 11.6687 7.09685 11.5447 7.0304C11.4206 6.96394 11.2823 6.9293 11.1419 6.92951H8.57071V5.19713H10.4563C10.6836 5.19713 10.9016 5.10587 11.0623 4.94343C11.223 4.78099 11.3133 4.56067 11.3133 4.33094V0.866189C11.3133 0.636461 11.223 0.416143 11.0623 0.253701C10.9016 0.0912589 10.6836 0 10.4563 0H7.71364C6.39525 0 5.13085 0.529302 4.1986 1.47146C3.26636 2.41363 2.74263 3.69148 2.74263 5.02389V6.92951H0.857071C0.629762 6.92951 0.411763 7.02077 0.251031 7.18321C0.0902985 7.34565 0 7.56597 0 7.7957V11.2605C0 11.4902 0.0902985 11.7105 0.251031 11.8729C0.411763 12.0354 0.629762 12.1266 0.857071 12.1266H2.74263V18.19C2.74263 18.4197 2.83293 18.64 2.99366 18.8025C3.15439 18.9649 3.37239 19.0562 3.5997 19.0562H7.71364C7.94095 19.0562 8.15895 18.9649 8.31968 18.8025C8.48041 18.64 8.57071 18.4197 8.57071 18.19V12.1266H9.77061C9.94227 12.1268 10.11 12.0749 10.2521 11.9776C10.3942 11.8803 10.5042 11.7421 10.5677 11.5809L11.939 8.11619C11.9908 7.98503 12.01 7.84306 11.9951 7.70266C11.9801 7.56226 11.9315 7.42767 11.8533 7.31063ZM9.1878 10.3943H7.71364C7.48633 10.3943 7.26833 10.4855 7.1076 10.648C6.94687 10.8104 6.85657 11.0307 6.85657 11.2605V17.3238H4.45677V11.2605C4.45677 11.0307 4.36647 10.8104 4.20574 10.648C4.04501 10.4855 3.82701 10.3943 3.5997 10.3943H1.71414V8.66189H3.5997C3.82701 8.66189 4.04501 8.57063 4.20574 8.40819C4.36647 8.24574 4.45677 8.02543 4.45677 7.7957V5.02389C4.45903 4.15163 4.80289 3.31575 5.41319 2.69897C6.02348 2.08218 6.85056 1.73466 7.71364 1.73238H9.5992V3.46476H8.91354C8.62335 3.42203 8.32757 3.43996 8.04452 3.51744C7.76146 3.59491 7.49716 3.73029 7.26796 3.91517C7.12888 4.06234 7.02072 4.23644 6.95002 4.42699C6.87931 4.61754 6.84753 4.82059 6.85657 5.02389V7.7957C6.85657 8.02543 6.94687 8.24574 7.1076 8.40819C7.26833 8.57063 7.48633 8.66189 7.71364 8.66189H9.87346L9.1878 10.3943Z" fill="black"/>
</svg>
