<svg width="18" height="19" viewBox="0 0 18 19" fill="none" xmlns="http://www.w3.org/2000/svg">
<path d="M13.806 3.20768C13.5924 3.20768 13.3836 3.27293 13.206 3.39517C13.0284 3.51741 12.89 3.69116 12.8082 3.89444C12.7265 4.09772 12.7051 4.3214 12.7468 4.53721C12.7884 4.75301 12.8913 4.95124 13.0423 5.10682C13.1934 5.2624 13.3858 5.36836 13.5953 5.41128C13.8048 5.45421 14.022 5.43218 14.2193 5.34798C14.4166 5.26378 14.5853 5.12119 14.704 4.93824C14.8227 4.75529 14.886 4.5402 14.886 4.32017C14.886 4.02512 14.7722 3.74215 14.5697 3.53352C14.3671 3.32489 14.0924 3.20768 13.806 3.20768ZM17.946 5.4512C17.9285 4.68201 17.7886 3.92097 17.532 3.19841C17.3032 2.58017 16.947 2.02035 16.488 1.55749C16.0423 1.08229 15.4976 0.71772 14.895 0.49135C14.1954 0.218939 13.4558 0.0715795 12.708 0.0556245C11.754 -5.18044e-08 11.448 0 9 0C6.552 0 6.246 -5.18044e-08 5.292 0.0556245C4.54424 0.0715795 3.80461 0.218939 3.105 0.49135C2.50351 0.720012 1.95924 1.08427 1.512 1.55749C1.05068 2.01655 0.696759 2.57768 0.477 3.19841C0.212545 3.91906 0.069489 4.68094 0.0539999 5.4512C-5.02914e-08 6.4339 0 6.74911 0 9.27075C0 11.7924 -5.02914e-08 12.1076 0.0539999 13.0903C0.069489 13.8606 0.212545 14.6224 0.477 15.3431C0.696759 15.9638 1.05068 16.525 1.512 16.984C1.95924 17.4572 2.50351 17.8215 3.105 18.0502C3.80461 18.3226 4.54424 18.4699 5.292 18.4859C6.246 18.5415 6.552 18.5415 9 18.5415C11.448 18.5415 11.754 18.5415 12.708 18.4859C13.4558 18.4699 14.1954 18.3226 14.895 18.0502C15.4976 17.8238 16.0423 17.4592 16.488 16.984C16.949 16.5229 17.3055 15.9626 17.532 15.3431C17.7886 14.6205 17.9285 13.8595 17.946 13.0903C17.946 12.1076 18 11.7924 18 9.27075C18 6.74911 18 6.4339 17.946 5.4512ZM16.326 12.9791C16.3194 13.5675 16.216 14.1506 16.02 14.7034C15.8763 15.1069 15.6455 15.4714 15.345 15.7695C15.0531 16.076 14.6999 16.3132 14.31 16.4649C13.7733 16.6667 13.2073 16.7733 12.636 16.7801C11.736 16.8264 11.403 16.8357 9.036 16.8357C6.669 16.8357 6.336 16.8357 5.436 16.7801C4.8428 16.7915 4.25214 16.6974 3.69 16.5019C3.3172 16.3426 2.98022 16.1059 2.7 15.8066C2.40128 15.5088 2.17336 15.144 2.034 14.7405C1.81427 14.1798 1.6924 13.5835 1.674 12.9791C1.674 12.052 1.62 11.709 1.62 9.27075C1.62 6.83254 1.62 6.48953 1.674 5.56245C1.67803 4.96083 1.78466 4.36462 1.989 3.80101C2.14744 3.4097 2.39064 3.06089 2.7 2.78123C2.97343 2.46247 3.31136 2.20931 3.69 2.03957C4.2386 1.83565 4.8168 1.72907 5.4 1.72436C6.3 1.72436 6.633 1.66874 9 1.66874C11.367 1.66874 11.7 1.66874 12.6 1.72436C13.1713 1.73111 13.7373 1.83769 14.274 2.03957C14.683 2.19592 15.0501 2.45012 15.345 2.78123C15.6399 3.066 15.8704 3.41417 16.02 3.80101C16.22 4.36554 16.3236 4.9615 16.326 5.56245C16.371 6.48953 16.38 6.83254 16.38 9.27075C16.38 11.709 16.371 12.052 16.326 12.9791ZM9 4.51486C8.08723 4.51669 7.19547 4.79717 6.43739 5.32087C5.67931 5.84457 5.08894 6.58798 4.74087 7.45716C4.3928 8.32635 4.30265 9.28231 4.48181 10.2043C4.66098 11.1262 5.10141 11.9727 5.74747 12.6369C6.39352 13.3011 7.21621 13.7532 8.11157 13.9359C9.00694 14.1187 9.9348 14.024 10.7779 13.6637C11.621 13.3035 12.3416 12.6939 12.8485 11.912C13.3554 11.1301 13.626 10.211 13.626 9.27075C13.6272 8.64507 13.5083 8.02532 13.2761 7.44715C13.0439 6.86898 12.7031 6.3438 12.2732 5.90181C11.8433 5.45982 11.3328 5.10974 10.771 4.87171C10.2093 4.63369 9.6074 4.51241 9 4.51486ZM9 12.3579C8.40725 12.3579 7.82781 12.1769 7.33496 11.8376C6.8421 11.4984 6.45797 11.0163 6.23113 10.4522C6.0043 9.88805 5.94495 9.26733 6.06059 8.66848C6.17623 8.06963 6.46166 7.51955 6.8808 7.0878C7.29994 6.65605 7.83395 6.36203 8.41531 6.24291C8.99668 6.12379 9.59927 6.18493 10.1469 6.41859C10.6945 6.65225 11.1626 7.04794 11.4919 7.55562C11.8212 8.0633 11.997 8.66017 11.997 9.27075C11.997 9.67616 11.9195 10.0776 11.7689 10.4522C11.6183 10.8267 11.3975 11.167 11.1192 11.4537C10.8409 11.7404 10.5105 11.9678 10.1469 12.1229C9.78329 12.2781 9.39357 12.3579 9 12.3579Z" fill="black"/>
</svg>
