<svg width="18" height="15" viewBox="0 0 18 15" fill="none" xmlns="http://www.w3.org/2000/svg">
<path d="M15.3 0.0595703H2.7C1.98392 0.0595703 1.29716 0.352597 0.790812 0.874189C0.284464 1.39578 0 2.10321 0 2.84085V12.1118C0 12.8494 0.284464 13.5569 0.790812 14.0784C1.29716 14.6 1.98392 14.8931 2.7 14.8931H15.3C16.0161 14.8931 16.7028 14.6 17.2092 14.0784C17.7155 13.5569 18 12.8494 18 12.1118V2.84085C18 2.10321 17.7155 1.39578 17.2092 0.874189C16.7028 0.352597 16.0161 0.0595703 15.3 0.0595703ZM2.7 1.91376H15.3C15.5387 1.91376 15.7676 2.01143 15.9364 2.1853C16.1052 2.35916 16.2 2.59497 16.2 2.84085L9 7.36507L1.8 2.84085C1.8 2.59497 1.89482 2.35916 2.0636 2.1853C2.23239 2.01143 2.46131 1.91376 2.7 1.91376ZM16.2 12.1118C16.2 12.3577 16.1052 12.5935 15.9364 12.7673C15.7676 12.9412 15.5387 13.0389 15.3 13.0389H2.7C2.46131 13.0389 2.23239 12.9412 2.0636 12.7673C1.89482 12.5935 1.8 12.3577 1.8 12.1118V4.95462L8.532 9.19144C8.66882 9.27281 8.82402 9.31565 8.982 9.31565C9.13998 9.31565 9.29518 9.27281 9.432 9.19144L16.2 4.95462V12.1118Z" fill="black"/>
</svg>
