<svg width="24" height="14" viewBox="0 0 24 14" fill="none" xmlns="http://www.w3.org/2000/svg">
<path d="M3.6 2.33333H20.4C20.7183 2.33333 21.0235 2.21042 21.2485 1.99162C21.4736 1.77283 21.6 1.47609 21.6 1.16667C21.6 0.857247 21.4736 0.560501 21.2485 0.341709C21.0235 0.122917 20.7183 0 20.4 0H3.6C3.28174 0 2.97652 0.122917 2.75147 0.341709C2.52643 0.560501 2.4 0.857247 2.4 1.16667C2.4 1.47609 2.52643 1.77283 2.75147 1.99162C2.97652 2.21042 3.28174 2.33333 3.6 2.33333ZM22.8 5.83333H1.2C0.88174 5.83333 0.576515 5.95625 0.351472 6.17504C0.126428 6.39383 0 6.69058 0 7C0 7.30942 0.126428 7.60616 0.351472 7.82496C0.576515 8.04375 0.88174 8.16667 1.2 8.16667H22.8C23.1183 8.16667 23.4235 8.04375 23.6485 7.82496C23.8736 7.60616 24 7.30942 24 7C24 6.69058 23.8736 6.39383 23.6485 6.17504C23.4235 5.95625 23.1183 5.83333 22.8 5.83333ZM20.4 11.6667H3.6C3.28174 11.6667 2.97652 11.7896 2.75147 12.0084C2.52643 12.2272 2.4 12.5239 2.4 12.8333C2.4 13.1428 2.52643 13.4395 2.75147 13.6583C2.97652 13.8771 3.28174 14 3.6 14H20.4C20.7183 14 21.0235 13.8771 21.2485 13.6583C21.4736 13.4395 21.6 13.1428 21.6 12.8333C21.6 12.5239 21.4736 12.2272 21.2485 12.0084C21.0235 11.7896 20.7183 11.6667 20.4 11.6667Z" fill="#27272C"/>
</svg>
