<svg width="25" height="24" viewBox="0 0 25 24" fill="none" xmlns="http://www.w3.org/2000/svg">
<g clip-path="url(#clip0)">
<path d="M12.0039 24C18.6279 24 24.0039 18.624 24.0039 12C24.0039 5.376 18.6279 0 12.0039 0C5.37991 0 0.00390625 5.376 0.00390625 12C0.00390625 18.624 5.37991 24 12.0039 24ZM16.8759 17.656V17.657C16.0689 17.657 13.5199 14.829 6.35591 16.297C6.16691 16.346 5.91991 16.423 5.77991 16.423C4.86491 16.423 4.68991 15.054 5.67391 14.845C9.63691 13.97 13.6869 14.047 17.1409 16.113C17.9649 16.639 17.6149 17.656 16.8759 17.656ZM18.1789 14.483C18.0659 14.453 18.0989 14.552 17.5819 14.28C14.5569 12.49 10.0489 11.768 6.03691 12.857C5.80491 12.92 5.67891 12.983 5.46091 12.983C4.38991 12.983 4.10591 11.372 5.27291 11.043C9.98891 9.718 15.0479 10.491 18.5699 12.586C18.9619 12.818 19.1169 13.119 19.1169 13.539C19.1119 14.061 18.7059 14.483 18.1789 14.483ZM4.55191 6.998C9.07491 5.674 15.9199 6.092 20.1759 8.576C21.2669 9.205 20.8379 10.796 19.6779 10.796L19.6769 10.795C19.4249 10.795 19.2699 10.732 19.0519 10.606C15.6089 8.55 9.44791 8.057 5.46191 9.17C5.28691 9.218 5.06891 9.295 4.83691 9.295C4.19791 9.295 3.70991 8.796 3.70991 8.153C3.70991 7.496 4.11691 7.124 4.55191 6.998Z" fill="#FBFCFD"/>
</g>
<defs>
<clipPath id="clip0">
<rect width="24" height="24" fill="white" transform="translate(0.00390625)"/>
</clipPath>
</defs>
</svg>
