<svg width="20" height="17" viewBox="0 0 20 17" fill="none" xmlns="http://www.w3.org/2000/svg">
<path d="M19.9939 1.21113C19.994 1.05174 19.9516 0.895173 19.8709 0.757366C19.7902 0.61956 19.6742 0.505441 19.5347 0.426631C19.3952 0.347822 19.2371 0.307137 19.0766 0.30872C18.9161 0.310304 18.7589 0.354099 18.6209 0.435645C18.089 0.750021 17.5163 0.990776 16.9187 1.15123C16.0653 0.424124 14.9769 0.0262378 13.8524 0.0303043C12.6188 0.0317144 11.434 0.509101 10.5482 1.36166C9.66242 2.21422 9.14499 3.37522 9.10517 4.59949C6.67319 4.21441 4.46902 2.95402 2.91298 1.05868C2.81922 0.94573 2.69949 0.856826 2.56387 0.799464C2.42825 0.742101 2.28073 0.717962 2.13375 0.729081C1.98685 0.741092 1.84511 0.788451 1.72078 0.867065C1.59645 0.945679 1.49328 1.05318 1.42019 1.18027C1.04533 1.82982 0.830042 2.55799 0.791798 3.30566C0.753554 4.05332 0.893438 4.79941 1.20009 5.48332L1.19832 5.48508C1.06049 5.56937 0.946751 5.68736 0.86797 5.82776C0.789189 5.96816 0.748002 6.12629 0.748348 6.28701C0.74668 6.41959 0.754689 6.55213 0.772314 6.68356C0.865136 7.819 1.37193 8.88181 2.19765 9.6727C2.14163 9.77866 2.10744 9.89464 2.09708 10.0139C2.08672 10.1331 2.10039 10.2532 2.13729 10.3671C2.49728 11.4808 3.26285 12.421 4.28417 13.0037C3.24654 13.4022 2.12614 13.5411 1.0217 13.4082C0.817283 13.3828 0.610219 13.427 0.434473 13.5338C0.258726 13.6405 0.124732 13.8034 0.0544713 13.9957C-0.0157899 14.188 -0.0181465 14.3983 0.0477878 14.5921C0.113722 14.7859 0.244033 14.9517 0.417343 15.0623C2.31683 16.2771 4.52848 16.9229 6.78786 16.9226C9.35002 16.9512 11.8499 16.1383 13.8986 14.6102C15.9473 13.0821 17.4299 10.9246 18.1159 8.47332C18.4368 7.40547 18.6006 6.2972 18.6023 5.18284C18.6023 5.1238 18.6023 5.06299 18.6014 5.00219C19.0759 4.49409 19.4435 3.89705 19.6826 3.24606C19.9217 2.59508 20.0275 1.90325 19.9939 1.21113ZM16.9888 4.1095C16.8387 4.28578 16.7627 4.51268 16.7767 4.74311C16.7856 4.892 16.7847 5.0418 16.7847 5.18284C16.7828 6.12451 16.6438 7.06096 16.372 7.96313C15.8117 10.0489 14.5627 11.8876 12.825 13.1848C11.0873 14.4821 8.96143 15.1627 6.78786 15.1178C6.00709 15.1181 5.229 15.027 4.4697 14.8464C5.43795 14.5366 6.34328 14.0589 7.14375 13.4356C7.29118 13.3203 7.39908 13.1626 7.45264 12.984C7.5062 12.8054 7.5028 12.6148 7.4429 12.4382C7.38301 12.2616 7.26955 12.1078 7.1181 11.9978C6.96665 11.8878 6.78463 11.827 6.59701 11.8238C5.84164 11.8121 5.12032 11.5098 4.58503 10.9805C4.72083 10.9549 4.85573 10.9232 4.98974 10.8853C5.18605 10.8298 5.35785 10.7103 5.47746 10.5461C5.59708 10.3819 5.65755 10.1825 5.64915 9.98C5.64074 9.7775 5.56395 9.58371 5.43114 9.42982C5.29832 9.27593 5.11721 9.1709 4.91697 9.13164C4.4785 9.04566 4.06591 8.86044 3.71127 8.59038C3.35662 8.32031 3.06948 7.97268 2.87215 7.5745C3.0364 7.59676 3.2017 7.61058 3.36738 7.61592C3.56421 7.61887 3.75689 7.55959 3.91755 7.44664C4.07821 7.33369 4.19852 7.17293 4.2611 6.9876C4.32106 6.80059 4.31798 6.59927 4.25231 6.41417C4.18665 6.22906 4.06198 6.07026 3.89722 5.96185C3.49748 5.69742 3.17004 5.33868 2.94421 4.91775C2.71838 4.49682 2.60123 4.02685 2.60324 3.54992C2.60324 3.49001 2.60501 3.43008 2.60856 3.37104C4.64543 5.25724 7.28739 6.36915 10.0689 6.51086C10.2094 6.51636 10.3492 6.4901 10.4779 6.43407C10.6066 6.37804 10.7207 6.29371 10.8118 6.18745C10.9019 6.08016 10.9658 5.95356 10.9982 5.81762C11.0307 5.68167 11.031 5.5401 10.999 5.40404C10.947 5.1887 10.9205 4.96807 10.92 4.74664C10.9208 3.97468 11.2301 3.23458 11.7798 2.68872C12.3295 2.14287 13.0749 1.83585 13.8524 1.83504C14.2524 1.83398 14.6482 1.91526 15.015 2.07376C15.3818 2.23226 15.7115 2.46454 15.9833 2.75593C16.0881 2.8679 16.22 2.95138 16.3665 2.99843C16.513 3.04548 16.6692 3.05454 16.8202 3.02474C17.1935 2.9526 17.5615 2.85544 17.9216 2.73394C17.6759 3.23293 17.3621 3.69583 16.9888 4.1095Z" fill="black"/>
</svg>
