<svg width="81" height="50" viewBox="0 0 81 50" fill="none" xmlns="http://www.w3.org/2000/svg">
<path d="M15.9766 37.45C15.6099 37.8167 15.1599 38 14.6266 38C14.0932 38 13.6432 37.8167 13.2766 37.45C12.9099 37.0833 12.7266 36.6333 12.7266 36.1V13.8C12.7266 13.3 12.8932 12.8833 13.2266 12.55C13.5932 12.1833 14.0266 12 14.5266 12C15.0266 12 15.4599 12.1833 15.8266 12.55C16.1932 12.8833 16.3766 13.3 16.3766 13.8V15.85C16.3766 15.8833 16.3932 15.9 16.4266 15.9C16.4599 15.9 16.4932 15.8833 16.5266 15.85C18.9266 12.95 21.7766 11.5 25.0766 11.5C28.1099 11.5 30.3099 12.35 31.6766 14.05C33.0432 15.75 33.7266 18.5667 33.7266 22.5V36.1C33.7266 36.6333 33.5432 37.0833 33.1766 37.45C32.8432 37.8167 32.4099 38 31.8766 38C31.3432 38 30.8932 37.8167 30.5266 37.45C30.1599 37.0833 29.9766 36.6333 29.9766 36.1V23C29.9766 19.7 29.5266 17.4667 28.6266 16.3C27.7266 15.1 26.2099 14.5 24.0766 14.5C22.3432 14.5 20.6599 15.3167 19.0266 16.95C17.3932 18.55 16.5766 20.2 16.5766 21.9V36.1C16.5766 36.6333 16.3766 37.0833 15.9766 37.45ZM39.748 37.45C39.3814 37.8167 38.9314 38 38.398 38C37.8647 38 37.4147 37.8167 37.048 37.45C36.6814 37.0833 36.498 36.6333 36.498 36.1V13.8C36.498 13.3 36.6647 12.8833 36.998 12.55C37.3647 12.1833 37.798 12 38.298 12C38.798 12 39.2314 12.1833 39.598 12.55C39.9647 12.8833 40.148 13.3 40.148 13.8V15.85C40.148 15.8833 40.1647 15.9 40.198 15.9C40.2314 15.9 40.2647 15.8833 40.298 15.85C42.698 12.95 45.548 11.5 48.848 11.5C51.8814 11.5 54.0814 12.35 55.448 14.05C56.8147 15.75 57.498 18.5667 57.498 22.5V36.1C57.498 36.6333 57.3147 37.0833 56.948 37.45C56.6147 37.8167 56.1814 38 55.648 38C55.1147 38 54.6647 37.8167 54.298 37.45C53.9314 37.0833 53.748 36.6333 53.748 36.1V23C53.748 19.7 53.298 17.4667 52.398 16.3C51.498 15.1 49.9814 14.5 47.848 14.5C46.1147 14.5 44.4314 15.3167 42.798 16.95C41.1647 18.55 40.348 20.2 40.348 21.9V36.1C40.348 36.6333 40.148 37.0833 39.748 37.45ZM63.7695 37.45C63.4029 37.8167 62.9529 38 62.4195 38C61.8862 38 61.4362 37.8167 61.0695 37.45C60.7029 37.0833 60.5195 36.6333 60.5195 36.1V2.4C60.5195 1.86666 60.7029 1.41666 61.0695 1.05C61.4362 0.683331 61.8862 0.499997 62.4195 0.499997C62.9529 0.499997 63.4029 0.683331 63.7695 1.05C64.1362 1.41666 64.3195 1.86666 64.3195 2.4V23.55C64.3195 23.5833 64.3362 23.6 64.3695 23.6L64.4695 23.55L75.2695 13.6C76.4029 12.5333 77.7695 12 79.3695 12C79.8029 12 80.0862 12.2 80.2195 12.6C80.3862 13 80.3195 13.3333 80.0195 13.6L68.4195 24.2C68.2195 24.4 68.2029 24.6 68.3695 24.8L80.1695 36.35C80.4362 36.6167 80.4862 36.9667 80.3195 37.4C80.1529 37.8 79.8695 38 79.4695 38C77.9029 38 76.5695 37.45 75.4695 36.35L64.4695 25.45C64.4362 25.4167 64.4029 25.4 64.3695 25.4C64.3362 25.4 64.3195 25.4167 64.3195 25.45V36.1C64.3195 36.6333 64.1362 37.0833 63.7695 37.45Z" fill="black"/>
<rect x="6" y="8" width="4" height="30" rx="2" fill="black"/>
<rect x="53.755" y="28" width="3.76" height="22" rx="1.88" fill="black"/>
<circle cx="8" cy="3.5" r="2.5" fill="black"/>
</svg>
