<svg width="114" height="50" viewBox="0 0 114 50" fill="none" xmlns="http://www.w3.org/2000/svg">
<path d="M15.9766 37.45C15.6099 37.8167 15.1599 38 14.6266 38C14.0932 38 13.6432 37.8167 13.2766 37.45C12.9099 37.0833 12.7266 36.6333 12.7266 36.1V13.8C12.7266 13.3 12.8932 12.8833 13.2266 12.55C13.5932 12.1833 14.0266 12 14.5266 12C15.0266 12 15.4599 12.1833 15.8266 12.55C16.1932 12.8833 16.3766 13.3 16.3766 13.8V15.85C16.3766 15.8833 16.3932 15.9 16.4266 15.9C16.4599 15.9 16.4932 15.8833 16.5266 15.85C18.9266 12.95 21.7766 11.5 25.0766 11.5C28.1099 11.5 30.3099 12.35 31.6766 14.05C33.0432 15.75 33.7266 18.5667 33.7266 22.5V36.1C33.7266 36.6333 33.5432 37.0833 33.1766 37.45C32.8432 37.8167 32.4099 38 31.8766 38C31.3432 38 30.8932 37.8167 30.5266 37.45C30.1599 37.0833 29.9766 36.6333 29.9766 36.1V23C29.9766 19.7 29.5266 17.4667 28.6266 16.3C27.7266 15.1 26.2099 14.5 24.0766 14.5C22.3432 14.5 20.6599 15.3167 19.0266 16.95C17.3932 18.55 16.5766 20.2 16.5766 21.9V36.1C16.5766 36.6333 16.3766 37.0833 15.9766 37.45ZM39.748 37.45C39.3814 37.8167 38.9314 38 38.398 38C37.8647 38 37.4147 37.8167 37.048 37.45C36.6814 37.0833 36.498 36.6333 36.498 36.1V13.8C36.498 13.3 36.6647 12.8833 36.998 12.55C37.3647 12.1833 37.798 12 38.298 12C38.798 12 39.2314 12.1833 39.598 12.55C39.9647 12.8833 40.148 13.3 40.148 13.8V15.85C40.148 15.8833 40.1647 15.9 40.198 15.9C40.2314 15.9 40.2647 15.8833 40.298 15.85C42.698 12.95 45.548 11.5 48.848 11.5C51.8814 11.5 54.0814 12.35 55.448 14.05C56.8147 15.75 57.498 18.5667 57.498 22.5V36.1C57.498 36.6333 57.3147 37.0833 56.948 37.45C56.6147 37.8167 56.1814 38 55.648 38C55.1147 38 54.6647 37.8167 54.298 37.45C53.9314 37.0833 53.748 36.6333 53.748 36.1V23C53.748 19.7 53.298 17.4667 52.398 16.3C51.498 15.1 49.9814 14.5 47.848 14.5C46.1147 14.5 44.4314 15.3167 42.798 16.95C41.1647 18.55 40.348 20.2 40.348 21.9V36.1C40.348 36.6333 40.148 37.0833 39.748 37.45ZM63.7695 37.45C63.4029 37.8167 62.9529 38 62.4195 38C61.8862 38 61.4362 37.8167 61.0695 37.45C60.7029 37.0833 60.5195 36.6333 60.5195 36.1V2.4C60.5195 1.86666 60.7029 1.41666 61.0695 1.05C61.4362 0.683331 61.8862 0.499997 62.4195 0.499997C62.9529 0.499997 63.4029 0.683331 63.7695 1.05C64.1362 1.41666 64.3195 1.86666 64.3195 2.4V23.55C64.3195 23.5833 64.3362 23.6 64.3695 23.6L64.4695 23.55L75.2695 13.6C76.4029 12.5333 77.7695 12 79.3695 12C79.8029 12 80.0862 12.2 80.2195 12.6C80.3862 13 80.3195 13.3333 80.0195 13.6L68.4195 24.2C68.2195 24.4 68.2029 24.6 68.3695 24.8L80.1695 36.35C80.4362 36.6167 80.4862 36.9667 80.3195 37.4C80.1529 37.8 79.8695 38 79.4695 38C77.9029 38 76.5695 37.45 75.4695 36.35L64.4695 25.45C64.4362 25.4167 64.4029 25.4 64.3695 25.4C64.3362 25.4 64.3195 25.4167 64.3195 25.45V36.1C64.3195 36.6333 64.1362 37.0833 63.7695 37.45Z" fill="black"/>
<path d="M89.396 28.564V32.876C89.396 33.8467 89.8253 34.7147 90.684 35.48C91.5427 36.2267 92.5133 36.6 93.596 36.6C94.9213 36.6 95.948 36.1053 96.676 35.116C97.4227 34.1267 97.796 32.6613 97.796 30.72C97.796 26.8 96.396 24.84 93.596 24.84C92.4947 24.84 91.5147 25.2227 90.656 25.988C89.816 26.7533 89.396 27.612 89.396 28.564ZM88.976 37.72C88.7707 37.9067 88.528 38 88.248 38C87.968 38 87.7253 37.9067 87.52 37.72C87.3333 37.5147 87.24 37.272 87.24 36.992V18.064C87.24 17.7653 87.3427 17.5133 87.548 17.308C87.7533 17.1027 88.0053 17 88.304 17C88.6027 17 88.8547 17.1027 89.06 17.308C89.284 17.5133 89.396 17.7653 89.396 18.064V25.316C89.396 25.3347 89.4053 25.344 89.424 25.344C89.4427 25.344 89.4613 25.3347 89.48 25.316C90.6933 23.8787 92.2147 23.16 94.044 23.16C95.8547 23.16 97.2827 23.8227 98.328 25.148C99.392 26.4547 99.924 28.312 99.924 30.72C99.924 33.0533 99.3733 34.9013 98.272 36.264C97.1893 37.608 95.78 38.28 94.044 38.28C92.1773 38.28 90.6187 37.5053 89.368 35.956C89.3493 35.9373 89.3307 35.928 89.312 35.928C89.2933 35.928 89.284 35.9373 89.284 35.956V36.992C89.284 37.272 89.1813 37.5147 88.976 37.72ZM108.104 30.3C106.256 30.3 104.856 30.5987 103.904 31.196C102.97 31.7933 102.504 32.6333 102.504 33.716C102.504 34.556 102.737 35.2373 103.204 35.76C103.689 36.264 104.324 36.516 105.108 36.516C106.452 36.516 107.562 36.068 108.44 35.172C109.336 34.276 109.784 33.0907 109.784 31.616V30.552C109.784 30.384 109.7 30.3 109.532 30.3H108.104ZM104.66 38.28C103.39 38.28 102.354 37.8787 101.552 37.076C100.749 36.2733 100.348 35.2093 100.348 33.884C100.348 32.3347 100.964 31.0933 102.196 30.16C103.428 29.2267 105.397 28.76 108.104 28.76H109.532C109.7 28.76 109.784 28.6853 109.784 28.536V28.004C109.784 26.8653 109.522 26.072 109 25.624C108.477 25.1573 107.553 24.924 106.228 24.924C104.94 24.924 103.549 25.1667 102.056 25.652C101.832 25.7267 101.626 25.6987 101.44 25.568C101.253 25.4373 101.16 25.2507 101.16 25.008C101.16 24.3547 101.468 23.9347 102.084 23.748C103.465 23.356 104.846 23.16 106.228 23.16C108.374 23.16 109.858 23.552 110.68 24.336C111.52 25.12 111.94 26.5293 111.94 28.564V36.992C111.94 37.272 111.837 37.5147 111.632 37.72C111.445 37.9067 111.212 38 110.932 38C110.652 38 110.409 37.9067 110.204 37.72C109.998 37.5147 109.896 37.272 109.896 36.992L109.868 35.536C109.868 35.5173 109.858 35.508 109.84 35.508C109.802 35.508 109.784 35.5267 109.784 35.564C108.682 37.3747 106.974 38.28 104.66 38.28Z" fill="black"/>
<rect x="6" y="8" width="4" height="30" rx="2" fill="black"/>
<rect x="53.755" y="28" width="3.76" height="22" rx="1.88" fill="black"/>
<circle cx="8" cy="3.5" r="2.5" fill="black"/>
</svg>
